<svg width="28" height="27" viewBox="0 0 28 27" fill="none" xmlns="http://www.w3.org/2000/svg">
<path d="M4.20805 0.0364866C4.55682 0.130384 4.35561 -0.0600948 9.08002 4.65895C12.6267 8.20561 13.5335 9.12581 13.5657 9.21166C13.6461 9.43165 14.7327 13.2788 14.7327 13.3432C14.7327 13.5229 14.5234 13.7322 14.3464 13.7322C14.2551 13.7322 10.3248 12.6135 10.1853 12.5491C10.1102 12.5142 8.73125 11.1513 5.64603 8.06611C0.918941 3.33365 1.13088 3.55632 1.03698 3.19682C0.964548 2.92318 0.999424 2.61734 1.13356 2.34906C1.21137 2.19346 3.15908 0.240379 3.33078 0.146482C3.59369 0.00429249 3.92904 -0.0386324 4.20805 0.0364866ZM3.75198 0.838643C3.70369 0.860106 3.26102 1.28399 2.74861 1.7964C1.77475 2.77831 1.77475 2.77831 1.815 2.99561C1.82841 3.07878 1.91426 3.17536 2.30595 3.57242L2.7808 4.04727L3.91294 2.91513L5.04777 1.78031L4.59706 1.3296C4.35024 1.0801 4.11147 0.860106 4.06855 0.838643C3.96392 0.793036 3.85929 0.793036 3.75198 0.838643ZM4.47097 3.48388L3.34419 4.61066L6.84524 8.11171L10.3463 11.6128L11.4784 10.4806L12.6133 9.3458L9.12026 5.8528C7.19669 3.92923 5.6192 2.35711 5.61116 2.35711C5.60311 2.35711 5.09069 2.86416 4.47097 3.48388ZM12.0499 11.0628C11.5428 11.5698 11.1324 11.991 11.1377 11.9964C11.1592 12.0125 13.7213 12.7395 13.732 12.7315C13.7427 12.7181 13.005 10.1372 12.9889 10.1372C12.9808 10.1372 12.5596 10.5531 12.0499 11.0628Z" fill="black"/>
<path d="M9.25424 16.3051H22.0908M13.0153 19.3303H22.0908" stroke="black" stroke-width="2" stroke-linecap="round"/>
<path d="M8.9322 2.64407C10.7032 1.66133 12.4921 1.32204 14.661 1.32204C21.4756 1.32204 27 6.84639 27 13.661C27 20.4757 21.4756 26 14.661 26C12.135 26 9.7863 25.241 7.83051 23.9385C7.83051 23.9385 4.21952 24.8983 2.32203 25.339C2.67715 24.017 3.84831 19.6102 3.84831 19.6102C2.87556 17.8459 2.32204 15.8181 2.32204 13.661C2.32204 11.4136 2.5942 9.74711 3.64407 7.93221" stroke="black" stroke-width="2" stroke-linecap="round"/>
</svg>
