<svg width="133" height="134" viewBox="0 0 133 134" fill="none" xmlns="http://www.w3.org/2000/svg">
<g clip-path="url(#clip0_45_67)">
<path d="M17.2089 0.200391C18.9943 0.681062 17.9643 -0.294013 42.1489 23.8631C60.3045 42.0187 64.9464 46.7293 65.1112 47.1688C65.5232 48.2949 71.0852 67.9887 71.0852 68.3183C71.0852 69.2384 70.014 70.3096 69.1076 70.3096C68.6407 70.3096 48.5212 64.5828 47.807 64.2532C47.4225 64.0746 40.3635 57.0981 24.5701 41.3046C0.371729 17.0788 1.45667 18.2187 0.976 16.3784C0.605197 14.9776 0.783732 13.412 1.4704 12.0386C1.86867 11.2421 11.8392 1.24413 12.7181 0.763462C14.064 0.0355899 15.7807 -0.184145 17.2089 0.200391ZM14.8742 4.30669C14.627 4.41656 12.361 6.58644 9.73794 9.20953C4.7527 14.236 4.7527 14.236 4.9587 15.3484C5.02737 15.7741 5.46684 16.2685 7.47192 18.3011L9.90274 20.7319L15.6983 14.9364L21.5075 9.12713L19.2003 6.81991C17.9368 5.5427 16.7145 4.41656 16.4948 4.30669C15.9592 4.07322 15.4236 4.07322 14.8742 4.30669ZM18.5548 17.8479L12.7868 23.6159L30.7089 41.5381L48.6311 59.4602L54.4266 53.6647L60.2358 47.8554L42.3549 29.9745C32.508 20.1276 24.4327 12.0798 24.3915 12.0798C24.3503 12.0798 21.7272 14.6754 18.5548 17.8479ZM57.3518 56.6449C54.7562 59.2405 52.655 61.3966 52.6824 61.4241C52.7923 61.5065 65.9077 65.2283 65.9627 65.1871C66.0176 65.1184 62.2409 51.9068 62.1585 51.9068C62.1173 51.9068 59.9611 54.0355 57.3518 56.6449Z" fill="black"/>
</g>
<mask id="path-2-inside-1_45_67" fill="white">
<path fill-rule="evenodd" clip-rule="evenodd" d="M71.2643 15.0499C101.489 14.2517 127.407 40.1757 127.407 71.2598C127.407 102.303 102.242 127.469 71.1982 127.469C62.5591 127.469 54.3817 125.522 47.075 122.044C46.7229 121.877 46.3514 121.799 45.986 121.801C45.7935 121.8 45.5979 121.822 45.4023 121.868L16.0675 128.742C15.6946 128.829 15.3659 128.482 15.4737 128.115L23.1141 102.052C23.3276 101.391 23.2663 100.645 22.8828 100.002C17.8698 91.5935 14.9892 81.7669 14.9892 71.2598C14.9892 61.2946 16.6289 54.6792 21.17 46.7414C21.8556 45.5429 21.4399 44.0156 20.2414 43.33C19.043 42.6444 17.5156 43.0601 16.83 44.2586C11.8105 53.0325 9.98921 60.5209 9.98921 71.2598C9.98921 82.2997 12.9142 92.6636 18.0328 101.611L10.6756 126.708C9.49019 130.752 13.1057 134.572 17.2083 133.61L45.7183 126.929C53.479 130.487 62.1104 132.469 71.1982 132.469C105.003 132.469 132.407 105.065 132.407 71.2598C132.407 37.4957 104.3 9.17567 71.1322 10.0516C61.3655 10.3096 54.2465 11.936 45.8512 16.2796C44.6249 16.914 44.1451 18.4225 44.7796 19.6488C45.414 20.8751 46.9225 21.3549 48.1488 20.7204C55.7907 16.7667 62.153 15.2905 71.2643 15.0499Z"/>
</mask>
<path d="M71.2643 15.0499L71.1322 10.0516L71.2643 15.0499ZM47.075 122.044L49.2236 117.529L49.2235 117.529L47.075 122.044ZM45.986 121.801L45.9634 126.801L45.9911 126.801L46.0189 126.801L45.986 121.801ZM45.4023 121.868L46.5431 126.736L46.5431 126.736L45.4023 121.868ZM16.0675 128.742L17.2083 133.61L17.2083 133.61L16.0675 128.742ZM15.4737 128.115L10.6756 126.708L10.6756 126.708L15.4737 128.115ZM23.1141 102.052L18.3564 100.514L18.3353 100.579L18.316 100.645L23.1141 102.052ZM22.8828 100.002L27.1774 97.4411L27.1774 97.441L22.8828 100.002ZM21.17 46.7414L25.51 49.2242L25.51 49.2242L21.17 46.7414ZM20.2414 43.33L22.7243 38.99L22.7243 38.99L20.2414 43.33ZM16.83 44.2586L21.17 46.7414L21.17 46.7414L16.83 44.2586ZM18.0328 101.611L22.8308 103.018L23.4295 100.976L22.3728 99.1284L18.0328 101.611ZM10.6756 126.708L5.87749 125.301L5.87749 125.301L10.6756 126.708ZM17.2083 133.61L16.0675 128.742L16.0675 128.742L17.2083 133.61ZM45.7183 126.929L47.8019 122.384L46.245 121.67L44.5775 122.061L45.7183 126.929ZM71.1322 10.0516L71.0002 5.05336L71.1322 10.0516ZM45.8512 16.2796L48.1488 20.7204L48.1488 20.7204L45.8512 16.2796ZM44.7796 19.6488L40.3387 21.9463L40.3387 21.9464L44.7796 19.6488ZM48.1488 20.7204L50.4464 25.1613L50.4464 25.1613L48.1488 20.7204ZM132.407 71.2598C132.407 37.4938 104.298 9.17572 71.1322 10.0516L71.3963 20.0481C98.6792 19.3276 122.407 42.8576 122.407 71.2598H132.407ZM71.1982 132.469C105.003 132.469 132.407 105.065 132.407 71.2598H122.407C122.407 99.5418 99.4802 122.469 71.1982 122.469V132.469ZM44.9264 126.559C52.8901 130.349 61.8001 132.469 71.1982 132.469V122.469C63.318 122.469 55.8733 120.694 49.2236 117.529L44.9264 126.559ZM46.0189 126.801C45.6462 126.804 45.2702 126.723 44.9264 126.559L49.2235 117.529C48.1756 117.031 47.0565 116.794 45.9531 116.801L46.0189 126.801ZM46.5431 126.736C46.3546 126.78 46.1596 126.802 45.9634 126.801L46.0086 116.801C45.4274 116.799 44.8412 116.864 44.2614 117L46.5431 126.736ZM17.2083 133.61L46.5431 126.736L44.2615 117L14.9267 123.874L17.2083 133.61ZM10.6756 126.708C9.49017 130.752 13.1058 134.571 17.2083 133.61L14.9268 123.874C18.2834 123.087 21.2416 126.213 20.2717 129.521L10.6756 126.708ZM18.316 100.645L10.6756 126.708L20.2717 129.521L27.9121 103.458L18.316 100.645ZM18.5882 102.562C18.2042 101.918 18.1462 101.164 18.3564 100.514L27.8718 103.589C28.509 101.618 28.3285 99.3717 27.1774 97.4411L18.5882 102.562ZM9.98921 71.2598C9.98921 82.693 13.1263 93.4012 18.5882 102.562L27.1774 97.441C22.6132 89.7859 19.9892 80.8407 19.9892 71.2598H9.98921ZM16.83 44.2586C11.8106 53.0324 9.98921 60.5208 9.98921 71.2598H19.9892C19.9892 62.0685 21.4472 56.326 25.51 49.2242L16.83 44.2586ZM17.7586 47.67C16.5601 46.9844 16.1444 45.457 16.83 44.2586L25.51 49.2242C27.5668 45.6289 26.3196 41.0469 22.7243 38.99L17.7586 47.67ZM21.17 46.7414C20.4844 47.9399 18.957 48.3556 17.7586 47.67L22.7243 38.99C19.1289 36.9332 14.5469 38.1803 12.49 41.7757L21.17 46.7414ZM14.9892 71.2598C14.9892 61.2945 16.6289 54.6791 21.17 46.7414L12.49 41.7757C6.99216 51.3859 4.98921 59.7473 4.98921 71.2598H14.9892ZM22.3728 99.1284C17.6752 90.9167 14.9892 81.4059 14.9892 71.2598H4.98921C4.98921 83.1935 8.15317 94.4105 13.6927 104.094L22.3728 99.1284ZM15.4737 128.115L22.8308 103.018L13.2347 100.205L5.87749 125.301L15.4737 128.115ZM16.0675 128.742C15.9372 128.773 15.8609 128.759 15.8089 128.742C15.7427 128.721 15.663 128.676 15.5903 128.599C15.5177 128.522 15.4767 128.44 15.4593 128.373C15.4456 128.32 15.436 128.243 15.4737 128.115L5.87749 125.301C3.61449 133.021 10.5169 140.314 18.3491 138.478L16.0675 128.742ZM44.5775 122.061L16.0675 128.742L18.3491 138.478L46.8591 131.797L44.5775 122.061ZM71.1982 127.469C62.844 127.469 54.9221 125.648 47.8019 122.384L43.6347 131.474C52.0359 135.326 61.3769 137.469 71.1982 137.469V127.469ZM127.407 71.2598C127.407 102.303 102.242 127.469 71.1982 127.469V137.469C107.765 137.469 137.407 107.826 137.407 71.2598H127.407ZM71.2642 15.0499C101.487 14.2517 127.407 40.1739 127.407 71.2598H137.407C137.407 34.8174 107.113 4.09963 71.0002 5.05336L71.2642 15.0499ZM48.1488 20.7204C55.7906 16.7667 62.1529 15.2905 71.2642 15.0499L71.0002 5.05336C60.5782 5.32861 52.7025 7.10534 43.5536 11.8387L48.1488 20.7204ZM49.2204 17.3512C49.8549 18.5775 49.3751 20.0859 48.1488 20.7204L43.5536 11.8387C39.8747 13.7421 38.4354 18.2674 40.3387 21.9463L49.2204 17.3512ZM45.8512 16.2796C47.0775 15.6451 48.586 16.1249 49.2204 17.3512L40.3387 21.9464C42.2421 25.6253 46.7674 27.0646 50.4464 25.1613L45.8512 16.2796ZM71.1322 10.0516C61.3655 10.3096 54.2465 11.9361 45.8512 16.2796L50.4464 25.1613C57.3349 21.5973 62.9405 20.2714 71.3963 20.0481L71.1322 10.0516Z" fill="black" mask="url(#path-2-inside-1_45_67)"/>
<path d="M44.717 79.9361H110.428M63.97 95.4222H110.428" stroke="black" stroke-width="5" stroke-linecap="round"/>
<defs>
<clipPath id="clip0_45_67">
<rect width="70.3152" height="70.3152" fill="white" transform="matrix(-1 0 0 1 71.0852 -0.00561523)"/>
</clipPath>
</defs>
</svg>
