<svg width="26" height="26" viewBox="0 0 26 26" fill="none" xmlns="http://www.w3.org/2000/svg">
<path d="M23.7666 3C25.0774 3.00026 25.9395 4.15882 25.9395 5.3252V20.6943C25.9392 21.8606 25.0772 23.0193 23.7666 23.0195H2.17383C0.862965 23.0195 0.000214419 21.8607 0 20.6943V5.3252C0 4.15869 0.862802 3 2.17383 3H23.7666ZM13.6377 15.6182C13.2577 15.9589 12.6817 15.9591 12.3018 15.6182L2 6.37305V20.6943C2.00011 20.8214 2.04621 20.9152 2.09277 20.9678C2.13759 21.0182 2.16819 21.0195 2.17383 21.0195H23.7666C23.7733 21.0195 23.8038 21.0172 23.8477 20.9678C23.8941 20.9151 23.9393 20.8211 23.9395 20.6943V6.37305L13.6377 15.6182ZM12.9697 13.5293L22.4756 5H3.46387L12.9697 13.5293Z" fill="#F2F2F2"/>
</svg>
