<svg width="54" height="39" viewBox="0 0 54 39" fill="none" xmlns="http://www.w3.org/2000/svg">
<path fill-rule="evenodd" clip-rule="evenodd" d="M3.94588 2.48652C3.96388 2.4858 3.98192 2.48544 4 2.48544H50C50.0181 2.48544 50.0361 2.4858 50.0541 2.48652L27 21.6983L3.94588 2.48652ZM2.51232 3.89531C2.5042 3.96415 2.5 4.03471 2.5 4.1068V34.5146C2.5 34.7245 2.53565 34.9215 2.59977 35.1009L21.215 19.4809L2.51232 3.89531ZM49.6301 36.1359H4.4777L22.7761 20.7818L26.3598 23.7682C26.7307 24.0773 27.2693 24.0773 27.6402 23.7682L31.278 20.7367L49.6301 36.1359ZM51.4237 35.0302C51.473 34.8702 51.5 34.6973 51.5 34.5146V4.1068C51.5 4.03471 51.4958 3.96415 51.4877 3.89531L32.8391 19.4358L51.4237 35.0302ZM4 0.485443C2.02286 0.485443 0.5 2.15198 0.5 4.1068V34.5146C0.5 36.4694 2.02286 38.1359 4 38.1359H50C51.9771 38.1359 53.5 36.4694 53.5 34.5146V4.1068C53.5 2.15198 51.9771 0.485443 50 0.485443H4Z" fill="black"/>
</svg>
