<svg width="26" height="21" viewBox="0 0 26 21" fill="none" xmlns="http://www.w3.org/2000/svg">
<path d="M23.7666 0C25.0774 0.000263333 25.9395 1.15882 25.9395 2.3252V17.6943C25.9392 18.8606 25.0772 20.0193 23.7666 20.0195H2.17383C0.862965 20.0195 0.000214419 18.8607 0 17.6943V2.3252C0 1.15869 0.862802 0 2.17383 0H23.7666ZM13.6377 12.6182C13.2577 12.9589 12.6817 12.9591 12.3018 12.6182L2 3.37305V17.6943C2.00011 17.8214 2.04621 17.9152 2.09277 17.9678C2.13759 18.0182 2.16819 18.0195 2.17383 18.0195H23.7666C23.7733 18.0195 23.8038 18.0172 23.8477 17.9678C23.8941 17.9151 23.9393 17.8211 23.9395 17.6943V3.37305L13.6377 12.6182ZM12.9697 10.5293L22.4756 2H3.46387L12.9697 10.5293Z" fill="black"/>
</svg>
