<svg width="26" height="26" viewBox="0 0 26 26" fill="none" xmlns="http://www.w3.org/2000/svg">
<path fill-rule="evenodd" clip-rule="evenodd" d="M19.3264 10H24V21C24 22.6569 22.6569 24 21 24H5C3.34315 24 2 22.6569 2 21V10H6.67363C6.24169 10.9093 6 11.9264 6 13C6 16.866 9.13401 20 13 20C16.866 20 20 16.866 20 13C20 11.9264 19.7583 10.9093 19.3264 10ZM8 13C8 11.8744 8.37194 10.8357 8.99963 10C9.91184 8.78555 11.3642 8 13 8C14.6358 8 16.0882 8.78555 17.0004 10C17.6281 10.8357 18 11.8744 18 13C18 15.7614 15.7614 18 13 18C10.2386 18 8 15.7614 8 13ZM0 5V10V21C0 23.7614 2.23858 26 5 26H21C23.7614 26 26 23.7614 26 21V10V5C26 2.23858 23.7614 0 21 0H5C2.41117 0 0.281864 1.9675 0.0258144 4.48878C0.00874444 4.65687 0 4.82741 0 5ZM23 5C23 6.10457 22.1046 7 21 7C19.8954 7 19 6.10457 19 5C19 3.89543 19.8954 3 21 3C22.1046 3 23 3.89543 23 5Z" fill="#F2F2F2"/>
</svg>
