<svg width="301" height="140" viewBox="0 0 301 140" fill="none" xmlns="http://www.w3.org/2000/svg">
<rect width="301" height="140" fill="black"/>
<path d="M58.6765 37.244C58.6765 34.5747 57.9312 32.616 56.4405 31.368C54.9499 30.0853 52.9392 29.444 50.4085 29.444C49.6805 29.444 48.9525 29.4613 48.2245 29.496C47.5312 29.496 46.8379 29.496 46.1445 29.496C45.8672 29.496 45.5899 29.6173 45.3125 29.86C45.0352 30.068 44.8965 30.3107 44.8965 30.588V45.2C45.5899 45.72 46.4565 46.032 47.4965 46.136C48.5365 46.24 49.4725 46.292 50.3045 46.292C53.2165 46.292 55.3312 45.4947 56.6485 43.9C58.0005 42.2707 58.6765 40.052 58.6765 37.244ZM64.9685 37.088C64.9685 39.376 64.5525 41.248 63.7205 42.704C62.8885 44.1253 61.7619 45.2347 60.3405 46.032C58.9539 46.7947 57.3765 47.332 55.6085 47.644C53.8405 47.956 52.0032 48.112 50.0965 48.112C49.2299 48.112 48.3632 48.06 47.4965 47.956C46.6645 47.852 45.8152 47.748 44.9485 47.644C44.9485 50.2093 44.9485 52.7747 44.9485 55.34C44.9485 57.9053 44.9485 60.4707 44.9485 63.036C44.9485 63.556 45.1392 63.9027 45.5205 64.076C45.9365 64.2147 46.3525 64.284 46.7685 64.284C47.2539 64.284 47.7219 64.2667 48.1725 64.232C48.6232 64.1973 49.0739 64.18 49.5245 64.18C50.0099 64.18 50.2525 64.4747 50.2525 65.064C50.2525 65.272 50.1659 65.48 49.9925 65.688C49.8539 65.896 49.6632 66 49.4205 66C48.3459 66 47.2365 65.9827 46.0925 65.948C44.9832 65.8787 43.8739 65.844 42.7645 65.844C41.4472 65.844 40.1125 65.8787 38.7605 65.948C37.4085 65.9827 36.0739 66.0347 34.7565 66.104C34.5139 66 34.3579 65.9307 34.2885 65.896C34.2192 65.8267 34.1845 65.6187 34.1845 65.272C34.1845 65.0293 34.2365 64.8213 34.3405 64.648C34.4792 64.4747 34.6872 64.388 34.9645 64.388C35.2765 64.388 35.5885 64.4053 35.9005 64.44C36.2472 64.44 36.5765 64.44 36.8885 64.44C37.0965 64.44 37.3045 64.44 37.5125 64.44C37.7205 64.4053 37.9285 64.3707 38.1365 64.336C38.4139 64.232 38.6045 64.0933 38.7085 63.92C38.8125 63.712 38.8819 63.4693 38.9165 63.192C38.9512 62.7067 38.9512 62.2213 38.9165 61.736C38.9165 61.2507 38.9165 60.7827 38.9165 60.332C38.9512 59.3267 38.9685 58.3213 38.9685 57.316C38.9685 56.3107 38.9685 55.3053 38.9685 54.3C38.9685 50.348 38.9512 46.396 38.9165 42.444C38.9165 38.492 38.9165 34.54 38.9165 30.588C38.9165 29.9987 38.6565 29.652 38.1365 29.548C37.6512 29.4093 37.1832 29.34 36.7325 29.34C36.4205 29.34 36.1085 29.3573 35.7965 29.392C35.4845 29.4267 35.1725 29.444 34.8605 29.444C34.4099 29.444 34.1845 29.2013 34.1845 28.716C34.1845 28.4387 34.2192 28.2133 34.2885 28.04C34.3579 27.8667 34.5659 27.78 34.9125 27.78C36.0565 27.78 37.2005 27.8147 38.3445 27.884C39.4885 27.9533 40.6325 27.988 41.7765 27.988C43.5792 27.988 45.3645 27.9533 47.1325 27.884C48.9352 27.8147 50.7205 27.78 52.4885 27.78C53.9792 27.78 55.4525 27.936 56.9085 28.248C58.3992 28.56 59.7512 29.08 60.9645 29.808C62.1779 30.536 63.1485 31.5067 63.8765 32.72C64.6045 33.8987 64.9685 35.3547 64.9685 37.088ZM89.3058 28.56C89.3058 29.184 89.0284 29.496 88.4738 29.496C88.0924 29.496 87.7111 29.496 87.3298 29.496C86.9484 29.4613 86.5671 29.444 86.1858 29.444C85.8391 29.444 85.4578 29.5827 85.0418 29.86C84.6604 30.1027 84.4698 30.432 84.4698 30.848V63.192C84.4698 63.608 84.6431 63.92 84.9898 64.128C85.3364 64.3013 85.6831 64.388 86.0298 64.388C86.4111 64.388 86.7924 64.388 87.1738 64.388C87.5898 64.3533 87.9884 64.336 88.3698 64.336C88.9244 64.336 89.2018 64.5787 89.2018 65.064C89.2018 65.3413 89.1671 65.584 89.0978 65.792C89.0284 65.9653 88.8378 66.052 88.5258 66.052C87.3124 66.052 86.0818 66.0173 84.8338 65.948C83.6204 65.844 82.3898 65.792 81.1418 65.792C80.5871 65.792 80.0151 65.8093 79.4258 65.844C78.8364 65.844 78.2471 65.8613 77.6578 65.896C77.0684 65.9307 76.4618 65.9827 75.8378 66.052C75.2484 66.1213 74.6591 66.156 74.0698 66.156C73.8618 66.156 73.6884 66.0693 73.5498 65.896C73.4111 65.688 73.3418 65.48 73.3418 65.272C73.3418 65.0293 73.4111 64.8213 73.5498 64.648C73.7231 64.4747 73.9311 64.388 74.1738 64.388C74.5551 64.388 74.9364 64.4053 75.3178 64.44C75.7338 64.44 76.1498 64.44 76.5658 64.44C76.9124 64.44 77.3284 64.3533 77.8138 64.18C78.2991 63.972 78.5418 63.6427 78.5418 63.192V30.796C78.5418 30.172 78.2644 29.7907 77.7098 29.652C77.1551 29.4787 76.5311 29.4093 75.8378 29.444C75.1791 29.4787 74.6591 29.496 74.2778 29.496C73.7924 29.496 73.5498 29.2187 73.5498 28.664C73.5498 28.3867 73.5671 28.1613 73.6018 27.988C73.6711 27.8147 73.8791 27.728 74.2258 27.728C75.3351 27.728 76.4444 27.7627 77.5538 27.832C78.6978 27.9013 79.8244 27.936 80.9338 27.936C81.7311 27.936 82.5111 27.936 83.2738 27.936C84.0711 27.936 84.8511 27.9187 85.6138 27.884C86.0991 27.884 86.5844 27.8667 87.0698 27.832C87.5898 27.7627 88.0751 27.728 88.5258 27.728C88.7684 27.728 88.9591 27.8147 89.0978 27.988C89.2364 28.1613 89.3058 28.352 89.3058 28.56ZM131.222 56.952C131.222 57.576 131.153 58.2173 131.014 58.876C130.91 59.5 130.806 60.124 130.702 60.748C130.633 61.4413 130.581 62.152 130.546 62.88C130.512 63.5733 130.408 64.2667 130.234 64.96C130.2 65.2027 130.061 65.428 129.818 65.636C129.61 65.844 129.368 65.948 129.09 65.948C125.381 65.948 121.672 65.9307 117.962 65.896C114.253 65.8267 110.544 65.792 106.834 65.792C105.69 65.792 104.546 65.844 103.402 65.948C102.293 66.0173 101.184 66.052 100.074 66.052C99.8662 66.052 99.6409 66 99.3982 65.896C99.1556 65.7573 99.0342 65.5667 99.0342 65.324C99.0342 64.8733 99.2076 64.5787 99.5542 64.44C99.9009 64.3013 100.317 64.232 100.802 64.232C101.322 64.232 101.825 64.1973 102.31 64.128C102.796 64.0587 103.212 63.8507 103.558 63.504C103.905 63.1227 104.078 62.4987 104.078 61.632L104.026 32.044C104.026 31.2467 103.801 30.744 103.35 30.536C102.9 30.2933 102.345 30.172 101.686 30.172C101.409 30.172 101.114 30.1893 100.802 30.224C100.525 30.224 100.248 30.224 99.9702 30.224C99.6236 30.224 99.3116 30.1547 99.0342 30.016C98.7569 29.8773 98.6182 29.6173 98.6182 29.236C98.6182 28.4733 98.9822 28.092 99.7102 28.092C100.3 28.092 100.889 28.1093 101.478 28.144C102.068 28.1787 102.657 28.196 103.246 28.196C106.748 28.196 110.232 28.1787 113.698 28.144C117.2 28.0747 120.701 28.04 124.202 28.04C125.866 28.04 127.53 27.988 129.194 27.884C129.333 28.8893 129.506 29.912 129.714 30.952C129.922 31.9573 130.096 32.98 130.234 34.02C130.304 34.1933 130.356 34.384 130.39 34.592C130.425 34.8 130.442 34.9907 130.442 35.164C130.442 35.58 130.286 35.8747 129.974 36.048C129.697 36.1867 129.368 36.256 128.986 36.256C128.64 36.256 128.38 36.204 128.206 36.1C128.033 35.9613 127.877 35.7187 127.738 35.372C127.149 33.3613 126.317 31.9573 125.242 31.16C124.168 30.3627 122.573 29.964 120.458 29.964H109.954V45.252C111.272 45.2173 112.572 45.2 113.854 45.2C115.137 45.1653 116.42 45.1133 117.702 45.044C119.054 44.9747 120.372 44.8533 121.654 44.68C122.937 44.472 124.237 44.2467 125.554 44.004C125.589 44.004 125.606 44.004 125.606 44.004C125.641 44.004 125.676 44.004 125.71 44.004C125.814 44.004 125.953 44.0387 126.126 44.108C126.334 44.1773 126.438 44.2813 126.438 44.42C126.438 44.6627 126.317 45.096 126.074 45.72C125.866 46.344 125.71 46.76 125.606 46.968C125.364 47.4187 125 47.644 124.514 47.644C124.237 47.644 123.942 47.644 123.63 47.644C123.353 47.6093 123.076 47.5747 122.798 47.54C122.174 47.4707 121.55 47.4187 120.926 47.384C120.302 47.3493 119.678 47.3147 119.054 47.28C118.188 47.28 117.338 47.28 116.506 47.28C115.674 47.28 114.825 47.28 113.958 47.28C113.473 47.28 112.901 47.3147 112.242 47.384C111.618 47.4533 111.081 47.644 110.63 47.956C110.18 48.268 109.954 48.7707 109.954 49.464V61.892C109.954 62.8973 110.162 63.5213 110.578 63.764C111.029 63.972 111.688 64.076 112.554 64.076H117.078C118.014 64.076 119.054 64.024 120.198 63.92C121.377 63.816 122.504 63.608 123.578 63.296C124.688 62.984 125.589 62.4987 126.282 61.84C127.01 61.1467 127.565 60.3493 127.946 59.448C128.362 58.5467 128.778 57.6627 129.194 56.796C129.368 56.4147 129.714 56.224 130.234 56.224C130.477 56.224 130.702 56.276 130.91 56.38C131.118 56.484 131.222 56.6747 131.222 56.952ZM171.669 46.344C171.669 44.9227 171.531 43.4147 171.253 41.82C170.976 40.1907 170.525 38.6307 169.901 37.14C169.277 35.6493 168.445 34.4013 167.405 33.396C166.469 32.46 165.343 31.6627 164.025 31.004C162.743 30.3107 161.443 29.8947 160.125 29.756C159.744 29.6867 159.345 29.652 158.929 29.652C158.513 29.652 158.097 29.652 157.681 29.652C155.185 29.652 152.655 29.704 150.089 29.808V61.58C150.089 62.5507 150.384 63.192 150.973 63.504C151.597 63.816 152.325 63.972 153.157 63.972C154.509 63.972 155.896 63.92 157.317 63.816C158.739 63.712 160.125 63.4693 161.477 63.088C162.829 62.7067 164.06 62.1 165.169 61.268C167.561 59.5 169.243 57.2813 170.213 54.612C171.184 51.9427 171.669 49.1867 171.669 46.344ZM178.065 45.616C178.065 49.048 177.337 52.3067 175.881 55.392C174.425 58.4427 172.207 60.8867 169.225 62.724C168.012 63.4867 166.591 64.1107 164.961 64.596C163.367 65.0467 161.737 65.3933 160.073 65.636C158.409 65.844 156.849 65.948 155.393 65.948C154.18 65.948 152.949 65.9133 151.701 65.844C150.453 65.74 149.205 65.688 147.957 65.688C146.952 65.688 145.929 65.7053 144.889 65.74C143.884 65.7747 142.879 65.8267 141.873 65.896C141.7 65.896 141.509 65.9133 141.301 65.948C141.128 65.948 140.955 65.948 140.781 65.948C140.539 65.948 140.348 65.8613 140.209 65.688C140.071 65.48 140.001 65.272 140.001 65.064C140.001 64.8213 140.175 64.648 140.521 64.544C140.903 64.44 141.319 64.3533 141.769 64.284C142.22 64.18 142.532 64.076 142.705 63.972C143.295 63.6947 143.676 63.2613 143.849 62.672C144.057 62.048 144.161 61.4413 144.161 60.852C144.161 58.9453 144.161 57.0387 144.161 55.132C144.196 53.2253 144.213 51.3187 144.213 49.412C144.213 47.1587 144.196 44.9227 144.161 42.704C144.161 40.4507 144.161 38.2147 144.161 35.996C144.161 35.3373 144.179 34.6787 144.213 34.02C144.248 33.3613 144.231 32.7027 144.161 32.044C144.127 31.5587 144.005 31.1253 143.797 30.744C143.624 30.328 143.26 30.0507 142.705 29.912C142.324 29.8427 141.873 29.8253 141.353 29.86C140.868 29.86 140.417 29.86 140.001 29.86C139.724 29.86 139.447 29.7907 139.169 29.652C138.927 29.5133 138.805 29.2707 138.805 28.924C138.805 28.3 139.169 27.988 139.897 27.988C140.695 27.988 141.492 28.0227 142.289 28.092C143.087 28.1613 143.884 28.196 144.681 28.196C147.247 28.196 149.795 28.1093 152.325 27.936C154.891 27.7627 157.439 27.676 159.969 27.676C163.713 27.676 166.937 28.404 169.641 29.86C172.345 31.2813 174.425 33.3267 175.881 35.996C177.337 38.6653 178.065 41.872 178.065 45.616ZM210.84 37.14C210.84 34.8867 210.442 33.2053 209.644 32.096C208.847 30.952 207.72 30.1893 206.264 29.808C204.843 29.4267 203.144 29.236 201.168 29.236C200.822 29.236 200.354 29.2533 199.764 29.288C199.21 29.288 198.69 29.392 198.204 29.6C197.754 29.7733 197.528 30.12 197.528 30.64C197.528 32.9627 197.511 35.2853 197.476 37.608C197.476 39.896 197.476 42.2187 197.476 44.576V44.94C197.858 45.044 198.256 45.1133 198.672 45.148C199.088 45.148 199.487 45.148 199.868 45.148C201.706 45.148 203.456 44.94 205.12 44.524C206.784 44.0733 208.154 43.276 209.228 42.132C210.303 40.988 210.84 39.324 210.84 37.14ZM222.904 65.22C222.904 65.4973 222.644 65.7227 222.124 65.896C221.639 66.0347 221.032 66.1213 220.304 66.156C219.611 66.2253 218.952 66.26 218.328 66.26C217.704 66.26 217.288 66.26 217.08 66.26C215.624 66.26 214.446 66.104 213.544 65.792C212.643 65.48 211.794 64.6827 210.996 63.4C209.298 60.6613 207.668 57.888 206.108 55.08C204.548 52.2373 202.988 49.3947 201.428 46.552L197.528 46.708C197.528 49.4467 197.528 52.2027 197.528 54.976C197.528 57.7147 197.528 60.4533 197.528 63.192C197.528 63.6427 197.684 63.9547 197.996 64.128C198.343 64.3013 198.707 64.388 199.088 64.388C199.574 64.388 200.042 64.3707 200.492 64.336C200.978 64.3013 201.446 64.284 201.896 64.284C202.139 64.284 202.33 64.4053 202.468 64.648C202.607 64.856 202.676 65.064 202.676 65.272C202.676 65.6187 202.555 65.844 202.312 65.948C202.07 66.0173 201.81 66.052 201.532 66.052C199.972 66.052 198.412 66.0347 196.852 66C195.327 65.9653 193.784 65.948 192.224 65.948C191.427 65.948 190.612 65.9653 189.78 66C188.983 66.0693 188.168 66.104 187.336 66.104C187.128 66.104 186.938 66 186.764 65.792C186.591 65.584 186.504 65.376 186.504 65.168C186.504 64.648 186.816 64.388 187.44 64.388C187.752 64.388 188.047 64.4053 188.324 64.44C188.636 64.44 188.931 64.44 189.208 64.44C189.694 64.44 190.196 64.388 190.716 64.284C191.236 64.1453 191.531 63.7813 191.6 63.192C191.67 62.2907 191.687 61.268 191.652 60.124C191.652 58.98 191.652 57.94 191.652 57.004C191.652 55.86 191.652 54.716 191.652 53.572C191.652 52.3933 191.652 51.232 191.652 50.088C191.652 47.7307 191.652 45.3733 191.652 43.016C191.652 40.6587 191.652 38.3187 191.652 35.996C191.652 35.0947 191.652 34.1933 191.652 33.292C191.687 32.3907 191.67 31.5067 191.6 30.64C191.566 30.0507 191.323 29.704 190.872 29.6C190.422 29.496 189.954 29.444 189.468 29.444C189.226 29.444 188.948 29.4613 188.636 29.496C188.359 29.496 188.082 29.496 187.804 29.496C187.076 29.496 186.712 29.1493 186.712 28.456C186.712 28.1787 186.799 28.0053 186.972 27.936C187.146 27.832 187.354 27.78 187.596 27.78C188.775 27.78 189.936 27.832 191.08 27.936C192.259 28.0053 193.438 28.04 194.616 28.04C196.246 28.04 197.858 27.9707 199.452 27.832C201.047 27.6933 202.642 27.624 204.236 27.624C205.588 27.624 207.01 27.7627 208.5 28.04C210.026 28.2827 211.447 28.7333 212.764 29.392C214.082 30.016 215.156 30.8827 215.988 31.992C216.82 33.1013 217.236 34.488 217.236 36.152C217.236 38.2667 216.647 40.0693 215.468 41.56C214.29 43.0507 212.782 44.212 210.944 45.044C210.32 45.356 209.662 45.5987 208.968 45.772C208.31 45.9107 207.634 46.0493 206.94 46.188C208.57 48.892 210.234 51.5787 211.932 54.248C213.631 56.8827 215.382 59.4827 217.184 62.048C217.67 62.7067 218.207 63.2613 218.796 63.712C219.386 64.1627 220.096 64.4747 220.928 64.648C221.102 64.6827 221.344 64.7 221.656 64.7C221.968 64.6653 222.246 64.6827 222.488 64.752C222.766 64.8213 222.904 64.9773 222.904 65.22ZM252.182 50.608C251.107 47.6267 250.05 44.6453 249.01 41.664C247.97 38.6827 246.913 35.7187 245.838 32.772C244.798 35.7187 243.758 38.6827 242.718 41.664C241.678 44.6453 240.655 47.6267 239.65 50.608H252.182ZM267.574 65.272C267.574 65.8267 267.314 66.104 266.794 66.104C266.447 66.104 266.066 66.0867 265.65 66.052C265.269 66.052 264.887 66.0347 264.506 66C263.743 65.9653 262.963 65.948 262.166 65.948C261.403 65.948 260.623 65.948 259.826 65.948C259.445 65.948 259.046 65.948 258.63 65.948C258.249 65.948 257.85 65.948 257.434 65.948C256.671 65.948 255.891 65.9827 255.094 66.052C254.297 66.156 253.499 66.208 252.702 66.208C252.459 66.208 252.286 66.0867 252.182 65.844C252.078 65.5667 252.026 65.324 252.026 65.116C252.026 64.9427 252.113 64.7867 252.286 64.648C252.459 64.5093 252.615 64.44 252.754 64.44L255.302 64.492C255.579 64.492 255.874 64.44 256.186 64.336C256.498 64.1973 256.654 63.9547 256.654 63.608C256.654 63.5387 256.533 63.1573 256.29 62.464C256.082 61.736 255.805 60.8693 255.458 59.864C255.111 58.8587 254.747 57.8533 254.366 56.848C253.985 55.808 253.655 54.9067 253.378 54.144C253.101 53.3467 252.91 52.8267 252.806 52.584H239.13C239.026 52.896 238.818 53.4507 238.506 54.248C238.229 55.0453 237.899 55.9467 237.518 56.952C237.137 57.9573 236.773 58.9627 236.426 59.968C236.079 60.9387 235.785 61.788 235.542 62.516C235.334 63.2093 235.23 63.6427 235.23 63.816C235.23 64.2667 235.473 64.544 235.958 64.648C236.478 64.752 236.894 64.804 237.206 64.804C237.587 64.804 237.951 64.7867 238.298 64.752C238.679 64.6827 239.043 64.648 239.39 64.648C239.702 64.648 239.875 64.7693 239.91 65.012C239.979 65.22 240.014 65.4453 240.014 65.688C239.945 65.896 239.823 66.0173 239.65 66.052C239.477 66.0867 239.303 66.104 239.13 66.104C238.125 66.104 237.102 66.0867 236.062 66.052C235.022 66.052 233.999 66.052 232.994 66.052C232.231 66.052 231.469 66.0693 230.706 66.104C229.978 66.1387 229.25 66.156 228.522 66.156C228.002 66.156 227.742 65.8787 227.742 65.324C227.742 65.012 227.898 64.8213 228.21 64.752C228.522 64.6827 228.869 64.6653 229.25 64.7C229.666 64.7 229.961 64.7 230.134 64.7C230.619 64.7 231.018 64.5613 231.33 64.284C231.642 64.0067 231.902 63.6773 232.11 63.296C232.249 62.984 232.578 62.152 233.098 60.8C233.653 59.448 234.311 57.7493 235.074 55.704C235.837 53.6587 236.651 51.4573 237.518 49.1C238.385 46.708 239.234 44.3507 240.066 42.028C240.933 39.6707 241.713 37.504 242.406 35.528C243.099 33.552 243.654 31.9227 244.07 30.64C244.486 29.3573 244.694 28.6293 244.694 28.456C244.694 28.3867 244.659 28.3173 244.59 28.248C244.555 28.144 244.538 28.0573 244.538 27.988C244.538 27.884 244.59 27.8147 244.694 27.78C245.491 27.6067 246.341 27.5027 247.242 27.468C248.143 27.3987 248.993 27.312 249.79 27.208L263.31 63.452C263.414 63.7293 263.622 63.972 263.934 64.18C264.281 64.3533 264.61 64.44 264.922 64.44C265.234 64.44 265.529 64.44 265.806 64.44C266.118 64.4053 266.43 64.388 266.742 64.388C267.123 64.388 267.349 64.4573 267.418 64.596C267.522 64.7 267.574 64.9253 267.574 65.272Z" fill="white"/>
<path d="M45.4543 99.272C45.4543 99.3747 45.3736 99.5213 45.2123 99.712C45.051 99.888 44.9336 100.013 44.8603 100.086C44.7283 100.218 44.5963 100.35 44.4643 100.482C44.3323 100.614 44.1856 100.739 44.0243 100.856C43.5696 101.179 43.027 101.457 42.3963 101.692C41.7656 101.912 41.1716 102.022 40.6143 102.022C39.4996 102.022 38.517 101.78 37.6663 101.296C36.8303 100.797 36.1703 100.123 35.6863 99.272C35.217 98.4067 34.9823 97.424 34.9823 96.324C34.9823 95.2387 35.2023 94.2193 35.6423 93.266C36.0823 92.3127 36.779 91.5427 37.7323 90.956C38.143 90.7067 38.5976 90.5087 39.0963 90.362C39.6096 90.2153 40.101 90.142 40.5703 90.142C40.937 90.142 41.289 90.186 41.6263 90.274C41.9783 90.362 42.3156 90.4793 42.6383 90.626C42.829 90.714 43.0123 90.802 43.1883 90.89C43.3643 90.978 43.555 91.022 43.7603 91.022C43.9363 91.022 44.0756 90.9707 44.1783 90.868C44.2956 90.7507 44.3836 90.692 44.4423 90.692C44.4863 90.692 44.5083 90.7213 44.5083 90.78C44.5376 90.956 44.545 91.132 44.5303 91.308C44.5303 91.484 44.5376 91.6527 44.5523 91.814C44.567 92.1367 44.5816 92.4593 44.5963 92.782C44.611 93.1047 44.6256 93.4273 44.6403 93.75V93.816C44.655 93.9773 44.6403 94.102 44.5963 94.19C44.5523 94.278 44.435 94.322 44.2443 94.322C44.1416 94.322 44.0683 94.2633 44.0243 94.146C43.995 94.0287 43.9656 93.926 43.9363 93.838C43.8336 93.4127 43.6796 92.958 43.4743 92.474C43.269 91.99 42.9903 91.6013 42.6383 91.308C42.4183 91.1027 42.1396 90.934 41.8023 90.802C41.4796 90.67 41.1716 90.604 40.8783 90.604C40.1743 90.604 39.573 90.7873 39.0743 91.154C38.5903 91.506 38.2016 91.968 37.9083 92.54C37.615 93.0973 37.395 93.6987 37.2483 94.344C37.1163 94.9893 37.0503 95.598 37.0503 96.17C37.0503 96.742 37.1163 97.3287 37.2483 97.93C37.3803 98.5167 37.5856 99.0667 37.8643 99.58C38.1576 100.093 38.539 100.504 39.0083 100.812C39.4923 101.12 40.0716 101.274 40.7463 101.274C41.685 101.274 42.4696 101.105 43.1003 100.768C43.731 100.416 44.3396 99.8807 44.9263 99.162C44.985 99.0593 45.0656 99.008 45.1683 99.008C45.359 99.008 45.4543 99.096 45.4543 99.272ZM61.6472 96.192C61.6472 95.5613 61.5958 94.9307 61.4932 94.3C61.4052 93.6547 61.2292 93.0607 60.9652 92.518C60.7158 91.9753 60.3492 91.5427 59.8652 91.22C59.3812 90.8827 58.7505 90.714 57.9732 90.714C57.2398 90.714 56.6385 90.89 56.1692 91.242C55.7145 91.594 55.3552 92.0487 55.0912 92.606C54.8418 93.1633 54.6658 93.7647 54.5632 94.41C54.4752 95.0553 54.4312 95.664 54.4312 96.236C54.4312 96.8667 54.4752 97.4973 54.5632 98.128C54.6658 98.7587 54.8492 99.3307 55.1132 99.844C55.3772 100.343 55.7512 100.746 56.2352 101.054C56.7338 101.362 57.3718 101.516 58.1492 101.516C58.9118 101.516 59.5205 101.355 59.9752 101.032C60.4445 100.709 60.7965 100.284 61.0312 99.756C61.2805 99.228 61.4418 98.656 61.5152 98.04C61.6032 97.4093 61.6472 96.7933 61.6472 96.192ZM63.9132 96.258C63.9132 97.358 63.6492 98.348 63.1212 99.228C62.6078 100.108 61.9038 100.805 61.0092 101.318C60.1292 101.831 59.1392 102.088 58.0392 102.088C56.9685 102.088 56.0005 101.831 55.1352 101.318C54.2698 100.79 53.5805 100.093 53.0672 99.228C52.5538 98.348 52.2972 97.3727 52.2972 96.302C52.2972 95.202 52.5465 94.19 53.0452 93.266C53.5438 92.3273 54.2258 91.572 55.0912 91C55.9712 90.428 56.9832 90.142 58.1272 90.142C59.3592 90.142 60.4078 90.406 61.2732 90.934C62.1385 91.4473 62.7912 92.166 63.2312 93.09C63.6858 93.9993 63.9132 95.0553 63.9132 96.258ZM84.0017 101.67C84.0017 101.861 83.8917 101.956 83.6717 101.956C83.3491 101.956 83.0191 101.949 82.6817 101.934C82.3444 101.905 82.0071 101.89 81.6697 101.89C81.1711 101.89 80.6577 101.905 80.1297 101.934C79.6164 101.949 79.1031 101.956 78.5897 101.956C78.5311 101.956 78.4944 101.912 78.4797 101.824C78.4651 101.721 78.4577 101.641 78.4577 101.582C78.4577 101.465 78.5311 101.406 78.6777 101.406C78.8244 101.406 78.9417 101.406 79.0297 101.406C79.1031 101.406 79.1764 101.413 79.2497 101.428C79.3377 101.428 79.4184 101.428 79.4917 101.428C79.9171 101.428 80.1517 101.215 80.1957 100.79C80.2397 99.9247 80.2544 99.052 80.2397 98.172C80.2397 97.292 80.2397 96.4193 80.2397 95.554C80.2397 95.3927 80.2397 95.2313 80.2397 95.07C80.2397 94.894 80.2397 94.7253 80.2397 94.564C80.2251 94.2267 80.2031 93.816 80.1737 93.332C80.1444 92.8333 80.0784 92.43 79.9757 92.122C79.7411 91.3593 79.2277 90.978 78.4357 90.978C77.7171 90.978 77.0571 91.1613 76.4557 91.528C75.8544 91.8947 75.3337 92.3567 74.8937 92.914C74.8791 93.9847 74.8717 95.048 74.8717 96.104C74.8717 97.16 74.8717 98.216 74.8717 99.272V100.79C74.8717 101.01 74.9671 101.171 75.1577 101.274C75.3484 101.377 75.5391 101.428 75.7297 101.428C75.8471 101.428 75.9571 101.421 76.0597 101.406C76.1771 101.377 76.2871 101.362 76.3897 101.362C76.4484 101.362 76.4851 101.399 76.4997 101.472C76.5144 101.545 76.5217 101.604 76.5217 101.648C76.5217 101.707 76.4997 101.773 76.4557 101.846C76.4264 101.919 76.3677 101.956 76.2797 101.956C75.9571 101.956 75.6344 101.949 75.3117 101.934C75.0037 101.905 74.6884 101.89 74.3657 101.89C73.8671 101.89 73.3684 101.905 72.8697 101.934C72.3711 101.949 71.8651 101.956 71.3517 101.956C71.2784 101.956 71.2344 101.912 71.2197 101.824C71.2197 101.721 71.2197 101.641 71.2197 101.582C71.2197 101.465 71.2857 101.406 71.4177 101.406C71.5497 101.406 71.6524 101.406 71.7257 101.406C71.7991 101.406 71.8724 101.413 71.9457 101.428C72.0191 101.428 72.0924 101.428 72.1657 101.428C72.5911 101.428 72.8257 101.215 72.8697 100.79C72.8844 100.585 72.8917 100.379 72.8917 100.174C72.8917 99.9687 72.8917 99.7633 72.8917 99.558C72.8917 98.2967 72.8917 97.0353 72.8917 95.774C72.8917 94.498 72.8844 93.2293 72.8697 91.968C72.8697 91.7627 72.8257 91.5573 72.7377 91.352C72.6497 91.1467 72.4811 91.044 72.2317 91.044C72.0411 91.044 71.8577 91.0733 71.6817 91.132C71.5057 91.1907 71.3224 91.22 71.1317 91.22C71.0291 91.22 70.9777 91.1467 70.9777 91C70.9777 90.9707 70.9777 90.9413 70.9777 90.912C70.9924 90.868 71.0071 90.8387 71.0217 90.824C71.0364 90.8093 71.0584 90.802 71.0877 90.802C71.1171 90.7873 71.1391 90.7727 71.1537 90.758C71.4177 90.6847 71.6891 90.6333 71.9677 90.604C72.2611 90.5747 72.5397 90.5307 72.8037 90.472C73.0531 90.428 73.2951 90.3693 73.5297 90.296C73.7644 90.208 73.9991 90.164 74.2337 90.164C74.3364 90.164 74.4171 90.2153 74.4757 90.318C74.5491 90.45 74.6077 90.6407 74.6517 90.89C74.6957 91.1247 74.7251 91.3667 74.7397 91.616C74.7691 91.8653 74.7837 92.0707 74.7837 92.232C75.1064 91.9093 75.4877 91.594 75.9277 91.286C76.3824 90.9633 76.8517 90.6993 77.3357 90.494C77.8344 90.274 78.3184 90.164 78.7877 90.164C80.1371 90.164 81.0464 90.4647 81.5157 91.066C81.9997 91.6527 82.2417 92.584 82.2417 93.86C82.2417 95.004 82.2344 96.148 82.2197 97.292C82.2197 98.436 82.2197 99.58 82.2197 100.724C82.2197 101.003 82.3004 101.193 82.4617 101.296C82.6377 101.384 82.8431 101.428 83.0777 101.428C83.1951 101.428 83.3124 101.421 83.4297 101.406C83.5471 101.377 83.6571 101.362 83.7597 101.362C83.8477 101.362 83.9064 101.399 83.9357 101.472C83.9797 101.531 84.0017 101.597 84.0017 101.67ZM98.9361 98.854C98.9361 99.514 98.7895 100.057 98.4961 100.482C98.2028 100.893 97.8215 101.208 97.3521 101.428C96.8828 101.648 96.3695 101.802 95.8121 101.89C95.2548 101.978 94.7121 102.022 94.1841 102.022C93.7001 102.022 93.2161 101.971 92.7321 101.868C92.2628 101.765 91.7861 101.692 91.3021 101.648C91.1995 101.252 91.0968 100.856 90.9941 100.46C90.9061 100.064 90.8035 99.6753 90.6861 99.294C90.6715 99.25 90.6348 99.1473 90.5761 98.986C90.5321 98.8247 90.5101 98.7367 90.5101 98.722C90.5101 98.6047 90.5468 98.524 90.6201 98.48C90.6935 98.4213 90.7815 98.392 90.8841 98.392C90.9868 98.392 91.0601 98.4287 91.1041 98.502C91.1921 98.6047 91.2655 98.744 91.3241 98.92C91.3975 99.096 91.4635 99.25 91.5221 99.382C91.6395 99.6167 91.7421 99.8 91.8301 99.932C91.9181 100.049 92.0575 100.203 92.2481 100.394C92.8201 100.995 93.5315 101.296 94.3821 101.296C94.8515 101.296 95.2768 101.245 95.6581 101.142C96.0541 101.039 96.3695 100.849 96.6041 100.57C96.8388 100.277 96.9561 99.8587 96.9561 99.316C96.9561 98.8467 96.8095 98.458 96.5161 98.15C96.2228 97.8273 95.8415 97.5413 95.3721 97.292C94.9175 97.0427 94.4335 96.8007 93.9201 96.566C93.4068 96.3313 92.9155 96.0747 92.4461 95.796C91.9915 95.5027 91.6175 95.1507 91.3241 94.74C91.0308 94.3293 90.8841 93.8307 90.8841 93.244C90.8841 92.5253 91.0675 91.9387 91.4341 91.484C91.8155 91.0293 92.2995 90.692 92.8861 90.472C93.4728 90.2373 94.0815 90.12 94.7121 90.12C95.1228 90.12 95.4895 90.1713 95.8121 90.274C96.1495 90.3767 96.5015 90.494 96.8681 90.626C96.9855 90.67 97.1028 90.6993 97.2201 90.714C97.3375 90.7287 97.4548 90.736 97.5721 90.736C97.6455 90.736 97.7115 90.736 97.7701 90.736C97.8288 90.736 97.8875 90.7287 97.9461 90.714C97.9901 90.978 98.0268 91.2493 98.0561 91.528C98.1001 91.792 98.1368 92.0633 98.1661 92.342C98.1808 92.4447 98.1955 92.5693 98.2101 92.716C98.2395 92.848 98.2541 92.9727 98.2541 93.09C98.2541 93.1927 98.2321 93.3027 98.1881 93.42C98.1441 93.5227 98.0561 93.574 97.9241 93.574C97.8215 93.574 97.7335 93.5667 97.6601 93.552C97.6015 93.5227 97.5501 93.4567 97.5061 93.354C97.4328 93.2073 97.3668 93.0533 97.3081 92.892C97.2641 92.716 97.2128 92.5547 97.1541 92.408C96.9635 91.8947 96.6335 91.484 96.1641 91.176C95.6948 90.8533 95.1888 90.692 94.6461 90.692C93.9568 90.692 93.4361 90.8973 93.0841 91.308C92.7321 91.704 92.5561 92.2393 92.5561 92.914C92.5561 93.1487 92.6148 93.376 92.7321 93.596C92.8641 93.816 93.0108 94.0067 93.1721 94.168C93.4801 94.4613 93.8395 94.6887 94.2501 94.85C94.6755 95.0113 95.0788 95.1727 95.4601 95.334C95.9588 95.554 96.4721 95.818 97.0001 96.126C97.5428 96.434 97.9975 96.808 98.3641 97.248C98.7455 97.688 98.9361 98.2233 98.9361 98.854ZM113.154 100.988C113.154 101.12 113.052 101.252 112.846 101.384C112.656 101.516 112.421 101.633 112.142 101.736C111.864 101.839 111.592 101.919 111.328 101.978C111.079 102.037 110.896 102.066 110.778 102.066C110.016 102.066 109.422 101.971 108.996 101.78C108.586 101.589 108.292 101.274 108.116 100.834C107.955 100.394 107.874 99.8 107.874 99.052C107.874 97.8347 107.874 96.6173 107.874 95.4C107.889 94.168 107.904 92.9433 107.918 91.726H106.334C106.232 91.726 106.144 91.7553 106.07 91.814C106.012 91.858 105.946 91.88 105.872 91.88C105.799 91.88 105.762 91.8287 105.762 91.726C105.762 91.6673 105.799 91.55 105.872 91.374C105.96 91.198 106.019 91.0807 106.048 91.022C106.092 91.0367 106.158 91.044 106.246 91.044H107.962L107.984 88.25C108.322 88.03 108.63 87.788 108.908 87.524C109.187 87.2453 109.466 86.9667 109.744 86.688C109.774 86.6587 109.803 86.6367 109.832 86.622C109.862 86.5927 109.891 86.578 109.92 86.578C110.052 86.578 110.118 86.6293 110.118 86.732L109.986 91.022C110.456 91.022 110.918 91.0147 111.372 91C111.842 90.9853 112.304 90.978 112.758 90.978C112.949 90.978 113.044 91.088 113.044 91.308C113.044 91.5867 112.92 91.726 112.67 91.726H109.986C109.986 92.8407 109.979 93.9627 109.964 95.092C109.964 96.2067 109.964 97.3287 109.964 98.458V100.152C109.964 100.519 110.118 100.775 110.426 100.922C110.734 101.054 111.035 101.12 111.328 101.12C111.739 101.12 112.142 101.054 112.538 100.922C112.582 100.893 112.648 100.863 112.736 100.834C112.824 100.805 112.89 100.79 112.934 100.79C113.081 100.79 113.154 100.856 113.154 100.988ZM128.402 92.21C128.402 92.3567 128.343 92.496 128.226 92.628C128.123 92.7453 127.991 92.804 127.83 92.804C127.61 92.804 127.449 92.7307 127.346 92.584C127.258 92.4373 127.177 92.2687 127.104 92.078C127.045 91.8873 126.95 91.7187 126.818 91.572C126.686 91.4253 126.466 91.352 126.158 91.352C126.099 91.352 126.041 91.352 125.982 91.352C125.938 91.352 125.887 91.3593 125.828 91.374C125.579 91.418 125.307 91.572 125.014 91.836C124.721 92.1 124.435 92.4153 124.156 92.782C123.892 93.134 123.672 93.486 123.496 93.838C123.32 94.19 123.225 94.4833 123.21 94.718C123.195 94.9527 123.188 95.1873 123.188 95.422C123.188 95.642 123.188 95.862 123.188 96.082C123.188 96.874 123.188 97.666 123.188 98.458C123.203 99.25 123.21 100.035 123.21 100.812C123.21 101.032 123.298 101.193 123.474 101.296C123.665 101.384 123.855 101.428 124.046 101.428C124.193 101.428 124.339 101.421 124.486 101.406C124.633 101.391 124.779 101.384 124.926 101.384C124.999 101.384 125.051 101.421 125.08 101.494C125.109 101.553 125.124 101.611 125.124 101.67C125.124 101.905 125.007 102.022 124.772 102.022C124.332 102.022 123.892 102.015 123.452 102C123.012 101.971 122.572 101.956 122.132 101.956C121.677 101.956 121.215 101.971 120.746 102C120.291 102.029 119.829 102.044 119.36 102.044C119.301 102.044 119.257 102 119.228 101.912C119.213 101.824 119.206 101.751 119.206 101.692C119.206 101.545 119.265 101.465 119.382 101.45C119.543 101.421 119.712 101.413 119.888 101.428C120.064 101.443 120.225 101.45 120.372 101.45C120.592 101.45 120.768 101.406 120.9 101.318C121.047 101.215 121.127 101.047 121.142 100.812C121.171 100.343 121.186 99.866 121.186 99.382C121.201 98.898 121.208 98.414 121.208 97.93V95.796C121.193 95.1653 121.186 94.542 121.186 93.926C121.201 93.2953 121.179 92.672 121.12 92.056C121.105 91.7627 121.025 91.5573 120.878 91.44C120.731 91.308 120.511 91.242 120.218 91.242C120.101 91.242 119.976 91.2567 119.844 91.286C119.727 91.3007 119.602 91.308 119.47 91.308C119.353 91.308 119.294 91.22 119.294 91.044C119.294 90.9413 119.345 90.868 119.448 90.824C119.595 90.78 119.749 90.7507 119.91 90.736C120.071 90.7067 120.225 90.6847 120.372 90.67C120.768 90.5967 121.164 90.5233 121.56 90.45C121.956 90.3767 122.352 90.2887 122.748 90.186C122.88 90.23 122.975 90.3107 123.034 90.428C123.063 90.4867 123.085 90.648 123.1 90.912C123.115 91.176 123.122 91.484 123.122 91.836C123.122 92.1733 123.122 92.496 123.122 92.804C123.122 93.0973 123.122 93.3027 123.122 93.42C123.445 92.9067 123.811 92.3933 124.222 91.88C124.633 91.3667 125.102 90.9413 125.63 90.604C126.158 90.2667 126.752 90.098 127.412 90.098C127.764 90.098 127.991 90.208 128.094 90.428C128.197 90.648 128.263 90.9047 128.292 91.198C128.321 91.3593 128.343 91.528 128.358 91.704C128.387 91.88 128.402 92.0487 128.402 92.21ZM147.703 101.406C147.703 101.582 147.571 101.714 147.307 101.802C147.058 101.89 146.779 101.949 146.471 101.978C146.163 102.007 145.943 102.022 145.811 102.022C145.313 102.022 144.917 101.824 144.623 101.428C144.33 101.032 144.11 100.621 143.963 100.196C143.465 100.827 142.841 101.296 142.093 101.604C141.345 101.912 140.568 102.066 139.761 102.066C138.441 102.066 137.525 101.729 137.011 101.054C136.513 100.365 136.263 99.3967 136.263 98.15C136.263 97.05 136.263 95.95 136.263 94.85C136.278 93.7353 136.293 92.628 136.307 91.528C136.307 91.088 136.095 90.868 135.669 90.868C135.552 90.868 135.435 90.8753 135.317 90.89C135.2 90.9047 135.083 90.912 134.965 90.912C134.921 90.912 134.885 90.89 134.855 90.846C134.841 90.7873 134.833 90.7433 134.833 90.714C134.833 90.5527 134.907 90.4647 135.053 90.45C135.567 90.3913 136.08 90.3547 136.593 90.34C137.121 90.3107 137.642 90.2667 138.155 90.208C138.273 90.3253 138.331 90.472 138.331 90.648C138.331 91.0147 138.324 91.3887 138.309 91.77C138.295 92.1513 138.287 92.5327 138.287 92.914C138.273 93.8087 138.258 94.7107 138.243 95.62C138.243 96.5147 138.243 97.4167 138.243 98.326C138.243 98.6047 138.251 98.9053 138.265 99.228C138.28 99.536 138.339 99.822 138.441 100.086C138.603 100.497 138.903 100.79 139.343 100.966C139.798 101.127 140.231 101.208 140.641 101.208C141.096 101.208 141.551 101.127 142.005 100.966C142.475 100.79 142.871 100.541 143.193 100.218C143.531 99.8807 143.721 99.4627 143.765 98.964C143.795 98.7147 143.809 98.4653 143.809 98.216C143.824 97.952 143.831 97.6953 143.831 97.446L143.809 91.462C143.809 91.2713 143.743 91.132 143.611 91.044C143.494 90.956 143.355 90.912 143.193 90.912C143.047 90.912 142.9 90.9193 142.753 90.934C142.621 90.9487 142.482 90.956 142.335 90.956C142.203 90.956 142.137 90.8827 142.137 90.736C142.137 90.5893 142.203 90.5087 142.335 90.494C142.511 90.4647 142.695 90.45 142.885 90.45C143.076 90.4353 143.267 90.4207 143.457 90.406L144.975 90.252C145.078 90.2373 145.181 90.2227 145.283 90.208C145.401 90.1933 145.511 90.186 145.613 90.186C145.687 90.186 145.738 90.23 145.767 90.318C145.797 90.3913 145.811 90.45 145.811 90.494C145.767 93.6767 145.745 96.852 145.745 100.02C145.745 100.387 145.826 100.687 145.987 100.922C146.163 101.157 146.449 101.274 146.845 101.274C146.963 101.274 147.065 101.259 147.153 101.23C147.256 101.201 147.359 101.186 147.461 101.186C147.623 101.186 147.703 101.259 147.703 101.406ZM164.972 99.272C164.972 99.3747 164.891 99.5213 164.73 99.712C164.569 99.888 164.451 100.013 164.378 100.086C164.246 100.218 164.114 100.35 163.982 100.482C163.85 100.614 163.703 100.739 163.542 100.856C163.087 101.179 162.545 101.457 161.914 101.692C161.283 101.912 160.689 102.022 160.132 102.022C159.017 102.022 158.035 101.78 157.184 101.296C156.348 100.797 155.688 100.123 155.204 99.272C154.735 98.4067 154.5 97.424 154.5 96.324C154.5 95.2387 154.72 94.2193 155.16 93.266C155.6 92.3127 156.297 91.5427 157.25 90.956C157.661 90.7067 158.115 90.5087 158.614 90.362C159.127 90.2153 159.619 90.142 160.088 90.142C160.455 90.142 160.807 90.186 161.144 90.274C161.496 90.362 161.833 90.4793 162.156 90.626C162.347 90.714 162.53 90.802 162.706 90.89C162.882 90.978 163.073 91.022 163.278 91.022C163.454 91.022 163.593 90.9707 163.696 90.868C163.813 90.7507 163.901 90.692 163.96 90.692C164.004 90.692 164.026 90.7213 164.026 90.78C164.055 90.956 164.063 91.132 164.048 91.308C164.048 91.484 164.055 91.6527 164.07 91.814C164.085 92.1367 164.099 92.4593 164.114 92.782C164.129 93.1047 164.143 93.4273 164.158 93.75V93.816C164.173 93.9773 164.158 94.102 164.114 94.19C164.07 94.278 163.953 94.322 163.762 94.322C163.659 94.322 163.586 94.2633 163.542 94.146C163.513 94.0287 163.483 93.926 163.454 93.838C163.351 93.4127 163.197 92.958 162.992 92.474C162.787 91.99 162.508 91.6013 162.156 91.308C161.936 91.1027 161.657 90.934 161.32 90.802C160.997 90.67 160.689 90.604 160.396 90.604C159.692 90.604 159.091 90.7873 158.592 91.154C158.108 91.506 157.719 91.968 157.426 92.54C157.133 93.0973 156.913 93.6987 156.766 94.344C156.634 94.9893 156.568 95.598 156.568 96.17C156.568 96.742 156.634 97.3287 156.766 97.93C156.898 98.5167 157.103 99.0667 157.382 99.58C157.675 100.093 158.057 100.504 158.526 100.812C159.01 101.12 159.589 101.274 160.264 101.274C161.203 101.274 161.987 101.105 162.618 100.768C163.249 100.416 163.857 99.8807 164.444 99.162C164.503 99.0593 164.583 99.008 164.686 99.008C164.877 99.008 164.972 99.096 164.972 99.272ZM182.353 99.272C182.353 99.3747 182.272 99.5213 182.111 99.712C181.949 99.888 181.832 100.013 181.759 100.086C181.627 100.218 181.495 100.35 181.363 100.482C181.231 100.614 181.084 100.739 180.923 100.856C180.468 101.179 179.925 101.457 179.295 101.692C178.664 101.912 178.07 102.022 177.513 102.022C176.398 102.022 175.415 101.78 174.565 101.296C173.729 100.797 173.069 100.123 172.585 99.272C172.115 98.4067 171.881 97.424 171.881 96.324C171.881 95.2387 172.101 94.2193 172.541 93.266C172.981 92.3127 173.677 91.5427 174.631 90.956C175.041 90.7067 175.496 90.5087 175.995 90.362C176.508 90.2153 176.999 90.142 177.469 90.142C177.835 90.142 178.187 90.186 178.525 90.274C178.877 90.362 179.214 90.4793 179.537 90.626C179.727 90.714 179.911 90.802 180.087 90.89C180.263 90.978 180.453 91.022 180.659 91.022C180.835 91.022 180.974 90.9707 181.077 90.868C181.194 90.7507 181.282 90.692 181.341 90.692C181.385 90.692 181.407 90.7213 181.407 90.78C181.436 90.956 181.443 91.132 181.429 91.308C181.429 91.484 181.436 91.6527 181.451 91.814C181.465 92.1367 181.48 92.4593 181.495 92.782C181.509 93.1047 181.524 93.4273 181.539 93.75V93.816C181.553 93.9773 181.539 94.102 181.495 94.19C181.451 94.278 181.333 94.322 181.143 94.322C181.04 94.322 180.967 94.2633 180.923 94.146C180.893 94.0287 180.864 93.926 180.835 93.838C180.732 93.4127 180.578 92.958 180.373 92.474C180.167 91.99 179.889 91.6013 179.537 91.308C179.317 91.1027 179.038 90.934 178.701 90.802C178.378 90.67 178.07 90.604 177.777 90.604C177.073 90.604 176.471 90.7873 175.973 91.154C175.489 91.506 175.1 91.968 174.807 92.54C174.513 93.0973 174.293 93.6987 174.147 94.344C174.015 94.9893 173.949 95.598 173.949 96.17C173.949 96.742 174.015 97.3287 174.147 97.93C174.279 98.5167 174.484 99.0667 174.763 99.58C175.056 100.093 175.437 100.504 175.907 100.812C176.391 101.12 176.97 101.274 177.645 101.274C178.583 101.274 179.368 101.105 179.999 100.768C180.629 100.416 181.238 99.8807 181.825 99.162C181.883 99.0593 181.964 99.008 182.067 99.008C182.257 99.008 182.353 99.096 182.353 99.272ZM195.158 101.67C195.158 101.743 195.136 101.817 195.092 101.89C195.048 101.949 194.989 101.978 194.916 101.978C194.505 101.978 194.094 101.971 193.684 101.956C193.288 101.927 192.877 101.912 192.452 101.912H191.858C191.418 101.912 190.978 101.927 190.538 101.956C190.112 101.971 189.687 101.978 189.262 101.978C189.203 101.978 189.159 101.941 189.13 101.868C189.115 101.795 189.108 101.736 189.108 101.692C189.108 101.619 189.115 101.567 189.13 101.538C189.144 101.494 189.188 101.465 189.262 101.45C189.335 101.421 189.416 101.413 189.504 101.428C189.606 101.428 189.702 101.428 189.79 101.428C189.892 101.428 189.988 101.435 190.076 101.45C190.164 101.45 190.259 101.45 190.362 101.45C190.567 101.45 190.75 101.406 190.912 101.318C191.088 101.215 191.176 101.047 191.176 100.812V92.012C191.176 91.7627 191.132 91.572 191.044 91.44C190.956 91.2933 190.772 91.22 190.494 91.22C190.288 91.22 190.076 91.2347 189.856 91.264C189.65 91.2787 189.445 91.3007 189.24 91.33C189.122 91.33 189.064 91.264 189.064 91.132C189.064 90.9853 189.122 90.89 189.24 90.846C189.416 90.7873 189.599 90.7507 189.79 90.736C189.995 90.7067 190.186 90.6773 190.362 90.648C190.772 90.5747 191.183 90.494 191.594 90.406C192.004 90.318 192.408 90.2227 192.804 90.12C192.848 90.1053 192.906 90.098 192.98 90.098C193.141 90.098 193.222 90.186 193.222 90.362C193.222 92.0927 193.214 93.8307 193.2 95.576C193.2 97.3213 193.2 99.0667 193.2 100.812C193.2 101.047 193.302 101.215 193.508 101.318C193.728 101.406 193.933 101.45 194.124 101.45C194.27 101.45 194.417 101.443 194.564 101.428C194.725 101.413 194.879 101.406 195.026 101.406C195.084 101.406 195.121 101.443 195.136 101.516C195.15 101.589 195.158 101.641 195.158 101.67ZM193.376 86.446C193.376 86.8127 193.244 87.128 192.98 87.392C192.716 87.6413 192.4 87.766 192.034 87.766C191.667 87.766 191.352 87.6413 191.088 87.392C190.824 87.128 190.692 86.8127 190.692 86.446C190.692 86.0793 190.824 85.7713 191.088 85.522C191.352 85.258 191.667 85.126 192.034 85.126C192.4 85.126 192.716 85.258 192.98 85.522C193.244 85.7713 193.376 86.0793 193.376 86.446ZM211.608 96.192C211.608 95.5613 211.557 94.9307 211.454 94.3C211.366 93.6547 211.19 93.0607 210.926 92.518C210.677 91.9753 210.31 91.5427 209.826 91.22C209.342 90.8827 208.711 90.714 207.934 90.714C207.201 90.714 206.599 90.89 206.13 91.242C205.675 91.594 205.316 92.0487 205.052 92.606C204.803 93.1633 204.627 93.7647 204.524 94.41C204.436 95.0553 204.392 95.664 204.392 96.236C204.392 96.8667 204.436 97.4973 204.524 98.128C204.627 98.7587 204.81 99.3307 205.074 99.844C205.338 100.343 205.712 100.746 206.196 101.054C206.695 101.362 207.333 101.516 208.11 101.516C208.873 101.516 209.481 101.355 209.936 101.032C210.405 100.709 210.757 100.284 210.992 99.756C211.241 99.228 211.403 98.656 211.476 98.04C211.564 97.4093 211.608 96.7933 211.608 96.192ZM213.874 96.258C213.874 97.358 213.61 98.348 213.082 99.228C212.569 100.108 211.865 100.805 210.97 101.318C210.09 101.831 209.1 102.088 208 102.088C206.929 102.088 205.961 101.831 205.096 101.318C204.231 100.79 203.541 100.093 203.028 99.228C202.515 98.348 202.258 97.3727 202.258 96.302C202.258 95.202 202.507 94.19 203.006 93.266C203.505 92.3273 204.187 91.572 205.052 91C205.932 90.428 206.944 90.142 208.088 90.142C209.32 90.142 210.369 90.406 211.234 90.934C212.099 91.4473 212.752 92.166 213.192 93.09C213.647 93.9993 213.874 95.0553 213.874 96.258ZM233.963 101.67C233.963 101.861 233.853 101.956 233.633 101.956C233.31 101.956 232.98 101.949 232.643 101.934C232.305 101.905 231.968 101.89 231.631 101.89C231.132 101.89 230.619 101.905 230.091 101.934C229.577 101.949 229.064 101.956 228.551 101.956C228.492 101.956 228.455 101.912 228.441 101.824C228.426 101.721 228.419 101.641 228.419 101.582C228.419 101.465 228.492 101.406 228.639 101.406C228.785 101.406 228.903 101.406 228.991 101.406C229.064 101.406 229.137 101.413 229.211 101.428C229.299 101.428 229.379 101.428 229.453 101.428C229.878 101.428 230.113 101.215 230.157 100.79C230.201 99.9247 230.215 99.052 230.201 98.172C230.201 97.292 230.201 96.4193 230.201 95.554C230.201 95.3927 230.201 95.2313 230.201 95.07C230.201 94.894 230.201 94.7253 230.201 94.564C230.186 94.2267 230.164 93.816 230.135 93.332C230.105 92.8333 230.039 92.43 229.937 92.122C229.702 91.3593 229.189 90.978 228.397 90.978C227.678 90.978 227.018 91.1613 226.417 91.528C225.815 91.8947 225.295 92.3567 224.855 92.914C224.84 93.9847 224.833 95.048 224.833 96.104C224.833 97.16 224.833 98.216 224.833 99.272V100.79C224.833 101.01 224.928 101.171 225.119 101.274C225.309 101.377 225.5 101.428 225.691 101.428C225.808 101.428 225.918 101.421 226.021 101.406C226.138 101.377 226.248 101.362 226.351 101.362C226.409 101.362 226.446 101.399 226.461 101.472C226.475 101.545 226.483 101.604 226.483 101.648C226.483 101.707 226.461 101.773 226.417 101.846C226.387 101.919 226.329 101.956 226.241 101.956C225.918 101.956 225.595 101.949 225.273 101.934C224.965 101.905 224.649 101.89 224.327 101.89C223.828 101.89 223.329 101.905 222.831 101.934C222.332 101.949 221.826 101.956 221.313 101.956C221.239 101.956 221.195 101.912 221.181 101.824C221.181 101.721 221.181 101.641 221.181 101.582C221.181 101.465 221.247 101.406 221.379 101.406C221.511 101.406 221.613 101.406 221.687 101.406C221.76 101.406 221.833 101.413 221.907 101.428C221.98 101.428 222.053 101.428 222.127 101.428C222.552 101.428 222.787 101.215 222.831 100.79C222.845 100.585 222.853 100.379 222.853 100.174C222.853 99.9687 222.853 99.7633 222.853 99.558C222.853 98.2967 222.853 97.0353 222.853 95.774C222.853 94.498 222.845 93.2293 222.831 91.968C222.831 91.7627 222.787 91.5573 222.699 91.352C222.611 91.1467 222.442 91.044 222.193 91.044C222.002 91.044 221.819 91.0733 221.643 91.132C221.467 91.1907 221.283 91.22 221.093 91.22C220.99 91.22 220.939 91.1467 220.939 91C220.939 90.9707 220.939 90.9413 220.939 90.912C220.953 90.868 220.968 90.8387 220.983 90.824C220.997 90.8093 221.019 90.802 221.049 90.802C221.078 90.7873 221.1 90.7727 221.115 90.758C221.379 90.6847 221.65 90.6333 221.929 90.604C222.222 90.5747 222.501 90.5307 222.765 90.472C223.014 90.428 223.256 90.3693 223.491 90.296C223.725 90.208 223.96 90.164 224.195 90.164C224.297 90.164 224.378 90.2153 224.437 90.318C224.51 90.45 224.569 90.6407 224.613 90.89C224.657 91.1247 224.686 91.3667 224.701 91.616C224.73 91.8653 224.745 92.0707 224.745 92.232C225.067 91.9093 225.449 91.594 225.889 91.286C226.343 90.9633 226.813 90.6993 227.297 90.494C227.795 90.274 228.279 90.164 228.749 90.164C230.098 90.164 231.007 90.4647 231.477 91.066C231.961 91.6527 232.203 92.584 232.203 93.86C232.203 95.004 232.195 96.148 232.181 97.292C232.181 98.436 232.181 99.58 232.181 100.724C232.181 101.003 232.261 101.193 232.423 101.296C232.599 101.384 232.804 101.428 233.039 101.428C233.156 101.428 233.273 101.421 233.391 101.406C233.508 101.377 233.618 101.362 233.721 101.362C233.809 101.362 233.867 101.399 233.897 101.472C233.941 101.531 233.963 101.597 233.963 101.67ZM248.765 94.278C248.75 93.6767 248.699 93.1047 248.611 92.562C248.523 92.0047 248.31 91.55 247.973 91.198C247.636 90.8313 247.086 90.648 246.323 90.648C245.634 90.648 245.069 90.8387 244.629 91.22C244.204 91.5867 243.874 92.056 243.639 92.628C243.404 93.1853 243.228 93.7573 243.111 94.344C243.478 94.3587 243.837 94.3733 244.189 94.388C244.541 94.388 244.893 94.388 245.245 94.388C245.832 94.388 246.418 94.3807 247.005 94.366C247.592 94.3367 248.178 94.3073 248.765 94.278ZM251.295 99.316C251.295 99.3893 251.28 99.4333 251.251 99.448C251.207 99.5947 251.097 99.7707 250.921 99.976C250.76 100.181 250.576 100.379 250.371 100.57C250.166 100.746 249.997 100.878 249.865 100.966C249.381 101.303 248.831 101.575 248.215 101.78C247.614 101.985 247.012 102.088 246.411 102.088C245.912 102.088 245.355 102.007 244.739 101.846C244.138 101.685 243.624 101.465 243.199 101.186C242.378 100.643 241.776 99.932 241.395 99.052C241.014 98.172 240.823 97.2553 240.823 96.302C240.823 95.2167 241.036 94.212 241.461 93.288C241.886 92.364 242.568 91.616 243.507 91.044C243.932 90.7947 244.409 90.5893 244.937 90.428C245.465 90.252 245.971 90.164 246.455 90.164C247.32 90.164 248.083 90.34 248.743 90.692C249.403 91.044 249.916 91.5427 250.283 92.188C250.664 92.8187 250.855 93.574 250.855 94.454C250.855 94.7033 250.796 94.8647 250.679 94.938C250.576 95.0113 250.415 95.048 250.195 95.048C249.902 95.048 249.608 95.0407 249.315 95.026C249.022 95.0113 248.728 94.9967 248.435 94.982C248.024 94.9527 247.614 94.938 247.203 94.938C246.807 94.938 246.404 94.938 245.993 94.938C245.494 94.938 244.996 94.938 244.497 94.938C243.998 94.938 243.5 94.9527 243.001 94.982C242.986 95.2167 242.972 95.444 242.957 95.664C242.942 95.884 242.935 96.1113 242.935 96.346C242.935 96.8887 243.001 97.4533 243.133 98.04C243.265 98.612 243.478 99.1473 243.771 99.646C244.064 100.13 244.438 100.526 244.893 100.834C245.348 101.127 245.898 101.274 246.543 101.274C247.203 101.274 247.834 101.171 248.435 100.966C249.036 100.761 249.586 100.431 250.085 99.976C250.217 99.844 250.334 99.7047 250.437 99.558C250.554 99.3967 250.679 99.2573 250.811 99.14C250.884 99.0667 250.965 99.03 251.053 99.03C251.126 99.03 251.185 99.0593 251.229 99.118C251.273 99.1767 251.295 99.2427 251.295 99.316ZM266.385 98.854C266.385 99.514 266.239 100.057 265.945 100.482C265.652 100.893 265.271 101.208 264.801 101.428C264.332 101.648 263.819 101.802 263.261 101.89C262.704 101.978 262.161 102.022 261.633 102.022C261.149 102.022 260.665 101.971 260.181 101.868C259.712 101.765 259.235 101.692 258.751 101.648C258.649 101.252 258.546 100.856 258.443 100.46C258.355 100.064 258.253 99.6753 258.135 99.294C258.121 99.25 258.084 99.1473 258.025 98.986C257.981 98.8247 257.959 98.7367 257.959 98.722C257.959 98.6047 257.996 98.524 258.069 98.48C258.143 98.4213 258.231 98.392 258.333 98.392C258.436 98.392 258.509 98.4287 258.553 98.502C258.641 98.6047 258.715 98.744 258.773 98.92C258.847 99.096 258.913 99.25 258.971 99.382C259.089 99.6167 259.191 99.8 259.279 99.932C259.367 100.049 259.507 100.203 259.697 100.394C260.269 100.995 260.981 101.296 261.831 101.296C262.301 101.296 262.726 101.245 263.107 101.142C263.503 101.039 263.819 100.849 264.053 100.57C264.288 100.277 264.405 99.8587 264.405 99.316C264.405 98.8467 264.259 98.458 263.965 98.15C263.672 97.8273 263.291 97.5413 262.821 97.292C262.367 97.0427 261.883 96.8007 261.369 96.566C260.856 96.3313 260.365 96.0747 259.895 95.796C259.441 95.5027 259.067 95.1507 258.773 94.74C258.48 94.3293 258.333 93.8307 258.333 93.244C258.333 92.5253 258.517 91.9387 258.883 91.484C259.265 91.0293 259.749 90.692 260.335 90.472C260.922 90.2373 261.531 90.12 262.161 90.12C262.572 90.12 262.939 90.1713 263.261 90.274C263.599 90.3767 263.951 90.494 264.317 90.626C264.435 90.67 264.552 90.6993 264.669 90.714C264.787 90.7287 264.904 90.736 265.021 90.736C265.095 90.736 265.161 90.736 265.219 90.736C265.278 90.736 265.337 90.7287 265.395 90.714C265.439 90.978 265.476 91.2493 265.505 91.528C265.549 91.792 265.586 92.0633 265.615 92.342C265.63 92.4447 265.645 92.5693 265.659 92.716C265.689 92.848 265.703 92.9727 265.703 93.09C265.703 93.1927 265.681 93.3027 265.637 93.42C265.593 93.5227 265.505 93.574 265.373 93.574C265.271 93.574 265.183 93.5667 265.109 93.552C265.051 93.5227 264.999 93.4567 264.955 93.354C264.882 93.2073 264.816 93.0533 264.757 92.892C264.713 92.716 264.662 92.5547 264.603 92.408C264.413 91.8947 264.083 91.484 263.613 91.176C263.144 90.8533 262.638 90.692 262.095 90.692C261.406 90.692 260.885 90.8973 260.533 91.308C260.181 91.704 260.005 92.2393 260.005 92.914C260.005 93.1487 260.064 93.376 260.181 93.596C260.313 93.816 260.46 94.0067 260.621 94.168C260.929 94.4613 261.289 94.6887 261.699 94.85C262.125 95.0113 262.528 95.1727 262.909 95.334C263.408 95.554 263.921 95.818 264.449 96.126C264.992 96.434 265.447 96.808 265.813 97.248C266.195 97.688 266.385 98.2233 266.385 98.854Z" fill="white"/>
<line x1="31.2867" y1="78" x2="268.634" y2="78" stroke="white" stroke-width="2"/>
<line x1="31.2867" y1="113" x2="268.634" y2="113" stroke="white" stroke-width="2"/>
</svg>
