<svg width="314" height="151" viewBox="0 0 314 151" fill="none" xmlns="http://www.w3.org/2000/svg">
<rect width="314" height="151" fill="white"/>
<path d="M252.816 27.556C252.535 27.8753 251.548 28.7622 250.562 29.4716C249.118 30.5714 248.801 30.9971 248.731 31.9903C248.66 33.3738 237.777 65.2655 236.438 68.068C235.452 70.09 234.466 70.9414 232.67 71.2961C231.824 71.4735 231.507 71.7573 231.437 72.3959L231.331 73.2827H238.058H244.786L244.68 72.3959C244.61 71.6864 244.328 71.4735 243.201 71.2961C241.475 71.0123 240.524 69.9126 240.524 68.2453C240.524 67.5713 241.264 64.6979 242.144 61.8954L243.764 56.787L251.372 56.858L258.98 56.9644L261.199 62.8177C263.348 68.5646 263.77 70.3738 263.066 70.7995C262.89 70.9059 262.044 71.1188 261.234 71.2607C259.966 71.4735 259.72 71.6509 259.72 72.3604V73.1763L267.75 73.2118L275.781 73.2827L275.675 72.3959C275.605 71.7573 275.288 71.4735 274.513 71.3316C272.681 70.9414 271.554 69.9126 270.498 67.6423C269.37 65.2655 256.057 31.3163 255.247 28.7622C254.683 26.9884 253.697 26.4918 252.816 27.556ZM254.401 44.6548C256.057 49.231 257.43 53.0977 257.43 53.2751C257.43 53.4524 254.718 53.5943 251.267 53.5943C246.582 53.5943 245.103 53.4879 245.103 53.1686C245.103 52.9203 246.406 48.8053 247.956 44.0517C249.752 38.6241 250.914 35.5733 251.09 35.8925C251.267 36.1763 252.746 40.114 254.401 44.6548Z" fill="black"/>
<path d="M151.942 27.6979C150.603 27.8398 146.905 27.9817 143.77 28.0172L138.029 28.0527V28.9041C138.029 29.6135 138.241 29.7909 139.614 29.9683C140.495 30.1102 141.411 30.4649 141.692 30.7487C142.538 31.6001 142.643 34.3317 142.538 52.4237C142.432 72.0056 142.608 70.764 139.755 71.2607C138.452 71.4735 138.205 71.6509 138.1 72.3959L137.994 73.2827L142.678 73.2118C145.25 73.1408 151.167 73.0699 155.816 72.9989C163.072 72.857 164.657 72.7506 167.017 72.1121C173.427 70.3383 178.287 66.2588 181.352 60.0507C184.31 54.0555 184.134 45.7545 180.964 39.7238C179.485 36.9923 176.069 33.2319 173.462 31.5292C168.531 28.3365 160.254 26.8465 151.942 27.6979ZM161.804 30.7133C168.285 32.416 173.533 38.0565 175.188 45.1159C175.857 48.0958 175.892 54.9424 175.188 57.603C173.392 64.556 168.355 69.2741 161.663 70.3029C160.219 70.5157 157.366 70.6221 155.358 70.5512C151.766 70.4093 151.66 70.4093 150.709 69.3096C149.3 67.7487 149.23 66.4007 149.371 47.7056C149.476 30.2521 149.441 30.7133 151.519 30.4295C154.478 30.0747 159.867 30.2166 161.804 30.7133Z" fill="black"/>
<path d="M45.467 27.9462C38.3522 28.0527 38.317 28.0881 38.4227 28.8331C38.4931 29.4362 38.9158 29.72 40.2894 30.0392C41.2404 30.2876 42.2266 30.7842 42.4732 31.1035C42.8254 31.6001 42.931 35.928 42.931 50.65V69.5934L42.0505 70.4448C41.5926 70.9414 40.8177 71.3316 40.3246 71.3316C38.951 71.3316 38.3522 71.6864 38.3522 72.5377C38.3522 73.2827 38.3875 73.2827 47.1576 73.2827H55.9982L55.8926 72.3959C55.7869 71.6864 55.5404 71.4735 54.2019 71.2252C51.1024 70.6931 50.9968 70.6221 50.398 69.2741C49.3414 66.8618 49.4118 31.7065 50.4685 30.6423C50.6093 30.5004 51.8069 30.323 53.1453 30.2521C57.6889 29.9683 61.3167 32.0613 63.0426 35.9635C63.747 37.4889 63.8879 38.3758 63.8879 41.3556C63.8879 45.6126 63.0778 47.812 60.7179 50.0114C59.0273 51.5723 57.3719 52.1754 54.6598 52.1754C52.8987 52.1754 52.7931 52.2108 52.7931 53.0622C52.7931 54.3748 53.9554 54.6941 57.2662 54.3038C61.9859 53.7717 65.0502 52.3173 67.6918 49.3729C69.946 46.8187 70.8265 44.7257 71.0379 41.4975C71.3901 35.3959 68.3258 30.7842 62.5847 28.7976C60.0487 27.9108 56.8083 27.7334 45.467 27.9462Z" fill="black"/>
<path d="M195.687 27.9462L188.361 28.0527L188.467 28.8686C188.537 29.4716 188.924 29.72 190.263 30.0038C191.249 30.2166 192.2 30.6778 192.482 31.068C193.257 32.1322 193.045 70.1255 192.27 70.6221C191.777 70.9769 191.249 71.1188 189.171 71.5445C188.572 71.6509 188.396 71.8992 188.467 72.4668C188.572 73.1763 188.713 73.2118 196.497 73.1763C204.14 73.1408 204.422 73.1053 204.528 72.4313C204.598 71.8992 204.387 71.6509 203.753 71.509C203.26 71.4026 202.45 71.2607 201.992 71.1542C200.054 70.764 200.019 70.5866 200.019 61.0085V52.1753H202.802H205.584L206.57 53.8427C209.74 59.4122 216.08 68.6001 218.792 71.6154L220.131 73.1408H225.484C230.592 73.1408 230.838 73.1053 230.944 72.4313C231.049 71.8637 230.768 71.6509 229.535 71.3316C227.281 70.7285 226.154 69.6643 222.068 64.5205C218.37 59.9088 212.065 50.8983 212.382 50.6499C212.452 50.579 213.439 50.0114 214.531 49.3729C217.383 47.7765 219.955 44.7966 220.659 42.3134C222.103 37.276 219.743 31.9903 214.918 29.5426C212.946 28.5138 208.543 27.6979 205.584 27.7689C204.175 27.8398 199.702 27.9108 195.687 27.9462ZM207.381 30.7487C209.987 31.5292 212.452 33.8705 213.439 36.5311C214.812 40.2204 214.037 44.7612 211.537 47.2444C209.67 49.16 208.649 49.4793 204.175 49.6212L200.019 49.7631V40.9654C200.019 36.1054 200.125 31.7775 200.231 31.3518C200.583 30.1102 204.246 29.7909 207.381 30.7487Z" fill="black"/>
<path d="M77.4482 28.9041C77.4482 29.649 77.6595 29.8264 78.9627 30.0038C81.0408 30.323 81.3226 30.5714 81.6748 32.1677C82.2031 34.3317 82.0622 68.0325 81.5691 69.5579C81.2169 70.5866 80.9351 70.835 79.7376 71.1188C77.4834 71.6154 77.4482 71.6154 77.4482 72.4668V73.2827H85.373H93.3331L93.2274 72.3959C93.1218 71.6509 92.8752 71.4735 91.572 71.2607C88.7191 70.764 88.8952 72.254 88.8952 50.5435C88.8952 28.6912 88.6486 30.5004 91.7129 30.0038C93.0866 29.8264 93.2979 29.6845 93.2979 28.9041V28.0527H85.373H77.4482V28.9041Z" fill="black"/>
<path d="M99.2855 28.7622C99.2855 29.5426 100.483 30.1811 101.927 30.1811C103.864 30.1811 103.864 30.1102 103.864 50.6145C103.864 72.0411 104.04 70.9059 101.011 71.2961C99.673 71.4735 99.4616 71.6509 99.356 72.3959L99.2503 73.2827L115.206 73.1763C123.941 73.1408 131.196 73.0344 131.231 72.9634C131.302 72.8925 131.76 71.1897 132.218 69.1677C132.64 67.1456 133.098 65.23 133.169 64.9462C133.239 64.6269 132.957 64.3786 132.499 64.3077C131.971 64.2367 131.548 64.485 131.126 65.1945C129.33 68.1744 128.66 68.8839 127.146 69.6288C125.631 70.3738 125.068 70.4448 119.291 70.4448H113.057L112.141 69.5224C110.873 68.2808 110.521 65.2655 110.627 57.4611L110.733 51.2885H116.086C122.461 51.2885 123.131 51.5723 123.765 54.5167C124.082 56.0776 124.293 56.3259 125.279 56.113C125.42 56.113 125.526 53.346 125.526 50.0469C125.526 44.0872 125.526 44.0162 124.751 44.0162C124.187 44.0162 123.941 44.3 123.765 45.1514C123.166 48.2022 121.863 48.7343 114.924 48.557L110.733 48.4505V40.6461C110.733 36.3537 110.873 32.3806 111.014 31.8484L111.296 30.8197L117.354 30.9616C124.539 31.1035 125.068 31.2809 126.758 34.509C127.815 36.4601 128.696 37.0987 129.048 36.1054C129.118 35.8925 128.907 34.0124 128.555 31.9549L127.921 28.23L113.621 28.1236C99.3912 28.0527 99.2855 28.0527 99.2855 28.7622Z" fill="black"/>
<path d="M38 85.344V86.2309H157.049H276.098V85.344V84.4572H157.049H38V85.344Z" fill="black"/>
<path d="M110.944 101.13C110.944 102.549 111.014 102.656 111.331 101.911C111.754 101.095 112.846 100.634 113.973 100.846C114.536 100.953 114.607 101.449 114.713 105.742C114.783 109.928 114.713 110.566 114.184 110.957C113.691 111.347 113.902 111.418 115.664 111.418C117.425 111.418 117.636 111.347 117.143 110.957C116.615 110.566 116.544 109.928 116.615 105.742L116.72 100.953L117.671 100.846C118.27 100.775 118.869 100.988 119.327 101.449C120.313 102.443 120.418 102.407 120.418 100.882C120.418 99.8531 120.313 99.6758 119.996 99.995C119.397 100.598 111.93 100.598 111.331 99.995C111.014 99.6758 110.909 99.9241 110.944 101.13Z" fill="black"/>
<path d="M41.4517 100.775C38.8453 102.194 37.7887 105.813 39.1976 108.509C40.5008 110.992 44.3399 112.376 47.3337 111.347C48.6017 110.921 48.7426 110.744 48.813 109.644C48.9187 108.544 48.8483 108.473 48.4608 109.077C47.5098 110.602 46.8054 111.063 45.4318 111.063C42.6845 111.063 40.4655 108.509 40.4655 105.387C40.4655 101.024 45.15 98.8953 47.9677 101.946L49.0244 103.081L48.7426 101.84C48.6017 101.166 48.4256 100.527 48.3199 100.421C48.2143 100.314 46.9463 100.208 45.467 100.137C43.3185 100.066 42.5084 100.208 41.4517 100.775Z" fill="black"/>
<path d="M59.9782 100.74C55.8573 103.33 56.4209 109.396 60.9644 111.24C63.7117 112.34 66.776 111.17 68.1144 108.544C69.312 106.239 68.4314 102.585 66.2477 100.953C64.874 99.9241 61.4223 99.8177 59.9782 100.74ZM65.3671 101.982C68.2201 105.068 66.776 111.063 63.1482 111.063C60.0135 111.063 58.0058 106.061 59.7669 102.549C60.9644 100.101 63.3947 99.8531 65.3671 101.982Z" fill="black"/>
<path d="M76.3915 100.35C76.3915 100.492 76.7438 100.775 77.2016 100.953C77.9413 101.272 77.9765 101.52 78.0822 105.635C78.1526 109.609 78.1174 110.034 77.4482 110.708L76.7438 111.418L78.7866 111.382C80.3364 111.382 80.6181 111.311 80.0194 111.063C78.9979 110.637 78.8218 109.786 78.9275 105.813L79.0332 102.549L82.9075 107.161C85.056 109.68 86.958 111.773 87.1341 111.773C87.3454 111.773 87.4511 109.892 87.3807 106.664C87.275 101.769 87.3102 101.52 88.0499 100.811L88.86 100.066H86.7819H84.7391L85.69 100.953C86.5706 101.769 86.6058 101.982 86.6058 105.281C86.6058 109.289 87.1341 109.502 82.2383 103.684C79.2797 100.243 79.0684 100.066 77.7652 100.066C77.0255 100.066 76.3915 100.172 76.3915 100.35Z" fill="black"/>
<path d="M98.3345 100.846C97.2779 102.053 97.137 102.798 97.6653 104.146C97.9823 104.891 98.7572 105.671 99.7786 106.274C102.174 107.693 102.772 109.289 101.434 110.496C100.342 111.489 98.5811 111.134 97.6301 109.68L96.82 108.473V109.751C96.82 110.957 96.9257 111.063 98.2289 111.453C100.976 112.305 103.618 110.708 103.618 108.19C103.618 107.09 102.526 105.636 101.047 104.855C99.7786 104.181 98.5811 102.975 98.5811 102.372C98.5811 101.591 99.8843 100.421 100.694 100.421C101.117 100.421 101.821 100.811 102.279 101.308L103.16 102.159V101.13C103.16 100.066 103.16 100.066 101.117 100.066C99.4264 100.066 98.9333 100.208 98.3345 100.846Z" fill="black"/>
<path d="M127.815 100.421C127.815 100.598 128.062 100.775 128.343 100.775C128.801 100.775 128.872 101.556 128.872 105.742C128.872 110.07 128.801 110.708 128.273 111.028C127.78 111.311 128.132 111.382 129.752 111.382C131.619 111.382 131.795 111.347 131.231 110.921C130.703 110.531 130.633 110.034 130.703 108.367C130.844 105.494 131.513 105.6 133.803 108.828C135.529 111.347 135.634 111.418 137.043 111.418C138.522 111.418 138.522 111.418 137.712 110.85C137.29 110.531 136.198 109.325 135.352 108.154L133.803 106.026L134.859 105.032C136.444 103.542 136.268 101.52 134.472 100.598C133.345 99.995 127.815 99.8531 127.815 100.421ZM133.45 101.485C134.155 102.194 134.366 103.791 133.873 104.607C133.521 105.103 131.372 105.813 130.95 105.529C130.774 105.423 130.633 104.323 130.633 103.046V100.775H131.689C132.288 100.775 133.063 101.095 133.45 101.485Z" fill="black"/>
<path d="M146.13 100.385C146.13 100.563 146.377 100.776 146.659 100.917C147.081 101.059 147.187 101.875 147.187 105.21C147.187 109.289 147.187 109.36 148.173 110.354C149.406 111.595 151.343 112.021 153.21 111.453C155.358 110.815 155.746 109.857 155.922 105.139C156.027 102.124 156.204 101.024 156.556 100.882C157.648 100.456 156.908 100.066 155.041 100.066H152.998L153.985 100.882L155.006 101.698L154.865 105.529C154.759 109.254 154.724 109.36 153.738 110.247C152.893 110.957 152.47 111.099 151.449 110.921C149.3 110.602 148.948 109.786 148.948 105.103C148.948 101.627 149.054 100.953 149.582 100.563C150.11 100.137 149.899 100.102 148.173 100.066C147.046 100.066 146.13 100.208 146.13 100.385Z" fill="black"/>
<path d="M168.144 100.74C165.854 102.159 165.326 103.117 165.326 105.671C165.326 107.622 165.467 108.261 166.171 109.183C167.369 110.779 169.165 111.595 171.49 111.595C174.554 111.595 175.258 111.276 175.435 109.821C175.505 109.147 175.435 108.58 175.294 108.58C175.153 108.58 175.012 108.757 175.012 108.935C175.012 109.857 173.251 111.063 171.948 111.063C168.249 111.063 165.749 106.451 167.545 102.939C168.919 100.208 172.546 99.6758 174.413 101.875L175.364 103.046V101.911C175.364 100.988 175.188 100.669 174.448 100.421C172.899 99.8177 169.306 99.995 168.144 100.74Z" fill="black"/>
<path d="M186.635 100.811C184.698 101.946 183.817 103.507 183.817 105.777C183.817 109.999 187.621 112.553 192.235 111.418C193.996 110.992 194.032 110.957 194.032 109.715L193.996 108.403L193.468 109.36C191.953 112.234 187.727 111.418 186.212 107.977C184.909 105.032 185.825 101.946 188.326 100.882C190.157 100.101 191.883 100.492 193.081 101.911L194.032 103.046V101.911C194.032 100.492 193.151 100.066 190.051 100.066C188.502 100.066 187.516 100.279 186.635 100.811Z" fill="black"/>
<path d="M201.78 100.421C201.78 100.598 202.027 100.775 202.309 100.775C202.766 100.775 202.837 101.556 202.837 105.742C202.837 110.07 202.766 110.708 202.238 111.028C201.745 111.311 202.097 111.382 203.717 111.382C205.338 111.382 205.69 111.311 205.232 111.028C204.668 110.708 204.598 110.07 204.598 105.742C204.598 101.556 204.668 100.775 205.126 100.775C205.408 100.775 205.655 100.598 205.655 100.421C205.655 100.208 204.774 100.066 203.717 100.066C202.661 100.066 201.78 100.208 201.78 100.421Z" fill="black"/>
<path d="M216.01 100.74C211.854 103.365 212.488 109.467 217.102 111.24C219.743 112.269 222.843 111.099 224.146 108.58C225.344 106.239 224.463 102.585 222.279 100.953C220.906 99.9241 217.454 99.8177 216.01 100.74ZM221.399 101.982C224.216 105.032 222.808 111.063 219.285 111.063C217.665 111.063 216.01 109.68 215.517 107.941C213.967 102.265 217.947 98.2568 221.399 101.982Z" fill="black"/>
<path d="M232.599 100.421C232.705 100.598 233.022 100.775 233.304 100.775C234.043 100.775 234.184 101.627 234.184 106.097C234.184 110.034 234.149 110.354 233.409 110.85C232.67 111.382 232.705 111.418 234.712 111.382C236.473 111.382 236.685 111.311 236.051 110.992C235.1 110.531 234.783 108.864 234.959 105.068L235.065 102.443L239.045 107.125C241.228 109.68 243.166 111.773 243.377 111.773C243.623 111.773 243.659 110.637 243.518 108.261C243.201 104.004 243.518 100.775 244.257 100.775C244.539 100.775 244.751 100.598 244.751 100.421C244.751 100.208 243.976 100.066 242.989 100.066C242.039 100.066 241.228 100.208 241.228 100.421C241.228 100.598 241.475 100.775 241.757 100.775C242.496 100.775 242.672 101.911 242.567 105.458L242.461 108.544L238.939 104.323C235.452 100.137 235.417 100.101 233.902 100.066C232.987 100.066 232.458 100.208 232.599 100.421Z" fill="black"/>
<path d="M253.133 100.669C253.873 101.201 253.908 101.45 253.908 105.848C253.908 109.822 253.838 110.531 253.309 110.921C252.781 111.347 253.274 111.382 256.691 111.311L260.741 111.24L260.988 110.247C261.305 109.112 260.988 109.006 260.142 110.034C259.649 110.602 259.191 110.708 257.677 110.637L255.845 110.531L255.74 108.083L255.634 105.671L256.972 105.884C257.712 106.026 258.522 106.416 258.769 106.735C259.121 107.196 259.191 107.019 259.156 105.529C259.156 104.571 259.051 104.039 258.945 104.323C258.628 105.103 258.1 105.387 256.832 105.387H255.669V103.081V100.776H257.078C258.029 100.776 258.734 101.024 259.227 101.52C260.107 102.407 260.248 102.336 260.002 101.024L259.825 100.066L256.057 100.101C252.57 100.101 252.358 100.137 253.133 100.669Z" fill="black"/>
<path d="M270.286 100.953C269.687 101.52 269.406 102.194 269.406 103.01C269.406 104.358 269.899 104.961 272.505 106.806C273.668 107.658 273.985 108.083 273.985 108.899C273.985 111.56 270.357 111.879 269.335 109.36C268.807 108.119 268.525 109.147 269.018 110.46C269.723 112.269 273.28 112.163 274.865 110.283C276.38 108.473 275.957 106.7 273.738 105.352C271.695 104.146 270.815 103.223 270.815 102.336C270.815 100.101 274.02 99.7467 274.795 101.911C275.076 102.727 275.323 102.053 275.147 101.024C274.971 100.137 274.865 100.066 273.034 100.066C271.484 100.066 270.991 100.243 270.286 100.953Z" fill="black"/>
<path d="M38 124.721V125.608H157.049H276.098V124.721V123.834H157.049H38V124.721Z" fill="black"/>
</svg>
