<svg width="314" height="151" viewBox="0 0 314 151" fill="none" xmlns="http://www.w3.org/2000/svg">
<rect width="314" height="151" fill="black"/>
<path d="M46.375 70.0879C44.8906 70.0293 43.5234 70 42.2734 70C41.1992 70 39.5098 70.0391 37.2051 70.1172L34.832 70.1758C34.7539 69.8633 34.7148 69.5605 34.7148 69.2676C34.7148 69.0723 34.7441 68.9258 34.8027 68.8281C34.8613 68.7109 34.9688 68.623 35.125 68.5645L37.293 68.2129C38.1914 68.0566 38.6895 67.4805 38.7871 66.4844C38.9043 65.4688 38.9629 63.9453 38.9629 61.9141V37.4219C38.9629 35.4492 38.9141 33.9453 38.8164 32.9102C38.7188 31.875 38.2109 31.2793 37.293 31.123L35.125 30.7715C34.8516 30.7129 34.7148 30.4883 34.7148 30.0977C34.7148 29.8047 34.7539 29.4824 34.832 29.1309L37.1758 29.2188C37.5664 29.2188 38.1426 29.2383 38.9043 29.2773C39.666 29.2969 40.3691 29.3066 41.0137 29.3066C42.0879 29.3066 43.748 29.2383 45.9941 29.1016C48.2598 28.9648 49.8613 28.8965 50.7988 28.8965C54.959 28.8965 58.3086 29.9316 60.8477 32.002C63.3867 34.0723 64.6562 36.9824 64.6562 40.7324C64.6562 44.1113 63.2988 47.0312 60.584 49.4922C57.8691 51.9336 54.3047 53.1543 49.8906 53.1543C49.0898 53.1543 48.5527 53.0762 48.2793 52.9199C48.0059 52.7637 47.8691 52.5 47.8691 52.1289C47.8691 51.7188 47.9277 51.3379 48.0449 50.9863C48.748 51.0645 49.3242 51.1035 49.7734 51.1035C52.3516 51.1035 54.3926 50.2148 55.8965 48.4375C57.4199 46.6602 58.1816 44.2676 58.1816 41.2598C58.1816 38.0762 57.332 35.5859 55.6328 33.7891C53.9531 31.9727 51.6387 31.0645 48.6895 31.0645C47.5762 31.0645 46.6191 31.2012 45.8184 31.4746C45.3691 32.0215 45.1445 33.9258 45.1445 37.1875V61.5332C45.1445 63.7793 45.291 65.3906 45.584 66.3672C45.877 67.3438 46.5508 67.9102 47.6055 68.0664L50.4473 68.5059C50.7207 68.5645 50.8574 68.7988 50.8574 69.209C50.8574 69.4434 50.8379 69.6484 50.7988 69.8242L50.6816 70.1758C49.8418 70.1758 49.0508 70.166 48.3086 70.1465L46.375 70.0879ZM76.0621 68.5645L78.2008 68.2129C79.1383 68.0371 79.6559 67.4219 79.7535 66.3672C79.8512 65.293 79.9 63.8086 79.9 61.9141V37.4219C79.9 35.5859 79.8512 34.1113 79.7535 32.998C79.6754 31.8848 79.1578 31.2598 78.2008 31.123L76.0621 30.7715C75.9059 30.7129 75.7887 30.6348 75.7105 30.5371C75.652 30.4199 75.6227 30.2539 75.6227 30.0391C75.6227 29.7852 75.6617 29.4824 75.7398 29.1309L80.1637 29.2773C80.9254 29.2773 81.8141 29.2871 82.8297 29.3066C83.9039 29.3066 85.5738 29.2676 87.8395 29.1895L90.2125 29.1309C90.2906 29.4824 90.3297 29.7852 90.3297 30.0391C90.3297 30.4102 90.193 30.6543 89.9195 30.7715L87.7516 31.123C86.8336 31.2598 86.3258 31.8555 86.2281 32.9102C86.1305 33.9453 86.0816 35.4492 86.0816 37.4219V61.9141C86.0816 63.9453 86.1305 65.4688 86.2281 66.4844C86.3453 67.4805 86.8531 68.0566 87.7516 68.2129L89.9195 68.5645C90.0758 68.623 90.1832 68.7109 90.2418 68.8281C90.3004 68.9258 90.3297 69.0723 90.3297 69.2676C90.3297 69.5605 90.2906 69.8633 90.2125 70.1758L85.818 70.0293C85.0367 70.0293 84.1383 70.0195 83.1227 70C82.0875 70 80.4176 70.0391 78.1129 70.1172L75.7398 70.1758C75.6617 69.8633 75.6227 69.5605 75.6227 69.2676C75.6227 69.0723 75.652 68.9258 75.7105 68.8281C75.7887 68.7109 75.9059 68.623 76.0621 68.5645ZM129.978 70.1172C129.821 70.0586 129.411 70.0293 128.747 70.0293C128.083 70.0293 127.146 70.0195 125.935 70H108.093C106.081 70 104.46 70.0293 103.23 70.0879C101.999 70.1465 101.335 70.1758 101.238 70.1758C101.159 69.8633 101.12 69.5605 101.12 69.2676C101.12 69.0723 101.15 68.9258 101.208 68.8281C101.267 68.7109 101.374 68.623 101.53 68.5645L103.698 68.2129C104.597 68.0566 105.095 67.4805 105.193 66.4844C105.31 65.4688 105.368 63.9453 105.368 61.9141V37.4219C105.368 35.4492 105.32 33.9453 105.222 32.9102C105.124 31.8555 104.616 31.2598 103.698 31.123L101.53 30.7715C101.257 30.6543 101.12 30.4102 101.12 30.0391C101.12 29.7852 101.159 29.4824 101.238 29.1309C101.882 29.209 102.829 29.2578 104.079 29.2773C105.349 29.2969 106.667 29.3066 108.034 29.3066H117.614L123.65 29.3359C125.388 29.3359 126.443 29.2871 126.814 29.1895C127.185 29.4434 127.351 29.5801 127.312 29.5996C127.292 29.6191 127.419 30.5078 127.693 32.2656C127.986 34.0234 128.269 35.4395 128.542 36.5137C128.366 36.6309 128.152 36.7188 127.898 36.7773C127.644 36.8164 127.478 36.8359 127.4 36.8359C127.146 36.8359 126.97 36.709 126.872 36.4551L126.316 35.0781C125.73 33.7109 124.9 32.8027 123.825 32.3535C122.771 31.8848 120.681 31.6504 117.556 31.6504H112.224C111.736 32.2363 111.491 34.1016 111.491 37.2461V47.3828C111.53 47.5195 111.657 47.6562 111.872 47.793H117.204C119.392 47.793 120.935 47.6465 121.833 47.3535C122.732 47.0605 123.23 46.5137 123.327 45.7129L123.562 43.8965C123.64 43.623 123.835 43.4863 124.148 43.4863C124.323 43.4863 124.509 43.5059 124.704 43.5449L125.114 43.6621L125.027 46.0938C124.968 47.2656 124.939 48.291 124.939 49.1699C124.939 50.0098 124.968 50.9863 125.027 52.0996L125.114 54.6484C124.724 54.7266 124.402 54.7656 124.148 54.7656C123.816 54.7656 123.62 54.6484 123.562 54.4141L123.327 52.2461C123.23 51.4062 122.693 50.8398 121.716 50.5469C120.739 50.2344 119.236 50.0781 117.204 50.0781H111.872C111.657 50.2148 111.53 50.3516 111.491 50.4883V60.5664C111.491 63.2422 111.745 65.0977 112.253 66.1328C112.761 67.1484 113.855 67.6562 115.534 67.6562H120.193C123.161 67.6562 125.222 67.4609 126.374 67.0703C127.527 66.6602 128.571 65.6348 129.509 63.9941L130.476 62.2656C130.691 62.0508 130.896 61.9434 131.091 61.9434C131.169 61.9434 131.355 61.9824 131.648 62.0605C131.941 62.1191 132.146 62.1875 132.263 62.2656C131.892 63.1641 131.501 64.5605 131.091 66.4551C130.7 68.3496 130.505 69.3848 130.505 69.5605C130.505 69.7363 130.329 69.9219 129.978 70.1172ZM160.925 70H148.766C146.579 70 144.655 70.0488 142.995 70.1465L141.852 70.1758C141.774 69.8633 141.735 69.5605 141.735 69.2676C141.735 69.0723 141.764 68.9258 141.823 68.8281C141.882 68.7109 141.989 68.623 142.145 68.5645L144.313 68.2129C145.212 68.0566 145.71 67.4805 145.807 66.4844C145.925 65.4688 145.983 63.9453 145.983 61.9141V37.4219C145.983 35.4492 145.934 33.9453 145.837 32.9102C145.739 31.875 145.231 31.2598 144.313 31.0645L142.145 30.7129C141.872 30.6543 141.735 30.4297 141.735 30.0391C141.735 29.7852 141.774 29.4824 141.852 29.1309C142.809 29.248 144.831 29.3066 147.917 29.3066C149.518 29.3066 151.423 29.1895 153.63 28.9551C155.837 28.7207 157.575 28.6035 158.845 28.6035C166.95 28.6035 173.073 30.625 177.214 34.668C181.354 38.7109 183.425 43.6523 183.425 49.4922C183.425 54.8633 181.471 59.6289 177.565 63.7891C173.659 67.9297 168.112 70 160.925 70ZM152.839 31.6504C152.624 32.0605 152.458 32.6562 152.341 33.4375C152.223 34.2188 152.165 35.4688 152.165 37.1875V60.5664C152.165 63.2422 152.419 65.0977 152.927 66.1328C153.434 67.1484 154.528 67.6562 156.208 67.6562H161.13C165.563 67.6562 169.216 66.1133 172.087 63.0273C174.977 59.9219 176.423 55.7617 176.423 50.5469C176.423 44.668 174.792 39.9414 171.53 36.3672C168.268 32.793 164.02 31.0059 158.786 31.0059C157.751 31.0059 156.696 31.0645 155.622 31.1816C154.567 31.2988 153.639 31.4551 152.839 31.6504ZM228.58 70.0293C228.17 70.0293 227.77 70.0195 227.379 70C226.305 70 225.338 70.0098 224.479 70.0293C223.62 70.0488 222.907 70.0977 222.34 70.1758C220.504 68.3398 218.483 65.8203 216.276 62.6172C214.069 59.3945 211.696 55.6738 209.157 51.4551L208.981 51.2793C208.903 51.2012 208.815 51.1426 208.717 51.1035H204.118C203.903 51.2402 203.776 51.377 203.737 51.5137V61.9141C203.737 63.8086 203.786 65.293 203.883 66.3672C203.981 67.4219 204.498 68.0371 205.436 68.2129L207.575 68.5645C207.731 68.623 207.838 68.7109 207.897 68.8281C207.975 68.9258 208.014 69.0723 208.014 69.2676C208.014 69.5605 207.975 69.8633 207.897 70.1758L203.502 70.0293C202.721 70.0293 201.823 70.0195 200.807 70C199.772 70 198.102 70.0391 195.797 70.1172L193.424 70.1758C193.346 69.8633 193.307 69.5605 193.307 69.2676C193.307 69.0723 193.336 68.9258 193.395 68.8281C193.454 68.7109 193.561 68.623 193.717 68.5645L195.885 68.2129C196.784 68.0566 197.282 67.4805 197.379 66.4844C197.496 65.4688 197.555 63.9453 197.555 61.9141V37.4219C197.555 35.4492 197.506 33.9453 197.409 32.9102C197.311 31.8555 196.803 31.2598 195.885 31.123L193.717 30.7715C193.444 30.6543 193.307 30.4102 193.307 30.0391C193.307 29.7852 193.346 29.4824 193.424 29.1309L195.914 29.2188C196.461 29.2188 197.135 29.2383 197.936 29.2773C198.737 29.2969 199.411 29.3066 199.957 29.3066C201.032 29.3066 202.643 29.2383 204.791 29.1016C206.94 28.9648 208.473 28.8965 209.391 28.8965C213.629 28.8965 216.979 29.8437 219.44 31.7383C221.901 33.6133 223.131 36.2109 223.131 39.5312C223.131 41.7969 222.389 43.7891 220.905 45.5078C219.42 47.2266 217.506 48.5547 215.163 49.4922C215.123 49.6094 215.104 49.6875 215.104 49.7266L215.163 49.9609C217.545 53.6914 220.016 57.2168 222.575 60.5371C225.153 63.8379 226.93 65.9473 227.907 66.8652C228.883 67.7832 229.83 68.291 230.748 68.3887L231.715 68.5645C231.95 68.623 232.067 68.8574 232.067 69.2676C232.067 69.5605 232.028 69.8633 231.95 70.1758C231.344 70.1758 230.602 70.1465 229.723 70.0879L228.58 70.0293ZM204.411 31.4746C203.961 32.0215 203.737 33.9453 203.737 37.2461V48.584C203.795 48.6816 203.922 48.7988 204.118 48.9355H208.073C210.709 48.9355 212.819 48.1836 214.401 46.6797C215.983 45.1562 216.774 43.0859 216.774 40.4688C216.774 37.6367 215.885 35.3613 214.108 33.6426C212.35 31.9238 210.075 31.0645 207.282 31.0645C206.207 31.0645 205.25 31.2012 204.411 31.4746ZM263.775 70.1758C263.697 69.8633 263.658 69.5605 263.658 69.2676C263.658 68.916 263.775 68.6816 264.01 68.5645L265.562 68.3301C266.207 68.2129 266.637 68.0469 266.852 67.832C267.086 67.6172 267.203 67.3242 267.203 66.9531C267.203 66.582 267.066 66.0059 266.793 65.2246C266.52 64.4434 266.109 63.3398 265.562 61.9141L263.219 55.5859C263.102 55.4102 262.965 55.293 262.809 55.2344H249.566C249.391 55.2734 249.244 55.3906 249.127 55.5859L247.047 61.9141C246.48 63.4766 246.197 64.7266 246.197 65.6641C246.197 67.2461 246.9 68.1348 248.307 68.3301L249.859 68.5645C250.094 68.6816 250.211 68.916 250.211 69.2676C250.211 69.5605 250.172 69.8633 250.094 70.1758L247.486 70.0879C246.295 70.0293 245.104 70 243.912 70C242.838 70 241.744 70.0293 240.631 70.0879L238.023 70.1758C237.945 69.8633 237.906 69.5605 237.906 69.2676C237.906 69.0723 237.936 68.9258 237.994 68.8281C238.053 68.7109 238.15 68.623 238.287 68.5645L239.605 68.2715C240.621 67.9785 241.432 67.3535 242.037 66.3965C242.643 65.4199 243.287 63.9258 243.971 61.9141L253.404 34.5508C253.717 33.6523 253.873 32.9883 253.873 32.5586C253.873 32.4414 253.834 32.2266 253.756 31.9141C253.893 31.5039 254.332 31.1035 255.074 30.7129C255.836 30.3027 256.52 29.7656 257.125 29.1016C257.75 28.4375 258.268 28.1055 258.678 28.1055C258.814 28.1055 258.99 28.1738 259.205 28.3105C259.791 30.3418 260.797 33.0957 262.223 36.5723L272.242 61.9141C273.082 64.1211 273.785 65.6641 274.352 66.543C274.918 67.4219 275.67 67.998 276.607 68.2715L278.043 68.5645C278.238 68.623 278.365 68.7012 278.424 68.7988C278.502 68.8965 278.541 69.0527 278.541 69.2676C278.541 69.5605 278.502 69.8633 278.424 70.1758C277.369 70.1367 276.568 70.1172 276.021 70.1172C273.834 70.0391 272.213 70 271.158 70C270.123 70 268.453 70.0391 266.148 70.1172L263.775 70.1758ZM255.807 35.6934H255.66L250.27 52.0703C250.328 52.1875 250.445 52.3047 250.621 52.4219H261.49C261.666 52.3047 261.783 52.1875 261.842 52.0703L255.807 35.6934Z" fill="white"/>
<path d="M46.4119 107.385L46.3152 107.517C46.3035 107.534 46.0808 107.619 45.6472 107.771C45.2195 107.924 44.7068 108.053 44.1091 108.158C43.5173 108.27 42.8992 108.325 42.2546 108.325C40.989 108.325 39.8142 108.059 38.7302 107.525C37.6462 106.992 36.779 106.236 36.1287 105.258C35.4841 104.273 35.1619 103.143 35.1619 101.865C35.1619 100.57 35.4783 99.4395 36.1111 98.4727C36.7497 97.5059 37.5994 96.7646 38.6599 96.249C39.7263 95.7334 40.8835 95.4756 42.1316 95.4756C42.8347 95.4756 43.532 95.54 44.2234 95.6689C44.9148 95.7979 45.4158 95.9238 45.7263 96.0469C46.0427 96.1641 46.2185 96.2402 46.2537 96.2754C46.2947 96.3047 46.324 96.5303 46.3415 96.9521C46.365 97.374 46.4324 97.9365 46.5437 98.6396L46.4558 98.6748C46.4031 98.6982 46.3415 98.71 46.2712 98.71C46.2009 98.71 46.1453 98.7041 46.1042 98.6924C46.0632 98.6748 45.9988 98.5137 45.9109 98.209C45.823 97.8984 45.615 97.5732 45.2869 97.2334C44.9646 96.8877 44.531 96.6182 43.9861 96.4248C43.4412 96.2314 42.8464 96.1348 42.2019 96.1348C40.6902 96.1348 39.4861 96.6152 38.5896 97.5762C37.699 98.5371 37.2537 99.791 37.2537 101.338C37.2537 103.143 37.7576 104.648 38.7654 105.855C39.779 107.057 41.1003 107.657 42.7292 107.657C43.6667 107.657 44.4138 107.435 44.9705 106.989C45.533 106.544 45.9431 105.879 46.2009 104.994C46.2244 104.947 46.2449 104.918 46.2624 104.906C46.28 104.895 46.3064 104.889 46.3415 104.889C46.4705 104.889 46.5613 104.897 46.614 104.915C46.6667 104.933 46.696 104.941 46.7019 104.941C46.5203 106.184 46.4236 106.998 46.4119 107.385ZM60.2892 95.4756C62.0763 95.4756 63.5968 96.1055 64.8507 97.3652C66.1047 98.6191 66.7316 100.131 66.7316 101.9C66.7316 103.699 66.1281 105.22 64.9211 106.462C63.714 107.704 62.2199 108.325 60.4386 108.325C58.6632 108.325 57.1398 107.692 55.8683 106.427C54.6027 105.155 53.9699 103.641 53.9699 101.883C53.9699 100.09 54.5734 98.5752 55.7804 97.3389C56.9875 96.0967 58.4904 95.4756 60.2892 95.4756ZM60.1134 96.1348C58.8302 96.1348 57.8371 96.6445 57.1339 97.6641C56.4308 98.6836 56.0793 99.9697 56.0793 101.522C56.0793 102.501 56.2492 103.462 56.589 104.405C56.9347 105.349 57.4504 106.128 58.1359 106.743C58.8214 107.353 59.6476 107.657 60.6144 107.657C61.8918 107.657 62.882 107.147 63.5851 106.128C64.2941 105.103 64.6486 103.813 64.6486 102.261C64.6486 101.288 64.4757 100.33 64.13 99.3867C63.7902 98.4434 63.2775 97.667 62.592 97.0576C61.9064 96.4424 61.0802 96.1348 60.1134 96.1348ZM84.9156 108.246L84.8717 108.202C84.7017 107.974 84.3414 107.534 83.7906 106.884L76.3551 98.2441H76.3199V104.493C76.3199 105.554 76.3785 106.295 76.4957 106.717C76.6129 107.133 76.8736 107.382 77.2779 107.464L77.9195 107.569C77.9605 107.587 77.9898 107.613 78.0074 107.648C78.025 107.678 78.0338 107.722 78.0338 107.78C78.0338 107.868 78.0221 107.959 77.9986 108.053L77.2603 108.026C77.0904 108.026 76.8766 108.021 76.6187 108.009C76.3609 108.003 76.1471 108 75.9771 108C75.8131 108 75.6051 108.003 75.3531 108.009C75.1012 108.015 74.8961 108.021 74.7379 108.026L74.0348 108.053C74.0113 107.959 73.9996 107.868 73.9996 107.78C73.9996 107.722 74.0084 107.678 74.026 107.648C74.0435 107.613 74.0758 107.587 74.1226 107.569L74.6851 107.481C75.0191 107.423 75.2213 107.174 75.2916 106.734C75.3678 106.289 75.4058 105.571 75.4058 104.581V97.9717C75.4058 97.5146 75.2975 97.1396 75.0807 96.8467C74.8639 96.5537 74.6324 96.3867 74.3863 96.3457L74.193 96.3193L73.7096 96.2666C73.6275 96.2256 73.5865 96.1523 73.5865 96.0469C73.5865 95.9824 73.5953 95.918 73.6129 95.8535L73.6392 95.7393L74.1402 95.7656C74.2281 95.7656 74.3512 95.7715 74.5094 95.7832C74.6734 95.7891 74.8199 95.792 74.9488 95.792C75.8043 95.792 76.317 95.7803 76.4869 95.7568C76.6568 95.7275 76.7828 95.7539 76.8648 95.8359L77.1725 96.2314C77.7174 96.9287 78.2066 97.5264 78.6402 98.0244L84.6519 105.082H84.6871V99.3076C84.6871 98.2588 84.6285 97.5205 84.5113 97.0928C84.4 96.665 84.1422 96.4131 83.7379 96.3369L83.0875 96.2314C82.9937 96.1963 82.9469 96.123 82.9469 96.0117C82.9469 95.959 82.9557 95.9062 82.9732 95.8535L82.9996 95.7393L83.7379 95.7656C83.9078 95.7656 84.1217 95.7715 84.3795 95.7832C84.6373 95.7891 84.8541 95.792 85.0299 95.792C85.1881 95.792 85.3873 95.7891 85.6275 95.7832C85.8736 95.7773 86.0758 95.7715 86.234 95.7656L86.9547 95.7393C86.984 95.8271 86.9986 95.918 86.9986 96.0117C86.9986 96.123 86.9547 96.1963 86.8668 96.2314L86.3307 96.3193C86.0084 96.3662 85.8062 96.6064 85.7242 97.04C85.648 97.4678 85.61 98.1943 85.61 99.2197V104.889C85.61 105.586 85.6217 106.251 85.6451 106.884C85.6744 107.517 85.7096 107.979 85.7506 108.272C85.61 108.296 85.3873 108.308 85.0826 108.308C85.0299 108.308 84.9918 108.302 84.9683 108.29C84.9508 108.284 84.9332 108.27 84.9156 108.246ZM94.6094 107.499L94.5479 106.928C94.4658 106.025 94.3897 105.41 94.3194 105.082C94.4248 105.047 94.5274 105.029 94.627 105.029C94.7559 105.029 94.8233 105.064 94.8291 105.135C94.835 105.199 94.8994 105.407 95.0225 105.759C95.1514 106.104 95.3067 106.395 95.4883 106.629C95.6699 106.863 95.8779 107.062 96.1123 107.227C96.3467 107.385 96.6133 107.502 96.9121 107.578C97.211 107.654 97.5274 107.692 97.8613 107.692C98.5938 107.692 99.1797 107.493 99.6192 107.095C100.059 106.69 100.278 106.146 100.278 105.46C100.278 104.88 100.114 104.37 99.7861 103.931C99.4639 103.485 98.7754 102.976 97.7207 102.401C96.666 101.827 95.9512 101.273 95.5762 100.74C95.207 100.207 95.0225 99.5742 95.0225 98.8418C95.0225 97.875 95.3594 97.0723 96.0332 96.4336C96.7129 95.7949 97.6592 95.4756 98.8721 95.4756C99.4522 95.4756 99.9707 95.5166 100.428 95.5986C100.891 95.6748 101.157 95.7393 101.228 95.792C101.304 95.8447 101.342 95.9092 101.342 95.9854C101.342 96.0557 101.389 96.5068 101.482 97.3389L101.553 97.9189C101.482 97.9658 101.392 97.9893 101.28 97.9893C101.14 97.9893 101.058 97.9219 101.034 97.7871C101.017 97.6523 100.92 97.4297 100.744 97.1191C100.568 96.8027 100.311 96.5479 99.9707 96.3545C99.6309 96.1611 99.2031 96.0645 98.6875 96.0645C98.0547 96.0645 97.5332 96.249 97.1231 96.6182C96.7188 96.9873 96.5166 97.4619 96.5166 98.042C96.5166 98.5459 96.6865 99.0059 97.0264 99.4219C97.3662 99.832 98.0811 100.342 99.1709 100.951C100.267 101.555 101.02 102.126 101.43 102.665C101.846 103.204 102.054 103.825 102.054 104.528C102.054 105.653 101.623 106.567 100.762 107.271C99.9063 107.974 98.875 108.325 97.668 108.325C97.082 108.325 96.543 108.267 96.0508 108.149C95.5645 108.038 95.125 107.868 94.7324 107.64C94.7149 107.628 94.6738 107.581 94.6094 107.499ZM115.834 108.035C115.202 108.012 114.736 108 114.437 108C114.126 108 113.625 108.012 112.934 108.035L112.222 108.053C112.199 107.959 112.187 107.868 112.187 107.78C112.187 107.722 112.196 107.678 112.213 107.648C112.231 107.613 112.263 107.587 112.31 107.569L112.96 107.464C113.23 107.417 113.379 107.244 113.409 106.945C113.444 106.641 113.461 106.184 113.461 105.574V98.3145C113.461 97.7285 113.444 97.3154 113.409 97.0752C113.379 96.8291 113.338 96.6621 113.286 96.5742H112.134C111.226 96.5742 110.628 96.627 110.341 96.7324C110.054 96.8379 109.852 97.0957 109.735 97.5059L109.594 98.0068C109.577 98.0654 109.553 98.1094 109.524 98.1387C109.495 98.1621 109.451 98.1738 109.392 98.1738L109.313 98.1826C109.231 98.1826 109.152 98.168 109.076 98.1387C109.105 97.7578 109.134 97.2832 109.164 96.7148C109.199 96.1406 109.216 95.7217 109.216 95.458C109.251 95.4404 109.322 95.4316 109.427 95.4316C109.556 95.4316 109.632 95.4873 109.656 95.5986C109.679 95.7041 109.726 95.7773 109.796 95.8184C109.872 95.8535 110.602 95.8711 111.985 95.8711H116.722C118.14 95.8711 118.875 95.8535 118.928 95.8184C118.987 95.7773 119.034 95.7129 119.069 95.625L119.113 95.5283C119.136 95.4639 119.198 95.4316 119.297 95.4316C119.403 95.4316 119.467 95.4404 119.491 95.458C119.491 96.7881 119.508 97.6816 119.543 98.1387C119.461 98.1621 119.382 98.1738 119.306 98.1738H119.227C119.168 98.1738 119.124 98.1621 119.095 98.1387C119.066 98.1094 119.042 98.0654 119.025 98.0068L118.884 97.5059C118.767 97.0898 118.582 96.832 118.331 96.7324C118.084 96.627 117.507 96.5742 116.599 96.5742H115.483C115.43 96.6504 115.389 96.8174 115.36 97.0752C115.331 97.333 115.316 97.7461 115.316 98.3145V105.574C115.316 106.143 115.331 106.588 115.36 106.91C115.389 107.227 115.544 107.411 115.826 107.464L116.467 107.569C116.514 107.587 116.546 107.613 116.564 107.648C116.587 107.678 116.599 107.722 116.599 107.78C116.599 107.886 116.584 107.977 116.555 108.053C116.239 108.041 115.998 108.035 115.834 108.035ZM137.086 108.009C136.963 108.009 136.843 108.006 136.725 108C136.403 108 136.113 108.003 135.855 108.009C135.598 108.015 135.384 108.029 135.214 108.053C134.663 107.502 134.057 106.746 133.394 105.785C132.732 104.818 132.02 103.702 131.259 102.437L131.206 102.384C131.182 102.36 131.156 102.343 131.127 102.331H129.747C129.682 102.372 129.644 102.413 129.633 102.454V105.574C129.633 106.143 129.647 106.588 129.677 106.91C129.706 107.227 129.861 107.411 130.142 107.464L130.784 107.569C130.831 107.587 130.863 107.613 130.881 107.648C130.904 107.678 130.916 107.722 130.916 107.78C130.916 107.868 130.904 107.959 130.881 108.053L129.562 108.009C129.328 108.009 129.058 108.006 128.754 108C128.443 108 127.942 108.012 127.251 108.035L126.539 108.053C126.515 107.959 126.504 107.868 126.504 107.78C126.504 107.722 126.513 107.678 126.53 107.648C126.548 107.613 126.58 107.587 126.627 107.569L127.277 107.464C127.547 107.417 127.696 107.244 127.725 106.945C127.761 106.641 127.778 106.184 127.778 105.574V98.2266C127.778 97.6348 127.764 97.1836 127.734 96.873C127.705 96.5566 127.553 96.3779 127.277 96.3369L126.627 96.2314C126.545 96.1963 126.504 96.123 126.504 96.0117C126.504 95.9355 126.515 95.8447 126.539 95.7393L127.286 95.7656C127.45 95.7656 127.652 95.7715 127.892 95.7832C128.133 95.7891 128.335 95.792 128.499 95.792C128.821 95.792 129.305 95.7715 129.949 95.7305C130.594 95.6895 131.054 95.6689 131.329 95.6689C132.6 95.6689 133.605 95.9531 134.344 96.5215C135.082 97.084 135.451 97.8633 135.451 98.8594C135.451 99.5391 135.228 100.137 134.783 100.652C134.338 101.168 133.764 101.566 133.06 101.848C133.049 101.883 133.043 101.906 133.043 101.918L133.06 101.988C133.775 103.107 134.516 104.165 135.284 105.161C136.057 106.151 136.591 106.784 136.884 107.06C137.177 107.335 137.461 107.487 137.736 107.517L138.026 107.569C138.097 107.587 138.132 107.657 138.132 107.78C138.132 107.868 138.12 107.959 138.097 108.053C137.915 108.053 137.692 108.044 137.429 108.026L137.086 108.009ZM129.835 96.4424C129.7 96.6064 129.633 97.1836 129.633 98.1738V101.575C129.65 101.604 129.688 101.64 129.747 101.681H130.933C131.724 101.681 132.357 101.455 132.832 101.004C133.307 100.547 133.544 99.9258 133.544 99.1406C133.544 98.291 133.277 97.6084 132.744 97.0928C132.217 96.5771 131.534 96.3193 130.696 96.3193C130.374 96.3193 130.087 96.3604 129.835 96.4424ZM156.175 96.2314L155.692 96.3193C155.358 96.3779 155.126 96.6328 154.997 97.084C154.874 97.5293 154.813 98.2412 154.813 99.2197V103.843C154.813 105.313 154.429 106.43 153.661 107.191C152.9 107.947 151.795 108.325 150.348 108.325C148.731 108.325 147.483 107.974 146.604 107.271C145.725 106.567 145.285 105.46 145.285 103.948V98.2266C145.285 97.6465 145.271 97.1982 145.241 96.8818C145.212 96.5596 145.054 96.3779 144.767 96.3369L144.116 96.2314C144.046 96.1963 144.011 96.123 144.011 96.0117C144.011 95.9355 144.023 95.8447 144.046 95.7393L145.373 95.7832C145.602 95.7832 145.868 95.7861 146.173 95.792C146.472 95.792 146.961 95.7803 147.641 95.7568C147.811 95.7568 148.06 95.751 148.388 95.7393C148.411 95.8447 148.423 95.9355 148.423 96.0117C148.423 96.0762 148.411 96.126 148.388 96.1611C148.37 96.1904 148.338 96.2139 148.291 96.2314L147.65 96.3369C147.351 96.3779 147.19 96.5742 147.166 96.9258C147.149 97.2773 147.14 97.7168 147.14 98.2441V103.79C147.14 104.956 147.421 105.87 147.984 106.532C148.552 107.188 149.399 107.517 150.524 107.517C151.602 107.517 152.413 107.2 152.958 106.567C153.509 105.935 153.784 105.015 153.784 103.808V99.2373C153.784 98.2529 153.714 97.541 153.574 97.1016C153.439 96.6562 153.172 96.4014 152.774 96.3369L152.132 96.2314C152.056 96.1963 152.018 96.123 152.018 96.0117C152.018 95.9355 152.03 95.8447 152.053 95.7393C152.369 95.751 152.607 95.7568 152.765 95.7568C153.433 95.7803 153.928 95.792 154.25 95.792C154.537 95.792 154.789 95.7891 155.006 95.7832L156.272 95.7393C156.295 95.8447 156.307 95.9355 156.307 96.0117C156.307 96.0762 156.295 96.126 156.272 96.1611C156.254 96.1904 156.222 96.2139 156.175 96.2314ZM174.465 107.385L174.368 107.517C174.356 107.534 174.134 107.619 173.7 107.771C173.272 107.924 172.759 108.053 172.162 108.158C171.57 108.27 170.952 108.325 170.307 108.325C169.042 108.325 167.867 108.059 166.783 107.525C165.699 106.992 164.832 106.236 164.181 105.258C163.537 104.273 163.215 103.143 163.215 101.865C163.215 100.57 163.531 99.4395 164.164 98.4727C164.802 97.5059 165.652 96.7646 166.713 96.249C167.779 95.7334 168.936 95.4756 170.184 95.4756C170.887 95.4756 171.585 95.54 172.276 95.6689C172.967 95.7979 173.468 95.9238 173.779 96.0469C174.095 96.1641 174.271 96.2402 174.306 96.2754C174.347 96.3047 174.377 96.5303 174.394 96.9521C174.418 97.374 174.485 97.9365 174.596 98.6396L174.509 98.6748C174.456 98.6982 174.394 98.71 174.324 98.71C174.254 98.71 174.198 98.7041 174.157 98.6924C174.116 98.6748 174.051 98.5137 173.964 98.209C173.876 97.8984 173.668 97.5732 173.34 97.2334C173.017 96.8877 172.584 96.6182 172.039 96.4248C171.494 96.2314 170.899 96.1348 170.255 96.1348C168.743 96.1348 167.539 96.6152 166.642 97.5762C165.752 98.5371 165.306 99.791 165.306 101.338C165.306 103.143 165.81 104.648 166.818 105.855C167.832 107.057 169.153 107.657 170.782 107.657C171.719 107.657 172.467 107.435 173.023 106.989C173.586 106.544 173.996 105.879 174.254 104.994C174.277 104.947 174.298 104.918 174.315 104.906C174.333 104.895 174.359 104.889 174.394 104.889C174.523 104.889 174.614 104.897 174.667 104.915C174.719 104.933 174.749 104.941 174.755 104.941C174.573 106.184 174.476 106.998 174.465 107.385ZM193.273 107.385L193.176 107.517C193.164 107.534 192.942 107.619 192.508 107.771C192.08 107.924 191.568 108.053 190.97 108.158C190.378 108.27 189.76 108.325 189.115 108.325C187.85 108.325 186.675 108.059 185.591 107.525C184.507 106.992 183.64 106.236 182.989 105.258C182.345 104.273 182.023 103.143 182.023 101.865C182.023 100.57 182.339 99.4395 182.972 98.4727C183.61 97.5059 184.46 96.7646 185.521 96.249C186.587 95.7334 187.744 95.4756 188.992 95.4756C189.695 95.4756 190.393 95.54 191.084 95.6689C191.776 95.7979 192.276 95.9238 192.587 96.0469C192.903 96.1641 193.079 96.2402 193.114 96.2754C193.155 96.3047 193.185 96.5303 193.202 96.9521C193.226 97.374 193.293 97.9365 193.404 98.6396L193.317 98.6748C193.264 98.6982 193.202 98.71 193.132 98.71C193.062 98.71 193.006 98.7041 192.965 98.6924C192.924 98.6748 192.859 98.5137 192.772 98.209C192.684 97.8984 192.476 97.5732 192.148 97.2334C191.825 96.8877 191.392 96.6182 190.847 96.4248C190.302 96.2314 189.707 96.1348 189.063 96.1348C187.551 96.1348 186.347 96.6152 185.45 97.5762C184.56 98.5371 184.114 99.791 184.114 101.338C184.114 103.143 184.618 104.648 185.626 105.855C186.64 107.057 187.961 107.657 189.59 107.657C190.527 107.657 191.275 107.435 191.831 106.989C192.394 106.544 192.804 105.879 193.062 104.994C193.085 104.947 193.106 104.918 193.123 104.906C193.141 104.895 193.167 104.889 193.202 104.889C193.331 104.889 193.422 104.897 193.475 104.915C193.527 104.933 193.557 104.941 193.563 104.941C193.381 106.184 193.284 106.998 193.273 107.385ZM201.27 107.569L201.912 107.464C202.193 107.411 202.348 107.227 202.378 106.91C202.407 106.588 202.421 106.143 202.421 105.574V98.2266C202.421 97.6758 202.407 97.2334 202.378 96.8994C202.354 96.5654 202.199 96.3779 201.912 96.3369L201.27 96.2314C201.223 96.2139 201.188 96.1904 201.165 96.1611C201.147 96.126 201.138 96.0762 201.138 96.0117C201.138 95.9355 201.15 95.8447 201.173 95.7393L202.501 95.7832C202.729 95.7832 202.996 95.7861 203.3 95.792C203.623 95.792 204.124 95.7803 204.803 95.7568L205.515 95.7393C205.539 95.8447 205.55 95.9355 205.55 96.0117C205.55 96.123 205.509 96.1963 205.427 96.2314L204.777 96.3369C204.502 96.3779 204.349 96.5566 204.32 96.873C204.291 97.1836 204.276 97.6348 204.276 98.2266V105.574C204.276 106.184 204.291 106.641 204.32 106.945C204.355 107.244 204.507 107.417 204.777 107.464L205.427 107.569C205.474 107.587 205.506 107.613 205.524 107.648C205.542 107.678 205.55 107.722 205.55 107.78C205.55 107.868 205.539 107.959 205.515 108.053L204.197 108.009C203.962 108.009 203.693 108.006 203.388 108C203.078 108 202.577 108.012 201.885 108.035L201.173 108.053C201.15 107.959 201.138 107.868 201.138 107.78C201.138 107.722 201.147 107.678 201.165 107.648C201.188 107.613 201.223 107.587 201.27 107.569ZM219.226 95.4756C221.013 95.4756 222.533 96.1055 223.787 97.3652C225.041 98.6191 225.668 100.131 225.668 101.9C225.668 103.699 225.064 105.22 223.857 106.462C222.65 107.704 221.156 108.325 219.375 108.325C217.6 108.325 216.076 107.692 214.805 106.427C213.539 105.155 212.906 103.641 212.906 101.883C212.906 100.09 213.51 98.5752 214.717 97.3389C215.924 96.0967 217.427 95.4756 219.226 95.4756ZM219.05 96.1348C217.767 96.1348 216.773 96.6445 216.07 97.6641C215.367 98.6836 215.016 99.9697 215.016 101.522C215.016 102.501 215.186 103.462 215.525 104.405C215.871 105.349 216.387 106.128 217.072 106.743C217.758 107.353 218.584 107.657 219.551 107.657C220.828 107.657 221.818 107.147 222.521 106.128C223.23 105.103 223.585 103.813 223.585 102.261C223.585 101.288 223.412 100.33 223.066 99.3867C222.727 98.4434 222.214 97.667 221.528 97.0576C220.843 96.4424 220.017 96.1348 219.05 96.1348ZM243.852 108.246L243.808 108.202C243.638 107.974 243.278 107.534 242.727 106.884L235.291 98.2441H235.256V104.493C235.256 105.554 235.315 106.295 235.432 106.717C235.549 107.133 235.81 107.382 236.214 107.464L236.856 107.569C236.897 107.587 236.926 107.613 236.944 107.648C236.961 107.678 236.97 107.722 236.97 107.78C236.97 107.868 236.958 107.959 236.935 108.053L236.197 108.026C236.027 108.026 235.813 108.021 235.555 108.009C235.297 108.003 235.083 108 234.913 108C234.749 108 234.541 108.003 234.289 108.009C234.038 108.015 233.832 108.021 233.674 108.026L232.971 108.053C232.948 107.959 232.936 107.868 232.936 107.78C232.936 107.722 232.945 107.678 232.962 107.648C232.98 107.613 233.012 107.587 233.059 107.569L233.621 107.481C233.955 107.423 234.158 107.174 234.228 106.734C234.304 106.289 234.342 105.571 234.342 104.581V97.9717C234.342 97.5146 234.234 97.1396 234.017 96.8467C233.8 96.5537 233.569 96.3867 233.323 96.3457L233.129 96.3193L232.646 96.2666C232.564 96.2256 232.523 96.1523 232.523 96.0469C232.523 95.9824 232.532 95.918 232.549 95.8535L232.576 95.7393L233.077 95.7656C233.164 95.7656 233.288 95.7715 233.446 95.7832C233.61 95.7891 233.756 95.792 233.885 95.792C234.741 95.792 235.253 95.7803 235.423 95.7568C235.593 95.7275 235.719 95.7539 235.801 95.8359L236.109 96.2314C236.654 96.9287 237.143 97.5264 237.577 98.0244L243.588 105.082H243.623V99.3076C243.623 98.2588 243.565 97.5205 243.448 97.0928C243.336 96.665 243.079 96.4131 242.674 96.3369L242.024 96.2314C241.93 96.1963 241.883 96.123 241.883 96.0117C241.883 95.959 241.892 95.9062 241.91 95.8535L241.936 95.7393L242.674 95.7656C242.844 95.7656 243.058 95.7715 243.316 95.7832C243.574 95.7891 243.79 95.792 243.966 95.792C244.124 95.792 244.324 95.7891 244.564 95.7832C244.81 95.7773 245.012 95.7715 245.17 95.7656L245.891 95.7393C245.92 95.8271 245.935 95.918 245.935 96.0117C245.935 96.123 245.891 96.1963 245.803 96.2314L245.267 96.3193C244.945 96.3662 244.743 96.6064 244.661 97.04C244.584 97.4678 244.546 98.1943 244.546 99.2197V104.889C244.546 105.586 244.558 106.251 244.581 106.884C244.611 107.517 244.646 107.979 244.687 108.272C244.546 108.296 244.324 108.308 244.019 108.308C243.966 108.308 243.928 108.302 243.905 108.29C243.887 108.284 243.87 108.27 243.852 108.246ZM262.018 108.035C261.972 108.018 261.848 108.009 261.649 108.009C261.45 108.009 261.169 108.006 260.806 108H255.453C254.849 108 254.363 108.009 253.994 108.026C253.625 108.044 253.426 108.053 253.396 108.053C253.373 107.959 253.361 107.868 253.361 107.78C253.361 107.722 253.37 107.678 253.388 107.648C253.405 107.613 253.437 107.587 253.484 107.569L254.135 107.464C254.404 107.417 254.554 107.244 254.583 106.945C254.618 106.641 254.636 106.184 254.636 105.574V98.2266C254.636 97.6348 254.621 97.1836 254.592 96.873C254.562 96.5566 254.41 96.3779 254.135 96.3369L253.484 96.2314C253.402 96.1963 253.361 96.123 253.361 96.0117C253.361 95.9355 253.373 95.8447 253.396 95.7393C253.59 95.7627 253.874 95.7773 254.249 95.7832C254.63 95.7891 255.025 95.792 255.435 95.792H258.309L260.12 95.8008C260.641 95.8008 260.958 95.7861 261.069 95.7568C261.181 95.833 261.23 95.874 261.219 95.8799C261.213 95.8857 261.251 96.1523 261.333 96.6797C261.421 97.207 261.506 97.6318 261.588 97.9541C261.535 97.9893 261.471 98.0156 261.394 98.0332C261.318 98.0449 261.268 98.0508 261.245 98.0508C261.169 98.0508 261.116 98.0127 261.087 97.9365L260.92 97.5234C260.744 97.1133 260.495 96.8408 260.173 96.7061C259.856 96.5654 259.229 96.4951 258.292 96.4951H256.692C256.546 96.6709 256.473 97.2305 256.473 98.1738V101.215C256.484 101.256 256.522 101.297 256.587 101.338H258.186C258.843 101.338 259.306 101.294 259.575 101.206C259.845 101.118 259.994 100.954 260.023 100.714L260.094 100.169C260.117 100.087 260.176 100.046 260.269 100.046C260.322 100.046 260.378 100.052 260.436 100.063L260.559 100.099L260.533 100.828C260.515 101.18 260.507 101.487 260.507 101.751C260.507 102.003 260.515 102.296 260.533 102.63L260.559 103.395C260.442 103.418 260.346 103.43 260.269 103.43C260.17 103.43 260.111 103.395 260.094 103.324L260.023 102.674C259.994 102.422 259.833 102.252 259.54 102.164C259.247 102.07 258.796 102.023 258.186 102.023H256.587C256.522 102.064 256.484 102.105 256.473 102.146V105.17C256.473 105.973 256.549 106.529 256.701 106.84C256.853 107.145 257.181 107.297 257.685 107.297H259.083C259.973 107.297 260.592 107.238 260.937 107.121C261.283 106.998 261.597 106.69 261.878 106.198L262.168 105.68C262.232 105.615 262.294 105.583 262.352 105.583C262.376 105.583 262.431 105.595 262.519 105.618C262.607 105.636 262.669 105.656 262.704 105.68C262.593 105.949 262.475 106.368 262.352 106.937C262.235 107.505 262.177 107.815 262.177 107.868C262.177 107.921 262.124 107.977 262.018 108.035ZM270.086 107.499L270.025 106.928C269.943 106.025 269.866 105.41 269.796 105.082C269.902 105.047 270.004 105.029 270.104 105.029C270.233 105.029 270.3 105.064 270.306 105.135C270.312 105.199 270.376 105.407 270.499 105.759C270.628 106.104 270.783 106.395 270.965 106.629C271.147 106.863 271.355 107.062 271.589 107.227C271.823 107.385 272.09 107.502 272.389 107.578C272.688 107.654 273.004 107.692 273.338 107.692C274.071 107.692 274.656 107.493 275.096 107.095C275.535 106.69 275.755 106.146 275.755 105.46C275.755 104.88 275.591 104.37 275.263 103.931C274.941 103.485 274.252 102.976 273.198 102.401C272.143 101.827 271.428 101.273 271.053 100.74C270.684 100.207 270.499 99.5742 270.499 98.8418C270.499 97.875 270.836 97.0723 271.51 96.4336C272.19 95.7949 273.136 95.4756 274.349 95.4756C274.929 95.4756 275.448 95.5166 275.905 95.5986C276.367 95.6748 276.634 95.7393 276.704 95.792C276.781 95.8447 276.819 95.9092 276.819 95.9854C276.819 96.0557 276.865 96.5068 276.959 97.3389L277.03 97.9189C276.959 97.9658 276.868 97.9893 276.757 97.9893C276.616 97.9893 276.534 97.9219 276.511 97.7871C276.493 97.6523 276.397 97.4297 276.221 97.1191C276.045 96.8027 275.787 96.5479 275.448 96.3545C275.108 96.1611 274.68 96.0645 274.164 96.0645C273.531 96.0645 273.01 96.249 272.6 96.6182C272.196 96.9873 271.993 97.4619 271.993 98.042C271.993 98.5459 272.163 99.0059 272.503 99.4219C272.843 99.832 273.558 100.342 274.648 100.951C275.743 101.555 276.496 102.126 276.906 102.665C277.323 103.204 277.531 103.825 277.531 104.528C277.531 105.653 277.1 106.567 276.239 107.271C275.383 107.974 274.352 108.325 273.145 108.325C272.559 108.325 272.02 108.267 271.528 108.149C271.041 108.038 270.602 107.868 270.209 107.64C270.192 107.628 270.151 107.581 270.086 107.499Z" fill="white"/>
<path d="M34 121.5V122H156.5H279V121.5V121H156.5H34V121.5Z" fill="white"/>
</svg>
