<svg width="314" height="136" viewBox="0 0 314 136" fill="none" xmlns="http://www.w3.org/2000/svg">
<rect width="314" height="136" fill="white"/>
<path d="M264.464 28.556C264.182 28.8753 263.196 29.7622 262.21 30.4716C260.766 31.5714 260.449 31.9971 260.378 32.9903C260.308 34.3738 249.424 66.2655 248.086 69.068C247.1 71.09 246.114 71.9414 244.317 72.2961C243.472 72.4735 243.155 72.7573 243.085 73.3959L242.979 74.2827H249.706H256.434L256.328 73.3959C256.257 72.6864 255.976 72.4735 254.849 72.2961C253.123 72.0123 252.172 70.9126 252.172 69.2453C252.172 68.5713 252.911 65.6979 253.792 62.8954L255.412 57.787L263.02 57.858L270.628 57.9644L272.847 63.8177C274.995 69.5646 275.418 71.3738 274.714 71.7995C274.537 71.9059 273.692 72.1188 272.882 72.2607C271.614 72.4735 271.368 72.6509 271.368 73.3604V74.1763L279.398 74.2118L287.429 74.2827L287.323 73.3959C287.252 72.7573 286.935 72.4735 286.161 72.3316C284.329 71.9414 283.202 70.9126 282.145 68.6423C281.018 66.2655 267.704 32.3163 266.894 29.7622C266.331 27.9884 265.345 27.4918 264.464 28.556ZM266.049 45.6548C267.704 50.231 269.078 54.0977 269.078 54.2751C269.078 54.4524 266.366 54.5943 262.914 54.5943C258.23 54.5943 256.751 54.4879 256.751 54.1686C256.751 53.9203 258.054 49.8053 259.604 45.0517C261.4 39.6241 262.562 36.5733 262.738 36.8925C262.914 37.1763 264.394 41.114 266.049 45.6548Z" fill="black"/>
<path d="M154.59 28.6979C153.251 28.8398 149.553 28.9817 146.418 29.0172L140.677 29.0527V29.9041C140.677 30.6135 140.888 30.7909 142.262 30.9683C143.143 31.1102 144.058 31.4649 144.34 31.7487C145.185 32.6001 145.291 35.3317 145.185 53.4237C145.08 73.0056 145.256 71.764 142.403 72.2607C141.1 72.4735 140.853 72.6509 140.747 73.3959L140.642 74.2827L145.326 74.2118C147.897 74.1408 153.815 74.0699 158.464 73.9989C165.72 73.857 167.305 73.7506 169.664 73.1121C176.075 71.3383 180.935 67.2588 184 61.0507C186.958 55.0555 186.782 46.7545 183.612 40.7238C182.133 37.9923 178.716 34.2319 176.11 32.5292C171.179 29.3365 162.902 27.8465 154.59 28.6979ZM164.452 31.7133C170.932 33.416 176.18 39.0565 177.836 46.1159C178.505 49.0958 178.54 55.9424 177.836 58.603C176.039 65.556 171.003 70.2741 164.311 71.3029C162.867 71.5157 160.014 71.6221 158.006 71.5512C154.413 71.4093 154.308 71.4093 153.357 70.3096C151.948 68.7487 151.877 67.4007 152.018 48.7056C152.124 31.2521 152.089 31.7133 154.167 31.4295C157.125 31.0747 162.514 31.2166 164.452 31.7133Z" fill="black"/>
<path d="M34.1148 28.9462C27 29.0527 26.9648 29.0881 27.0704 29.8331C27.1409 30.4362 27.5635 30.72 28.9372 31.0392C29.8882 31.2876 30.8744 31.7842 31.1209 32.1035C31.4731 32.6001 31.5788 36.928 31.5788 51.65V70.5934L30.6983 71.4448C30.2404 71.9414 29.4655 72.3316 28.9724 72.3316C27.5988 72.3316 27 72.6864 27 73.5377C27 74.2827 27.0352 74.2827 35.8054 74.2827H44.646L44.5403 73.3959C44.4347 72.6864 44.1881 72.4735 42.8497 72.2252C39.7502 71.6931 39.6445 71.6221 39.0458 70.2741C37.9891 67.8618 38.0596 32.7065 39.1162 31.6423C39.2571 31.5004 40.4546 31.323 41.7931 31.2521C46.3366 30.9683 49.9645 33.0613 51.6903 36.9635C52.3948 38.4889 52.5356 39.3758 52.5356 42.3556C52.5356 46.6126 51.7255 48.812 49.3657 51.0114C47.6751 52.5723 46.0196 53.1754 43.3076 53.1754C41.5465 53.1754 41.4408 53.2108 41.4408 54.0622C41.4408 55.3748 42.6032 55.6941 45.914 55.3038C50.6337 54.7717 53.6979 53.3173 56.3396 50.3729C58.5937 47.8187 59.4743 45.7257 59.6856 42.4975C60.0378 36.3959 56.9736 31.7842 51.2324 29.7976C48.6965 28.9108 45.4561 28.7334 34.1148 28.9462Z" fill="black"/>
<path d="M200.335 28.9462L193.009 29.0527L193.114 29.8686C193.185 30.4716 193.572 30.72 194.911 31.0038C195.897 31.2166 196.848 31.6778 197.13 32.068C197.904 33.1322 197.693 71.1255 196.918 71.6221C196.425 71.9769 195.897 72.1188 193.819 72.5445C193.22 72.6509 193.044 72.8992 193.114 73.4668C193.22 74.1763 193.361 74.2118 201.145 74.1763C208.788 74.1408 209.07 74.1053 209.175 73.4313C209.246 72.8992 209.034 72.6509 208.4 72.509C207.907 72.4026 207.097 72.2607 206.639 72.1542C204.702 71.764 204.667 71.5866 204.667 62.0085V53.1753H207.45H210.232L211.218 54.8427C214.388 60.4122 220.728 69.6001 223.44 72.6154L224.779 74.1408H230.132C235.239 74.1408 235.486 74.1053 235.592 73.4313C235.697 72.8637 235.415 72.6509 234.183 72.3316C231.929 71.7285 230.801 70.6643 226.716 65.5205C223.017 60.9088 216.713 51.8983 217.03 51.6499C217.1 51.579 218.086 51.0114 219.178 50.3729C222.031 48.7765 224.602 45.7966 225.307 43.3134C226.751 38.276 224.391 32.9903 219.566 30.5426C217.593 29.5138 213.191 28.6979 210.232 28.7689C208.823 28.8398 204.35 28.9108 200.335 28.9462ZM212.028 31.7487C214.635 32.5292 217.1 34.8705 218.086 37.5311C219.46 41.2204 218.685 45.7612 216.184 48.2444C214.318 50.16 213.296 50.4793 208.823 50.6212L204.667 50.7631V41.9654C204.667 37.1054 204.773 32.7775 204.878 32.3518C205.231 31.1102 208.894 30.7909 212.028 31.7487Z" fill="black"/>
<path d="M70.0959 29.9041C70.0959 30.649 70.3073 30.8264 71.6105 31.0038C73.6885 31.323 73.9703 31.5714 74.3225 33.1677C74.8509 35.3317 74.71 69.0325 74.2169 70.5579C73.8647 71.5866 73.5829 71.835 72.3853 72.1188C70.1312 72.6154 70.0959 72.6154 70.0959 73.4668V74.2827H78.0208H85.9809L85.8752 73.3959C85.7695 72.6509 85.523 72.4735 84.2198 72.2607C81.3668 71.764 81.543 73.254 81.543 51.5435C81.543 29.6912 81.2964 31.5004 84.3607 31.0038C85.7343 30.8264 85.9457 30.6845 85.9457 29.9041V29.0527H78.0208H70.0959V29.9041Z" fill="black"/>
<path d="M96.9333 29.7622C96.9333 30.5426 98.1308 31.1811 99.5749 31.1811C101.512 31.1811 101.512 31.1102 101.512 51.6145C101.512 73.0411 101.688 71.9059 98.6591 72.2961C97.3207 72.4735 97.1094 72.6509 97.0037 73.3959L96.8981 74.2827L112.853 74.1763C121.588 74.1408 128.844 74.0344 128.879 73.9634C128.95 73.8925 129.408 72.1897 129.865 70.1677C130.288 68.1456 130.746 66.23 130.816 65.9462C130.887 65.6269 130.605 65.3786 130.147 65.3077C129.619 65.2367 129.196 65.485 128.774 66.1945C126.977 69.1744 126.308 69.8839 124.794 70.6288C123.279 71.3738 122.715 71.4448 116.939 71.4448H110.705L109.789 70.5224C108.521 69.2808 108.169 66.2655 108.275 58.4611L108.38 52.2885H113.734C120.109 52.2885 120.778 52.5723 121.412 55.5167C121.729 57.0776 121.941 57.3259 122.927 57.113C123.068 57.113 123.173 54.346 123.173 51.0469C123.173 45.0872 123.173 45.0162 122.398 45.0162C121.835 45.0162 121.588 45.3 121.412 46.1514C120.814 49.2022 119.51 49.7343 112.572 49.557L108.38 49.4505V41.6461C108.38 37.3537 108.521 33.3806 108.662 32.8484L108.944 31.8197L115.002 31.9616C122.187 32.1035 122.715 32.2809 124.406 35.509C125.463 37.4601 126.343 38.0987 126.696 37.1054C126.766 36.8925 126.555 35.0124 126.202 32.9549L125.568 29.23L111.268 29.1236C97.039 29.0527 96.9333 29.0527 96.9333 29.7622Z" fill="black"/>
<path d="M106.333 90.1302C106.333 91.5491 106.41 91.6556 106.758 90.9106C107.221 90.0947 108.418 89.6335 109.653 89.8464C110.271 89.9528 110.348 90.4494 110.464 94.7419C110.541 98.9279 110.464 99.5664 109.885 99.9566C109.344 100.347 109.576 100.418 111.507 100.418C113.437 100.418 113.669 100.347 113.128 99.9566C112.549 99.5664 112.472 98.9279 112.549 94.7419L112.665 89.9528L113.707 89.8464C114.364 89.7754 115.02 89.9883 115.522 90.4494C116.603 91.4427 116.719 91.4072 116.719 89.8818C116.719 88.8531 116.603 88.6757 116.255 88.995C115.599 89.598 107.414 89.598 106.758 88.995C106.41 88.6757 106.294 88.924 106.333 90.1302Z" fill="black"/>
<path d="M30.1583 89.7754C27.3013 91.1944 26.143 94.8128 27.6874 97.5089C29.1159 99.9921 33.3242 101.376 36.6059 100.347C37.9958 99.9212 38.1503 99.7438 38.2275 98.6441C38.3433 97.5444 38.2661 97.4734 37.8414 98.0765C36.799 99.6019 36.0268 100.063 34.5211 100.063C31.5096 100.063 29.0773 97.5089 29.0773 94.3871C29.0773 90.0238 34.2122 87.8953 37.3009 90.9461L38.4591 92.0813L38.1503 90.8397C37.9958 90.1657 37.8028 89.5271 37.687 89.4207C37.5711 89.3143 36.1812 89.2078 34.5597 89.1369C32.2046 89.0659 31.3166 89.2078 30.1583 89.7754Z" fill="black"/>
<path d="M50.4664 89.74C45.9492 92.3296 46.5669 98.3957 51.5474 100.24C54.5589 101.34 57.9179 100.169 59.385 97.5444C60.6977 95.2385 59.7325 91.5846 57.3387 89.9528C55.833 88.924 52.0494 88.8176 50.4664 89.74ZM56.3735 90.9816C59.5008 94.0678 57.9179 100.063 53.9412 100.063C50.505 100.063 48.3043 95.0611 50.2348 91.5492C51.5474 89.1014 54.2114 88.8531 56.3735 90.9816Z" fill="black"/>
<path d="M68.4581 89.3497C68.4581 89.4916 68.8442 89.7754 69.3461 89.9528C70.1568 90.2721 70.1955 90.5204 70.3113 94.6354C70.3885 98.6086 70.3499 99.0343 69.6163 99.7083L68.8442 100.418L71.0834 100.382C72.7822 100.382 73.0911 100.311 72.4347 100.063C71.3151 99.6373 71.1221 98.7859 71.2379 94.8128L71.3537 91.5491L75.6006 96.1608C77.9558 98.6795 80.0406 100.773 80.2337 100.773C80.4653 100.773 80.5811 98.8924 80.5039 95.6642C80.3881 90.7687 80.4267 90.5204 81.2375 89.8109L82.1255 89.0659H79.8476H77.6083L78.6507 89.9528C79.6159 90.7687 79.6545 90.9815 79.6545 94.2807C79.6545 98.2893 80.2337 98.5022 74.8671 92.6843C71.624 89.2433 71.3923 89.0659 69.9638 89.0659C69.153 89.0659 68.4581 89.1723 68.4581 89.3497Z" fill="black"/>
<path d="M92.5111 89.8464C91.3529 91.0525 91.1984 91.7975 91.7776 93.1455C92.125 93.8905 92.9744 94.6709 94.0941 95.274C96.7194 96.693 97.3758 98.2893 95.9087 99.4955C94.7118 100.489 92.7814 100.134 91.7389 98.6796L90.851 97.4734V98.7505C90.851 99.9566 90.9668 100.063 92.3953 100.453C95.4068 101.305 98.3024 99.7083 98.3024 97.1896C98.3024 96.0899 97.1055 94.6355 95.484 93.855C94.0941 93.181 92.7814 91.9749 92.7814 91.3718C92.7814 90.5914 94.2099 89.4207 95.0979 89.4207C95.5612 89.4207 96.3334 89.8109 96.8353 90.3076L97.8005 91.159V90.1302C97.8005 89.066 97.8005 89.066 95.5612 89.066C93.708 89.066 93.1675 89.2079 92.5111 89.8464Z" fill="black"/>
<path d="M124.826 89.4207C124.826 89.598 125.097 89.7754 125.406 89.7754C125.908 89.7754 125.985 90.5559 125.985 94.7419C125.985 99.0698 125.908 99.7083 125.328 100.028C124.788 100.311 125.174 100.382 126.95 100.382C128.996 100.382 129.189 100.347 128.572 99.9211C127.992 99.5309 127.915 99.0343 127.992 97.367C128.147 94.4935 128.88 94.6 131.39 97.8281C133.282 100.347 133.398 100.418 134.942 100.418C136.563 100.418 136.563 100.418 135.675 99.8502C135.212 99.5309 134.015 98.3248 133.089 97.1541L131.39 95.0257L132.548 94.0324C134.286 92.5424 134.093 90.5204 132.123 89.598C130.888 88.995 124.826 88.8531 124.826 89.4207ZM131.004 90.4849C131.776 91.1944 132.008 92.7908 131.467 93.6067C131.081 94.1033 128.726 94.8128 128.263 94.529C128.07 94.4226 127.915 93.3229 127.915 92.0458V89.7754H129.073C129.73 89.7754 130.579 90.0947 131.004 90.4849Z" fill="black"/>
<path d="M144.903 89.3852C144.903 89.5626 145.173 89.7755 145.482 89.9174C145.945 90.0593 146.061 90.8752 146.061 94.2098C146.061 98.2894 146.061 98.3603 147.142 99.3536C148.494 100.595 150.617 101.021 152.663 100.453C155.018 99.8148 155.443 98.857 155.636 94.1388C155.752 91.1235 155.945 90.0238 156.331 89.8819C157.528 89.4562 156.717 89.066 154.671 89.066H152.432L153.513 89.8819L154.632 90.6978L154.478 94.5291C154.362 98.2539 154.323 98.3603 153.242 99.2472C152.316 99.9567 151.852 100.099 150.733 99.9212C148.378 99.6019 147.992 98.786 147.992 94.1034C147.992 90.6269 148.107 89.9528 148.687 89.5626C149.266 89.1369 149.034 89.1015 147.142 89.066C145.907 89.066 144.903 89.2079 144.903 89.3852Z" fill="black"/>
<path d="M169.033 89.7399C166.524 91.1589 165.944 92.1167 165.944 94.6709C165.944 96.622 166.099 97.2605 166.871 98.1829C168.184 99.7792 170.153 100.595 172.701 100.595C176.06 100.595 176.832 100.276 177.025 98.8214C177.102 98.1474 177.025 97.5798 176.871 97.5798C176.716 97.5798 176.562 97.7572 176.562 97.9346C176.562 98.8569 174.631 100.063 173.203 100.063C169.149 100.063 166.408 95.4513 168.377 91.9394C169.883 89.2078 173.859 88.6757 175.905 90.8751L176.948 92.0458V90.9106C176.948 89.9883 176.755 89.669 175.944 89.4207C174.245 88.8176 170.307 88.995 169.033 89.7399Z" fill="black"/>
<path d="M189.303 89.8109C187.179 90.9461 186.214 92.507 186.214 94.7773C186.214 98.9988 190.384 101.553 195.441 100.418C197.372 99.9921 197.411 99.9566 197.411 98.715L197.372 97.4024L196.793 98.3603C195.133 101.234 190.5 100.418 188.839 96.9768C187.411 94.0324 188.415 90.9461 191.156 89.8818C193.164 89.1014 195.055 89.4916 196.368 90.9106L197.411 92.0458V90.9106C197.411 89.4916 196.445 89.0659 193.048 89.0659C191.349 89.0659 190.268 89.2788 189.303 89.8109Z" fill="black"/>
<path d="M205.904 89.4207C205.904 89.5981 206.175 89.7754 206.483 89.7754C206.985 89.7754 207.063 90.5559 207.063 94.7419C207.063 99.0698 206.985 99.7083 206.406 100.028C205.866 100.311 206.252 100.382 208.028 100.382C209.804 100.382 210.19 100.311 209.688 100.028C209.07 99.7083 208.993 99.0698 208.993 94.7419C208.993 90.5559 209.07 89.7754 209.572 89.7754C209.881 89.7754 210.151 89.5981 210.151 89.4207C210.151 89.2078 209.186 89.0659 208.028 89.0659C206.87 89.0659 205.904 89.2078 205.904 89.4207Z" fill="black"/>
<path d="M221.502 89.74C216.946 92.3651 217.641 98.4667 222.699 100.24C225.595 101.269 228.992 100.099 230.421 97.5798C231.734 95.2385 230.768 91.5846 228.375 89.9528C226.869 88.9241 223.085 88.8176 221.502 89.74ZM227.409 90.9816C230.498 94.0324 228.954 100.063 225.093 100.063C223.317 100.063 221.502 98.6796 220.962 96.9413C219.263 91.2654 223.626 87.2567 227.409 90.9816Z" fill="black"/>
<path d="M239.687 89.4207C239.803 89.598 240.15 89.7754 240.459 89.7754C241.27 89.7754 241.424 90.6268 241.424 95.0966C241.424 99.0343 241.386 99.3535 240.575 99.8502C239.764 100.382 239.803 100.418 242.003 100.382C243.934 100.382 244.165 100.311 243.471 99.9921C242.428 99.5309 242.081 97.8636 242.274 94.0678L242.389 91.4427L246.752 96.1254C249.146 98.6795 251.269 100.773 251.501 100.773C251.771 100.773 251.81 99.6373 251.656 97.2605C251.308 93.0036 251.656 89.7754 252.466 89.7754C252.775 89.7754 253.007 89.598 253.007 89.4207C253.007 89.2078 252.157 89.0659 251.076 89.0659C250.034 89.0659 249.146 89.2078 249.146 89.4207C249.146 89.598 249.416 89.7754 249.725 89.7754C250.536 89.7754 250.729 90.9106 250.613 94.4581L250.497 97.5443L246.636 93.3229C242.814 89.1369 242.776 89.1014 241.115 89.0659C240.112 89.0659 239.532 89.2078 239.687 89.4207Z" fill="black"/>
<path d="M262.196 89.669C263.006 90.2011 263.045 90.4495 263.045 94.8483C263.045 98.8215 262.968 99.5309 262.389 99.9212C261.81 100.347 262.35 100.382 266.095 100.311L270.535 100.24L270.805 99.2472C271.153 98.112 270.805 98.0055 269.879 99.0343C269.338 99.6019 268.836 99.7083 267.176 99.6374L265.169 99.5309L265.053 97.0832L264.937 94.6709L266.404 94.8838C267.215 95.0257 268.103 95.4159 268.373 95.7352C268.759 96.1963 268.836 96.019 268.798 94.529C268.798 93.5712 268.682 93.0391 268.566 93.3229C268.219 94.1033 267.639 94.3871 266.25 94.3871H264.975V92.0813V89.7754H266.52C267.562 89.7754 268.334 90.0238 268.875 90.5204C269.84 91.4073 269.995 91.3363 269.724 90.0238L269.531 89.066L265.4 89.1014C261.578 89.1014 261.346 89.1369 262.196 89.669Z" fill="black"/>
<path d="M280.998 89.9529C280.342 90.5204 280.033 91.1945 280.033 92.0104C280.033 93.3584 280.573 93.9615 283.43 95.8062C284.704 96.6575 285.052 97.0832 285.052 97.8992C285.052 100.56 281.075 100.879 279.956 98.3603C279.376 97.1187 279.068 98.1475 279.608 99.46C280.38 101.269 284.28 101.163 286.017 99.2827C287.677 97.4735 287.214 95.6997 284.782 94.3517C282.542 93.1456 281.577 92.2232 281.577 91.3364C281.577 89.1015 285.09 88.7467 285.94 90.9107C286.249 91.7266 286.519 91.0526 286.326 90.0238C286.133 89.1369 286.017 89.066 284.009 89.066C282.311 89.066 281.77 89.2434 280.998 89.9529Z" fill="black"/>
<path d="M27 107.75V108.5H157H287V107.75V107H157H27V107.75Z" fill="black"/>
<path d="M27 82.25V83H157H287V82.25V81.5H157H27V82.25Z" fill="black"/>
</svg>
