<svg width="151" height="151" viewBox="0 0 151 151" fill="none" xmlns="http://www.w3.org/2000/svg">
<rect width="151" height="151" fill="black"/>
<path d="M50.0091 11.957C30 12.2563 29.9009 12.3561 30.1981 14.4512C30.3962 16.1472 31.5849 16.9454 35.448 17.8433C38.1225 18.5416 40.8961 19.9383 41.5894 20.8362C42.58 22.233 42.8772 34.4045 42.8772 75.8076V129.083L40.4008 131.477C39.1131 132.874 36.9339 133.972 35.5471 133.972C31.6839 133.972 30 134.969 30 137.364C30 139.459 30.0991 139.459 54.7638 139.459H79.6266L79.3294 136.965C79.0323 134.969 78.3389 134.371 74.5748 133.672C65.8579 132.176 65.5608 131.976 63.8768 128.185C60.9052 121.401 61.1033 22.5323 64.075 19.5393C64.4712 19.1402 67.839 18.6414 71.6031 18.4419C84.3812 17.6437 94.5839 23.5299 99.4376 34.5043C101.419 38.7942 101.815 41.2884 101.815 49.6688C101.815 61.6408 99.5367 67.8263 92.9 74.0118C88.1453 78.4015 83.4897 80.0976 75.8625 80.0976C70.9098 80.0976 70.6126 80.1973 70.6126 82.5917C70.6126 86.2831 73.8814 87.181 83.1926 86.0836C96.466 84.5871 105.084 80.4966 112.513 72.216C118.852 65.0328 121.329 59.1466 121.923 50.0678C122.914 32.908 114.296 19.9383 98.1499 14.3514C91.0179 11.8573 81.9049 11.3584 50.0091 11.957Z" fill="white"/>
</svg>
