<svg width="151" height="151" viewBox="0 0 151 151" fill="none" xmlns="http://www.w3.org/2000/svg">
<rect width="151" height="151" fill="black"/>
<path d="M65.8711 134.249C61.6654 134.083 57.7917 134 54.25 134C51.2064 134 46.4196 134.111 39.8896 134.332L33.166 134.498C32.9447 133.613 32.834 132.755 32.834 131.925C32.834 131.371 32.917 130.956 33.083 130.68C33.249 130.348 33.5534 130.099 33.9961 129.933L40.1387 128.937C42.6842 128.494 44.0954 126.861 44.3721 124.039C44.7041 121.161 44.8701 116.845 44.8701 111.09V41.6953C44.8701 36.1061 44.7318 31.8451 44.4551 28.9121C44.1784 25.9792 42.7396 24.2913 40.1387 23.8486L33.9961 22.8525C33.2214 22.6865 32.834 22.0501 32.834 20.9434C32.834 20.1133 32.9447 19.2002 33.166 18.2041L39.8066 18.4531C40.9134 18.4531 42.5459 18.5085 44.7041 18.6191C46.8623 18.6745 48.8545 18.7021 50.6807 18.7021C53.7243 18.7021 58.4281 18.5085 64.792 18.1211C71.2113 17.7337 75.749 17.54 78.4053 17.54C90.1924 17.54 99.6829 20.473 106.877 26.3389C114.071 32.2048 117.668 40.4502 117.668 51.0752C117.668 60.6488 113.822 68.9219 106.13 75.8945C98.4378 82.8118 88.3385 86.2705 75.832 86.2705C73.5632 86.2705 72.0413 86.0492 71.2666 85.6064C70.4919 85.1637 70.1045 84.4167 70.1045 83.3652C70.1045 82.2031 70.2705 81.124 70.6025 80.1279C72.5947 80.3493 74.2272 80.46 75.5 80.46C82.8047 80.46 88.5876 77.9421 92.8486 72.9062C97.165 67.8704 99.3232 61.0915 99.3232 52.5693C99.3232 43.5492 96.916 36.4935 92.1016 31.4023C87.3424 26.2559 80.7848 23.6826 72.4287 23.6826C69.2744 23.6826 66.5628 24.07 64.2939 24.8447C63.0212 26.3942 62.3848 31.7897 62.3848 41.0312V110.011C62.3848 116.375 62.7998 120.94 63.6299 123.707C64.46 126.474 66.3691 128.079 69.3574 128.521L77.4092 129.767C78.1839 129.933 78.5713 130.597 78.5713 131.759C78.5713 132.423 78.516 133.004 78.4053 133.502L78.0732 134.498C75.6937 134.498 73.4525 134.47 71.3496 134.415L65.8711 134.249Z" fill="white"/>
</svg>
