<svg width="26" height="27" viewBox="0 0 26 27" fill="none" xmlns="http://www.w3.org/2000/svg">
<path d="M21.6202 6.06047C21.4502 5.96978 21.2846 5.87035 21.1242 5.76257C20.6576 5.44433 20.2299 5.06935 19.8501 4.64571C18.9 3.52397 18.5451 2.38599 18.4144 1.58924H18.4196C18.3104 0.927895 18.3556 0.5 18.3624 0.5H14.0347V17.7664C14.0347 17.9982 14.0347 18.2273 14.0253 18.4537C14.0253 18.4819 14.0227 18.5079 14.0211 18.5382C14.0211 18.5507 14.0211 18.5637 14.0185 18.5767C14.0185 18.5799 14.0185 18.5832 14.0185 18.5864C13.9729 19.2059 13.7804 19.8044 13.458 20.3292C13.1356 20.8539 12.6932 21.2889 12.1696 21.5958C11.6239 21.9161 11.0068 22.0841 10.379 22.0833C8.36268 22.0833 6.72852 20.3868 6.72852 18.2918C6.72852 16.1967 8.36268 14.5003 10.379 14.5003C10.7607 14.4999 11.14 14.5619 11.5029 14.6839L11.5082 10.1374C10.4065 9.99056 9.28728 10.0809 8.22114 10.4027C7.15499 10.7245 6.16506 11.2708 5.31378 12.0071C4.56786 12.6758 3.94077 13.4737 3.46071 14.3649C3.27803 14.6899 2.58877 15.9958 2.50531 18.1152C2.45281 19.3182 2.80295 20.5645 2.96989 21.0796V21.0904C3.07488 21.3937 3.48171 22.4288 4.14472 23.3014C4.67935 24.0013 5.31099 24.6162 6.01931 25.1262V25.1154L6.02981 25.1262C8.12488 26.5951 10.4478 26.4987 10.4478 26.4987C10.8499 26.4819 12.1969 26.4987 13.7266 25.7507C15.4232 24.9214 16.3891 23.686 16.3891 23.686C17.0062 22.9478 17.4969 22.1065 17.8401 21.1982C18.2317 20.1361 18.3624 18.8621 18.3624 18.353V9.19277C18.4149 9.22527 19.1141 9.70246 19.1141 9.70246C19.1141 9.70246 20.1215 10.3687 21.6932 10.8025C22.8208 11.1113 24.34 11.1763 24.34 11.1763V6.74348C23.8077 6.80306 22.7268 6.62974 21.6202 6.06047Z" fill="#F2F2F2"/>
</svg>
