<svg width="26" height="26" viewBox="0 0 26 26" fill="none" xmlns="http://www.w3.org/2000/svg">
<path d="M18.9562 15.5805C18.633 15.4191 17.0427 14.6413 16.7466 14.5329C16.4494 14.4257 16.2339 14.3726 16.0173 14.6954C15.8029 15.0172 15.1824 15.7419 14.9941 15.9564C14.8058 16.172 14.6164 16.198 14.2931 16.0377C13.9698 15.8752 12.927 15.5361 11.6916 14.4398C10.7304 13.5861 10.0806 12.532 9.8923 12.2092C9.70399 11.8874 9.8727 11.713 10.0338 11.5527C10.1797 11.4086 10.3582 11.1768 10.5193 10.9894C10.6815 10.8009 10.7348 10.6665 10.8436 10.4509C10.9514 10.2364 10.8981 10.049 10.8164 9.88761C10.7348 9.72619 10.0882 8.14128 9.81937 7.4967C9.55595 6.86945 9.28927 6.95503 9.09116 6.9442C8.90285 6.93553 8.68733 6.93337 8.47071 6.93337C8.25519 6.93337 7.90469 7.01353 7.60862 7.33637C7.31255 7.65811 6.47658 8.43703 6.47658 10.0219C6.47658 11.6058 7.63583 13.1365 7.79693 13.3521C7.95912 13.5666 10.0784 16.8188 13.3233 18.213C14.095 18.5445 14.6969 18.7428 15.1672 18.8901C15.9422 19.136 16.6475 19.1013 17.2038 19.0179C17.8253 18.9258 19.1173 18.239 19.3873 17.4872C19.6572 16.7353 19.6572 16.0908 19.5756 15.9564C19.4951 15.8221 19.2806 15.7419 18.9562 15.5805ZM13.0544 23.6004H13.05C11.1231 23.6006 9.23166 23.085 7.57379 22.1076L7.18084 21.8758L3.10876 22.9396L4.19508 18.9876L3.93928 18.5824C2.86215 16.8754 2.29232 14.8998 2.29565 12.8841C2.29674 6.97995 7.12424 2.17646 13.0587 2.17646C15.9324 2.17646 18.634 3.29229 20.6652 5.31595C21.6673 6.30895 22.4617 7.4899 23.0022 8.79046C23.5427 10.091 23.8187 11.4854 23.8142 12.8928C23.811 18.7969 18.9845 23.6004 13.0544 23.6004ZM22.2119 3.7787C21.0126 2.57721 19.5856 1.62454 18.0137 0.97591C16.4417 0.32728 14.7561 -0.00441593 13.0544 4.43923e-05C5.91927 4.43923e-05 0.112116 5.77962 0.10885 12.883C0.10885 15.1537 0.70426 17.3702 1.83739 19.3234L0 26L6.863 24.2082C8.7609 25.2372 10.8877 25.7766 13.0489 25.7768H13.0544C20.1884 25.7768 25.9967 19.9973 25.9999 12.8928C26.0055 11.2 25.6737 9.52288 25.0239 7.95848C24.3741 6.39409 23.4191 4.97344 22.2141 3.7787" fill="#F2F2F2"/>
</svg>
