<svg width="27" height="27" viewBox="0 0 27 27" fill="none" xmlns="http://www.w3.org/2000/svg">
<path d="M26.2694 7.03261C26.059 6.24728 25.4356 5.63904 24.6256 5.43116C22.6641 5 13.5 5 13.5 5C13.5 5 4.33588 5 2.37441 5.43116C1.56441 5.63904 0.941029 6.24728 0.730588 7.03261C0.333529 8.56861 0 10.8091 0 13.4961C0 13.5 0 13.5 0 13.5038C0 16.187 0.333529 18.4314 0.730588 19.9674C0.941029 20.7527 1.56441 21.361 2.37441 21.5688C4.33588 22 13.5 22 13.5 22C13.5 22 22.6641 22 24.6256 21.5688C25.4356 21.361 26.059 20.7527 26.2694 19.9674C26.6665 18.4314 27 16.187 27 13.5038C27 13.5 27 13.5 27 13.4961C27 10.8091 26.6665 8.56861 26.2694 7.03261Z" fill="#F2F2F2"/>
<path d="M11 10L17 13.5L11 17V10Z" fill="black"/>
</svg>
