<svg width="60" height="60" viewBox="0 0 60 60" fill="none" xmlns="http://www.w3.org/2000/svg">
<path d="M7.27982 0.0827858C8.07124 0.295862 7.61465 -0.136378 18.3354 10.5722C26.3836 18.6204 28.4413 20.7086 28.5144 20.9034C28.697 21.4026 31.1626 30.1326 31.1626 30.2787C31.1626 30.6866 30.6878 31.1615 30.286 31.1615C30.079 31.1615 21.1602 28.6228 20.8436 28.4767C20.6732 28.3976 17.544 25.3049 10.5429 18.3038C-0.183935 7.5648 0.297009 8.0701 0.0839326 7.25432C-0.0804404 6.63336 -0.00129784 5.93934 0.303097 5.33055C0.479645 4.97745 4.89945 0.545466 5.28908 0.332389C5.88569 0.00973115 6.64668 -0.0876751 7.27982 0.0827858ZM6.24488 1.90307C6.1353 1.95177 5.13079 2.91366 3.96801 4.07644C1.7581 6.30461 1.7581 6.30461 1.84942 6.79773C1.87986 6.98645 2.07467 7.20562 2.9635 8.10663L4.04106 9.18418L6.61015 6.61509L9.18533 4.03991L8.16256 3.01715C7.60248 2.45098 7.06065 1.95177 6.96325 1.90307C6.72582 1.79957 6.48839 1.79957 6.24488 1.90307ZM7.87643 7.90573L5.31952 10.4626L13.2642 18.4073L21.2089 26.352L23.778 23.7829L26.3532 21.2078L18.4267 13.2813C14.0617 8.91632 10.482 5.34881 10.4638 5.34881C10.4455 5.34881 9.28273 6.49942 7.87643 7.90573ZM25.0747 25.104C23.9241 26.2546 22.9927 27.2104 23.0048 27.2226C23.0535 27.2591 28.8675 28.9089 28.8918 28.8907C28.9162 28.8602 27.242 23.0037 27.2055 23.0037C27.1872 23.0037 26.2314 23.9473 25.0747 25.104Z" fill="black"/>
<path d="M21 37H50.1291M29.5346 43.8648H50.1291" stroke="black" stroke-width="2" stroke-linecap="round"/>
<path d="M18 6C22.0189 3.76993 26.0781 3 31 3C46.464 3 59 15.536 59 31C59 46.464 46.464 59 31 59C25.2679 59 19.9381 57.2776 15.5 54.3221C15.5 54.3221 7.30583 56.5 3 57.5C3.80583 54.5 6.46349 44.5 6.46349 44.5C4.25608 40.4965 3.00001 35.8949 3.00001 31C3.00001 25.9 3.61762 22.1184 6 18" stroke="black" stroke-width="2" stroke-linecap="round"/>
</svg>
