<svg width="40" height="40" viewBox="0 0 40 40" fill="none" xmlns="http://www.w3.org/2000/svg">
<path d="M11.9477 15.1825C15.3689 20.9668 19.1322 25.0498 24.9481 28.112L28.7114 24.3693C29.7832 23.3224 31.4029 22.9821 32.4747 24.029L37.9486 29.473C39.0204 30.5199 39.317 32.195 38.6328 33.2158C37.6138 34.7359 34.1279 39 31.4483 39C19.1322 39 1.34212 21.6473 1 8.71781C1 6.10051 3.45223 4.53013 6.13174 1.91282C7.20355 0.865901 9.03854 0.630348 10.1103 1.67727L15.4694 6.91187C16.5412 7.9588 17.1249 10.0526 16.0531 11.0996L11.9477 15.1825Z" stroke="black" stroke-width="2" stroke-linecap="round" stroke-linejoin="round"/>
</svg>
