<svg width="314" height="151" viewBox="0 0 314 151" fill="none" xmlns="http://www.w3.org/2000/svg">
<rect width="314" height="151" fill="white"/>
<path d="M47.375 70.0879C45.8906 70.0293 44.5234 70 43.2734 70C42.1992 70 40.5098 70.0391 38.2051 70.1172L35.832 70.1758C35.7539 69.8633 35.7148 69.5605 35.7148 69.2676C35.7148 69.0723 35.7441 68.9258 35.8027 68.8281C35.8613 68.7109 35.9688 68.623 36.125 68.5645L38.293 68.2129C39.1914 68.0566 39.6895 67.4805 39.7871 66.4844C39.9043 65.4688 39.9629 63.9453 39.9629 61.9141V37.4219C39.9629 35.4492 39.9141 33.9453 39.8164 32.9102C39.7188 31.875 39.2109 31.2793 38.293 31.123L36.125 30.7715C35.8516 30.7129 35.7148 30.4883 35.7148 30.0977C35.7148 29.8047 35.7539 29.4824 35.832 29.1309L38.1758 29.2188C38.5664 29.2188 39.1426 29.2383 39.9043 29.2773C40.666 29.2969 41.3691 29.3066 42.0137 29.3066C43.0879 29.3066 44.748 29.2383 46.9941 29.1016C49.2598 28.9648 50.8613 28.8965 51.7988 28.8965C55.959 28.8965 59.3086 29.9316 61.8477 32.002C64.3867 34.0723 65.6562 36.9824 65.6562 40.7324C65.6562 44.1113 64.2988 47.0312 61.584 49.4922C58.8691 51.9336 55.3047 53.1543 50.8906 53.1543C50.0898 53.1543 49.5527 53.0762 49.2793 52.9199C49.0059 52.7637 48.8691 52.5 48.8691 52.1289C48.8691 51.7188 48.9277 51.3379 49.0449 50.9863C49.748 51.0645 50.3242 51.1035 50.7734 51.1035C53.3516 51.1035 55.3926 50.2148 56.8965 48.4375C58.4199 46.6602 59.1816 44.2676 59.1816 41.2598C59.1816 38.0762 58.332 35.5859 56.6328 33.7891C54.9531 31.9727 52.6387 31.0645 49.6895 31.0645C48.5762 31.0645 47.6191 31.2012 46.8184 31.4746C46.3691 32.0215 46.1445 33.9258 46.1445 37.1875V61.5332C46.1445 63.7793 46.291 65.3906 46.584 66.3672C46.877 67.3438 47.5508 67.9102 48.6055 68.0664L51.4473 68.5059C51.7207 68.5645 51.8574 68.7988 51.8574 69.209C51.8574 69.4434 51.8379 69.6484 51.7988 69.8242L51.6816 70.1758C50.8418 70.1758 50.0508 70.166 49.3086 70.1465L47.375 70.0879ZM77.0621 68.5645L79.2008 68.2129C80.1383 68.0371 80.6559 67.4219 80.7535 66.3672C80.8512 65.293 80.9 63.8086 80.9 61.9141V37.4219C80.9 35.5859 80.8512 34.1113 80.7535 32.998C80.6754 31.8848 80.1578 31.2598 79.2008 31.123L77.0621 30.7715C76.9059 30.7129 76.7887 30.6348 76.7105 30.5371C76.652 30.4199 76.6227 30.2539 76.6227 30.0391C76.6227 29.7852 76.6617 29.4824 76.7398 29.1309L81.1637 29.2773C81.9254 29.2773 82.8141 29.2871 83.8297 29.3066C84.9039 29.3066 86.5738 29.2676 88.8395 29.1895L91.2125 29.1309C91.2906 29.4824 91.3297 29.7852 91.3297 30.0391C91.3297 30.4102 91.193 30.6543 90.9195 30.7715L88.7516 31.123C87.8336 31.2598 87.3258 31.8555 87.2281 32.9102C87.1305 33.9453 87.0816 35.4492 87.0816 37.4219V61.9141C87.0816 63.9453 87.1305 65.4688 87.2281 66.4844C87.3453 67.4805 87.8531 68.0566 88.7516 68.2129L90.9195 68.5645C91.0758 68.623 91.1832 68.7109 91.2418 68.8281C91.3004 68.9258 91.3297 69.0723 91.3297 69.2676C91.3297 69.5605 91.2906 69.8633 91.2125 70.1758L86.818 70.0293C86.0367 70.0293 85.1383 70.0195 84.1227 70C83.0875 70 81.4176 70.0391 79.1129 70.1172L76.7398 70.1758C76.6617 69.8633 76.6227 69.5605 76.6227 69.2676C76.6227 69.0723 76.652 68.9258 76.7105 68.8281C76.7887 68.7109 76.9059 68.623 77.0621 68.5645ZM130.978 70.1172C130.821 70.0586 130.411 70.0293 129.747 70.0293C129.083 70.0293 128.146 70.0195 126.935 70H109.093C107.081 70 105.46 70.0293 104.23 70.0879C102.999 70.1465 102.335 70.1758 102.238 70.1758C102.159 69.8633 102.12 69.5605 102.12 69.2676C102.12 69.0723 102.15 68.9258 102.208 68.8281C102.267 68.7109 102.374 68.623 102.53 68.5645L104.698 68.2129C105.597 68.0566 106.095 67.4805 106.193 66.4844C106.31 65.4688 106.368 63.9453 106.368 61.9141V37.4219C106.368 35.4492 106.32 33.9453 106.222 32.9102C106.124 31.8555 105.616 31.2598 104.698 31.123L102.53 30.7715C102.257 30.6543 102.12 30.4102 102.12 30.0391C102.12 29.7852 102.159 29.4824 102.238 29.1309C102.882 29.209 103.829 29.2578 105.079 29.2773C106.349 29.2969 107.667 29.3066 109.034 29.3066H118.614L124.65 29.3359C126.388 29.3359 127.443 29.2871 127.814 29.1895C128.185 29.4434 128.351 29.5801 128.312 29.5996C128.292 29.6191 128.419 30.5078 128.693 32.2656C128.986 34.0234 129.269 35.4395 129.542 36.5137C129.366 36.6309 129.152 36.7188 128.898 36.7773C128.644 36.8164 128.478 36.8359 128.4 36.8359C128.146 36.8359 127.97 36.709 127.872 36.4551L127.316 35.0781C126.73 33.7109 125.9 32.8027 124.825 32.3535C123.771 31.8848 121.681 31.6504 118.556 31.6504H113.224C112.736 32.2363 112.491 34.1016 112.491 37.2461V47.3828C112.53 47.5195 112.657 47.6562 112.872 47.793H118.204C120.392 47.793 121.935 47.6465 122.833 47.3535C123.732 47.0605 124.23 46.5137 124.327 45.7129L124.562 43.8965C124.64 43.623 124.835 43.4863 125.148 43.4863C125.323 43.4863 125.509 43.5059 125.704 43.5449L126.114 43.6621L126.027 46.0938C125.968 47.2656 125.939 48.291 125.939 49.1699C125.939 50.0098 125.968 50.9863 126.027 52.0996L126.114 54.6484C125.724 54.7266 125.402 54.7656 125.148 54.7656C124.816 54.7656 124.62 54.6484 124.562 54.4141L124.327 52.2461C124.23 51.4062 123.693 50.8398 122.716 50.5469C121.739 50.2344 120.236 50.0781 118.204 50.0781H112.872C112.657 50.2148 112.53 50.3516 112.491 50.4883V60.5664C112.491 63.2422 112.745 65.0977 113.253 66.1328C113.761 67.1484 114.855 67.6562 116.534 67.6562H121.193C124.161 67.6562 126.222 67.4609 127.374 67.0703C128.527 66.6602 129.571 65.6348 130.509 63.9941L131.476 62.2656C131.691 62.0508 131.896 61.9434 132.091 61.9434C132.169 61.9434 132.355 61.9824 132.648 62.0605C132.941 62.1191 133.146 62.1875 133.263 62.2656C132.892 63.1641 132.501 64.5605 132.091 66.4551C131.7 68.3496 131.505 69.3848 131.505 69.5605C131.505 69.7363 131.329 69.9219 130.978 70.1172ZM161.925 70H149.766C147.579 70 145.655 70.0488 143.995 70.1465L142.852 70.1758C142.774 69.8633 142.735 69.5605 142.735 69.2676C142.735 69.0723 142.764 68.9258 142.823 68.8281C142.882 68.7109 142.989 68.623 143.145 68.5645L145.313 68.2129C146.212 68.0566 146.71 67.4805 146.807 66.4844C146.925 65.4688 146.983 63.9453 146.983 61.9141V37.4219C146.983 35.4492 146.934 33.9453 146.837 32.9102C146.739 31.875 146.231 31.2598 145.313 31.0645L143.145 30.7129C142.872 30.6543 142.735 30.4297 142.735 30.0391C142.735 29.7852 142.774 29.4824 142.852 29.1309C143.809 29.248 145.831 29.3066 148.917 29.3066C150.518 29.3066 152.423 29.1895 154.63 28.9551C156.837 28.7207 158.575 28.6035 159.845 28.6035C167.95 28.6035 174.073 30.625 178.214 34.668C182.354 38.7109 184.425 43.6523 184.425 49.4922C184.425 54.8633 182.471 59.6289 178.565 63.7891C174.659 67.9297 169.112 70 161.925 70ZM153.839 31.6504C153.624 32.0605 153.458 32.6562 153.341 33.4375C153.223 34.2188 153.165 35.4688 153.165 37.1875V60.5664C153.165 63.2422 153.419 65.0977 153.927 66.1328C154.434 67.1484 155.528 67.6562 157.208 67.6562H162.13C166.563 67.6562 170.216 66.1133 173.087 63.0273C175.977 59.9219 177.423 55.7617 177.423 50.5469C177.423 44.668 175.792 39.9414 172.53 36.3672C169.268 32.793 165.02 31.0059 159.786 31.0059C158.751 31.0059 157.696 31.0645 156.622 31.1816C155.567 31.2988 154.639 31.4551 153.839 31.6504ZM229.58 70.0293C229.17 70.0293 228.77 70.0195 228.379 70C227.305 70 226.338 70.0098 225.479 70.0293C224.62 70.0488 223.907 70.0977 223.34 70.1758C221.504 68.3398 219.483 65.8203 217.276 62.6172C215.069 59.3945 212.696 55.6738 210.157 51.4551L209.981 51.2793C209.903 51.2012 209.815 51.1426 209.717 51.1035H205.118C204.903 51.2402 204.776 51.377 204.737 51.5137V61.9141C204.737 63.8086 204.786 65.293 204.883 66.3672C204.981 67.4219 205.498 68.0371 206.436 68.2129L208.575 68.5645C208.731 68.623 208.838 68.7109 208.897 68.8281C208.975 68.9258 209.014 69.0723 209.014 69.2676C209.014 69.5605 208.975 69.8633 208.897 70.1758L204.502 70.0293C203.721 70.0293 202.823 70.0195 201.807 70C200.772 70 199.102 70.0391 196.797 70.1172L194.424 70.1758C194.346 69.8633 194.307 69.5605 194.307 69.2676C194.307 69.0723 194.336 68.9258 194.395 68.8281C194.454 68.7109 194.561 68.623 194.717 68.5645L196.885 68.2129C197.784 68.0566 198.282 67.4805 198.379 66.4844C198.496 65.4688 198.555 63.9453 198.555 61.9141V37.4219C198.555 35.4492 198.506 33.9453 198.409 32.9102C198.311 31.8555 197.803 31.2598 196.885 31.123L194.717 30.7715C194.444 30.6543 194.307 30.4102 194.307 30.0391C194.307 29.7852 194.346 29.4824 194.424 29.1309L196.914 29.2188C197.461 29.2188 198.135 29.2383 198.936 29.2773C199.737 29.2969 200.411 29.3066 200.957 29.3066C202.032 29.3066 203.643 29.2383 205.791 29.1016C207.94 28.9648 209.473 28.8965 210.391 28.8965C214.629 28.8965 217.979 29.8437 220.44 31.7383C222.901 33.6133 224.131 36.2109 224.131 39.5312C224.131 41.7969 223.389 43.7891 221.905 45.5078C220.42 47.2266 218.506 48.5547 216.163 49.4922C216.123 49.6094 216.104 49.6875 216.104 49.7266L216.163 49.9609C218.545 53.6914 221.016 57.2168 223.575 60.5371C226.153 63.8379 227.93 65.9473 228.907 66.8652C229.883 67.7832 230.83 68.291 231.748 68.3887L232.715 68.5645C232.95 68.623 233.067 68.8574 233.067 69.2676C233.067 69.5605 233.028 69.8633 232.95 70.1758C232.344 70.1758 231.602 70.1465 230.723 70.0879L229.58 70.0293ZM205.411 31.4746C204.961 32.0215 204.737 33.9453 204.737 37.2461V48.584C204.795 48.6816 204.922 48.7988 205.118 48.9355H209.073C211.709 48.9355 213.819 48.1836 215.401 46.6797C216.983 45.1562 217.774 43.0859 217.774 40.4688C217.774 37.6367 216.885 35.3613 215.108 33.6426C213.35 31.9238 211.075 31.0645 208.282 31.0645C207.207 31.0645 206.25 31.2012 205.411 31.4746ZM264.775 70.1758C264.697 69.8633 264.658 69.5605 264.658 69.2676C264.658 68.916 264.775 68.6816 265.01 68.5645L266.562 68.3301C267.207 68.2129 267.637 68.0469 267.852 67.832C268.086 67.6172 268.203 67.3242 268.203 66.9531C268.203 66.582 268.066 66.0059 267.793 65.2246C267.52 64.4434 267.109 63.3398 266.562 61.9141L264.219 55.5859C264.102 55.4102 263.965 55.293 263.809 55.2344H250.566C250.391 55.2734 250.244 55.3906 250.127 55.5859L248.047 61.9141C247.48 63.4766 247.197 64.7266 247.197 65.6641C247.197 67.2461 247.9 68.1348 249.307 68.3301L250.859 68.5645C251.094 68.6816 251.211 68.916 251.211 69.2676C251.211 69.5605 251.172 69.8633 251.094 70.1758L248.486 70.0879C247.295 70.0293 246.104 70 244.912 70C243.838 70 242.744 70.0293 241.631 70.0879L239.023 70.1758C238.945 69.8633 238.906 69.5605 238.906 69.2676C238.906 69.0723 238.936 68.9258 238.994 68.8281C239.053 68.7109 239.15 68.623 239.287 68.5645L240.605 68.2715C241.621 67.9785 242.432 67.3535 243.037 66.3965C243.643 65.4199 244.287 63.9258 244.971 61.9141L254.404 34.5508C254.717 33.6523 254.873 32.9883 254.873 32.5586C254.873 32.4414 254.834 32.2266 254.756 31.9141C254.893 31.5039 255.332 31.1035 256.074 30.7129C256.836 30.3027 257.52 29.7656 258.125 29.1016C258.75 28.4375 259.268 28.1055 259.678 28.1055C259.814 28.1055 259.99 28.1738 260.205 28.3105C260.791 30.3418 261.797 33.0957 263.223 36.5723L273.242 61.9141C274.082 64.1211 274.785 65.6641 275.352 66.543C275.918 67.4219 276.67 67.998 277.607 68.2715L279.043 68.5645C279.238 68.623 279.365 68.7012 279.424 68.7988C279.502 68.8965 279.541 69.0527 279.541 69.2676C279.541 69.5605 279.502 69.8633 279.424 70.1758C278.369 70.1367 277.568 70.1172 277.021 70.1172C274.834 70.0391 273.213 70 272.158 70C271.123 70 269.453 70.0391 267.148 70.1172L264.775 70.1758ZM256.807 35.6934H256.66L251.27 52.0703C251.328 52.1875 251.445 52.3047 251.621 52.4219H262.49C262.666 52.3047 262.783 52.1875 262.842 52.0703L256.807 35.6934Z" fill="black"/>
<path d="M47.4119 107.385L47.3152 107.517C47.3035 107.534 47.0808 107.619 46.6472 107.771C46.2195 107.924 45.7068 108.053 45.1091 108.158C44.5173 108.27 43.8992 108.325 43.2546 108.325C41.989 108.325 40.8142 108.059 39.7302 107.525C38.6462 106.992 37.779 106.236 37.1287 105.258C36.4841 104.273 36.1619 103.143 36.1619 101.865C36.1619 100.57 36.4783 99.4395 37.1111 98.4727C37.7497 97.5059 38.5994 96.7646 39.6599 96.249C40.7263 95.7334 41.8835 95.4756 43.1316 95.4756C43.8347 95.4756 44.532 95.54 45.2234 95.6689C45.9148 95.7979 46.4158 95.9238 46.7263 96.0469C47.0427 96.1641 47.2185 96.2402 47.2537 96.2754C47.2947 96.3047 47.324 96.5303 47.3415 96.9521C47.365 97.374 47.4324 97.9365 47.5437 98.6396L47.4558 98.6748C47.4031 98.6982 47.3415 98.71 47.2712 98.71C47.2009 98.71 47.1453 98.7041 47.1042 98.6924C47.0632 98.6748 46.9988 98.5137 46.9109 98.209C46.823 97.8984 46.615 97.5732 46.2869 97.2334C45.9646 96.8877 45.531 96.6182 44.9861 96.4248C44.4412 96.2314 43.8464 96.1348 43.2019 96.1348C41.6902 96.1348 40.4861 96.6152 39.5896 97.5762C38.699 98.5371 38.2537 99.791 38.2537 101.338C38.2537 103.143 38.7576 104.648 39.7654 105.855C40.779 107.057 42.1003 107.657 43.7292 107.657C44.6667 107.657 45.4138 107.435 45.9705 106.989C46.533 106.544 46.9431 105.879 47.2009 104.994C47.2244 104.947 47.2449 104.918 47.2624 104.906C47.28 104.895 47.3064 104.889 47.3415 104.889C47.4705 104.889 47.5613 104.897 47.614 104.915C47.6667 104.933 47.696 104.941 47.7019 104.941C47.5203 106.184 47.4236 106.998 47.4119 107.385ZM61.2892 95.4756C63.0763 95.4756 64.5968 96.1055 65.8507 97.3652C67.1047 98.6191 67.7316 100.131 67.7316 101.9C67.7316 103.699 67.1281 105.22 65.9211 106.462C64.714 107.704 63.2199 108.325 61.4386 108.325C59.6632 108.325 58.1398 107.692 56.8683 106.427C55.6027 105.155 54.9699 103.641 54.9699 101.883C54.9699 100.09 55.5734 98.5752 56.7804 97.3389C57.9875 96.0967 59.4904 95.4756 61.2892 95.4756ZM61.1134 96.1348C59.8302 96.1348 58.8371 96.6445 58.1339 97.6641C57.4308 98.6836 57.0793 99.9697 57.0793 101.522C57.0793 102.501 57.2492 103.462 57.589 104.405C57.9347 105.349 58.4504 106.128 59.1359 106.743C59.8214 107.353 60.6476 107.657 61.6144 107.657C62.8918 107.657 63.882 107.147 64.5851 106.128C65.2941 105.103 65.6486 103.813 65.6486 102.261C65.6486 101.288 65.4757 100.33 65.13 99.3867C64.7902 98.4434 64.2775 97.667 63.592 97.0576C62.9064 96.4424 62.0802 96.1348 61.1134 96.1348ZM85.9156 108.246L85.8717 108.202C85.7017 107.974 85.3414 107.534 84.7906 106.884L77.3551 98.2441H77.3199V104.493C77.3199 105.554 77.3785 106.295 77.4957 106.717C77.6129 107.133 77.8736 107.382 78.2779 107.464L78.9195 107.569C78.9605 107.587 78.9898 107.613 79.0074 107.648C79.025 107.678 79.0338 107.722 79.0338 107.78C79.0338 107.868 79.0221 107.959 78.9986 108.053L78.2603 108.026C78.0904 108.026 77.8766 108.021 77.6187 108.009C77.3609 108.003 77.1471 108 76.9771 108C76.8131 108 76.6051 108.003 76.3531 108.009C76.1012 108.015 75.8961 108.021 75.7379 108.026L75.0348 108.053C75.0113 107.959 74.9996 107.868 74.9996 107.78C74.9996 107.722 75.0084 107.678 75.026 107.648C75.0435 107.613 75.0758 107.587 75.1226 107.569L75.6851 107.481C76.0191 107.423 76.2213 107.174 76.2916 106.734C76.3678 106.289 76.4058 105.571 76.4058 104.581V97.9717C76.4058 97.5146 76.2975 97.1396 76.0807 96.8467C75.8639 96.5537 75.6324 96.3867 75.3863 96.3457L75.193 96.3193L74.7096 96.2666C74.6275 96.2256 74.5865 96.1523 74.5865 96.0469C74.5865 95.9824 74.5953 95.918 74.6129 95.8535L74.6392 95.7393L75.1402 95.7656C75.2281 95.7656 75.3512 95.7715 75.5094 95.7832C75.6734 95.7891 75.8199 95.792 75.9488 95.792C76.8043 95.792 77.317 95.7803 77.4869 95.7568C77.6568 95.7275 77.7828 95.7539 77.8648 95.8359L78.1725 96.2314C78.7174 96.9287 79.2066 97.5264 79.6402 98.0244L85.6519 105.082H85.6871V99.3076C85.6871 98.2588 85.6285 97.5205 85.5113 97.0928C85.4 96.665 85.1422 96.4131 84.7379 96.3369L84.0875 96.2314C83.9937 96.1963 83.9469 96.123 83.9469 96.0117C83.9469 95.959 83.9557 95.9062 83.9732 95.8535L83.9996 95.7393L84.7379 95.7656C84.9078 95.7656 85.1217 95.7715 85.3795 95.7832C85.6373 95.7891 85.8541 95.792 86.0299 95.792C86.1881 95.792 86.3873 95.7891 86.6275 95.7832C86.8736 95.7773 87.0758 95.7715 87.234 95.7656L87.9547 95.7393C87.984 95.8271 87.9986 95.918 87.9986 96.0117C87.9986 96.123 87.9547 96.1963 87.8668 96.2314L87.3307 96.3193C87.0084 96.3662 86.8062 96.6064 86.7242 97.04C86.648 97.4678 86.61 98.1943 86.61 99.2197V104.889C86.61 105.586 86.6217 106.251 86.6451 106.884C86.6744 107.517 86.7096 107.979 86.7506 108.272C86.61 108.296 86.3873 108.308 86.0826 108.308C86.0299 108.308 85.9918 108.302 85.9683 108.29C85.9508 108.284 85.9332 108.27 85.9156 108.246ZM95.6094 107.499L95.5479 106.928C95.4658 106.025 95.3897 105.41 95.3194 105.082C95.4248 105.047 95.5274 105.029 95.627 105.029C95.7559 105.029 95.8233 105.064 95.8291 105.135C95.835 105.199 95.8994 105.407 96.0225 105.759C96.1514 106.104 96.3067 106.395 96.4883 106.629C96.6699 106.863 96.8779 107.062 97.1123 107.227C97.3467 107.385 97.6133 107.502 97.9121 107.578C98.211 107.654 98.5274 107.692 98.8613 107.692C99.5938 107.692 100.18 107.493 100.619 107.095C101.059 106.69 101.278 106.146 101.278 105.46C101.278 104.88 101.114 104.37 100.786 103.931C100.464 103.485 99.7754 102.976 98.7207 102.401C97.666 101.827 96.9512 101.273 96.5762 100.74C96.207 100.207 96.0225 99.5742 96.0225 98.8418C96.0225 97.875 96.3594 97.0723 97.0332 96.4336C97.7129 95.7949 98.6592 95.4756 99.8721 95.4756C100.452 95.4756 100.971 95.5166 101.428 95.5986C101.891 95.6748 102.157 95.7393 102.228 95.792C102.304 95.8447 102.342 95.9092 102.342 95.9854C102.342 96.0557 102.389 96.5068 102.482 97.3389L102.553 97.9189C102.482 97.9658 102.392 97.9893 102.28 97.9893C102.14 97.9893 102.058 97.9219 102.034 97.7871C102.017 97.6523 101.92 97.4297 101.744 97.1191C101.568 96.8027 101.311 96.5479 100.971 96.3545C100.631 96.1611 100.203 96.0645 99.6875 96.0645C99.0547 96.0645 98.5332 96.249 98.1231 96.6182C97.7188 96.9873 97.5166 97.4619 97.5166 98.042C97.5166 98.5459 97.6865 99.0059 98.0264 99.4219C98.3662 99.832 99.0811 100.342 100.171 100.951C101.267 101.555 102.02 102.126 102.43 102.665C102.846 103.204 103.054 103.825 103.054 104.528C103.054 105.653 102.623 106.567 101.762 107.271C100.906 107.974 99.875 108.325 98.668 108.325C98.082 108.325 97.543 108.267 97.0508 108.149C96.5645 108.038 96.125 107.868 95.7324 107.64C95.7149 107.628 95.6738 107.581 95.6094 107.499ZM116.834 108.035C116.202 108.012 115.736 108 115.437 108C115.126 108 114.625 108.012 113.934 108.035L113.222 108.053C113.199 107.959 113.187 107.868 113.187 107.78C113.187 107.722 113.196 107.678 113.213 107.648C113.231 107.613 113.263 107.587 113.31 107.569L113.96 107.464C114.23 107.417 114.379 107.244 114.409 106.945C114.444 106.641 114.461 106.184 114.461 105.574V98.3145C114.461 97.7285 114.444 97.3154 114.409 97.0752C114.379 96.8291 114.338 96.6621 114.286 96.5742H113.134C112.226 96.5742 111.628 96.627 111.341 96.7324C111.054 96.8379 110.852 97.0957 110.735 97.5059L110.594 98.0068C110.577 98.0654 110.553 98.1094 110.524 98.1387C110.495 98.1621 110.451 98.1738 110.392 98.1738L110.313 98.1826C110.231 98.1826 110.152 98.168 110.076 98.1387C110.105 97.7578 110.134 97.2832 110.164 96.7148C110.199 96.1406 110.216 95.7217 110.216 95.458C110.251 95.4404 110.322 95.4316 110.427 95.4316C110.556 95.4316 110.632 95.4873 110.656 95.5986C110.679 95.7041 110.726 95.7773 110.796 95.8184C110.872 95.8535 111.602 95.8711 112.985 95.8711H117.722C119.14 95.8711 119.875 95.8535 119.928 95.8184C119.987 95.7773 120.034 95.7129 120.069 95.625L120.113 95.5283C120.136 95.4639 120.198 95.4316 120.297 95.4316C120.403 95.4316 120.467 95.4404 120.491 95.458C120.491 96.7881 120.508 97.6816 120.543 98.1387C120.461 98.1621 120.382 98.1738 120.306 98.1738H120.227C120.168 98.1738 120.124 98.1621 120.095 98.1387C120.066 98.1094 120.042 98.0654 120.025 98.0068L119.884 97.5059C119.767 97.0898 119.582 96.832 119.331 96.7324C119.084 96.627 118.507 96.5742 117.599 96.5742H116.483C116.43 96.6504 116.389 96.8174 116.36 97.0752C116.331 97.333 116.316 97.7461 116.316 98.3145V105.574C116.316 106.143 116.331 106.588 116.36 106.91C116.389 107.227 116.544 107.411 116.826 107.464L117.467 107.569C117.514 107.587 117.546 107.613 117.564 107.648C117.587 107.678 117.599 107.722 117.599 107.78C117.599 107.886 117.584 107.977 117.555 108.053C117.239 108.041 116.998 108.035 116.834 108.035ZM138.086 108.009C137.963 108.009 137.843 108.006 137.725 108C137.403 108 137.113 108.003 136.855 108.009C136.598 108.015 136.384 108.029 136.214 108.053C135.663 107.502 135.057 106.746 134.394 105.785C133.732 104.818 133.02 103.702 132.259 102.437L132.206 102.384C132.182 102.36 132.156 102.343 132.127 102.331H130.747C130.682 102.372 130.644 102.413 130.633 102.454V105.574C130.633 106.143 130.647 106.588 130.677 106.91C130.706 107.227 130.861 107.411 131.142 107.464L131.784 107.569C131.831 107.587 131.863 107.613 131.881 107.648C131.904 107.678 131.916 107.722 131.916 107.78C131.916 107.868 131.904 107.959 131.881 108.053L130.562 108.009C130.328 108.009 130.058 108.006 129.754 108C129.443 108 128.942 108.012 128.251 108.035L127.539 108.053C127.515 107.959 127.504 107.868 127.504 107.78C127.504 107.722 127.513 107.678 127.53 107.648C127.548 107.613 127.58 107.587 127.627 107.569L128.277 107.464C128.547 107.417 128.696 107.244 128.725 106.945C128.761 106.641 128.778 106.184 128.778 105.574V98.2266C128.778 97.6348 128.764 97.1836 128.734 96.873C128.705 96.5566 128.553 96.3779 128.277 96.3369L127.627 96.2314C127.545 96.1963 127.504 96.123 127.504 96.0117C127.504 95.9355 127.515 95.8447 127.539 95.7393L128.286 95.7656C128.45 95.7656 128.652 95.7715 128.892 95.7832C129.133 95.7891 129.335 95.792 129.499 95.792C129.821 95.792 130.305 95.7715 130.949 95.7305C131.594 95.6895 132.054 95.6689 132.329 95.6689C133.6 95.6689 134.605 95.9531 135.344 96.5215C136.082 97.084 136.451 97.8633 136.451 98.8594C136.451 99.5391 136.228 100.137 135.783 100.652C135.338 101.168 134.764 101.566 134.06 101.848C134.049 101.883 134.043 101.906 134.043 101.918L134.06 101.988C134.775 103.107 135.516 104.165 136.284 105.161C137.057 106.151 137.591 106.784 137.884 107.06C138.177 107.335 138.461 107.487 138.736 107.517L139.026 107.569C139.097 107.587 139.132 107.657 139.132 107.78C139.132 107.868 139.12 107.959 139.097 108.053C138.915 108.053 138.692 108.044 138.429 108.026L138.086 108.009ZM130.835 96.4424C130.7 96.6064 130.633 97.1836 130.633 98.1738V101.575C130.65 101.604 130.688 101.64 130.747 101.681H131.933C132.724 101.681 133.357 101.455 133.832 101.004C134.307 100.547 134.544 99.9258 134.544 99.1406C134.544 98.291 134.277 97.6084 133.744 97.0928C133.217 96.5771 132.534 96.3193 131.696 96.3193C131.374 96.3193 131.087 96.3604 130.835 96.4424ZM157.175 96.2314L156.692 96.3193C156.358 96.3779 156.126 96.6328 155.997 97.084C155.874 97.5293 155.813 98.2412 155.813 99.2197V103.843C155.813 105.313 155.429 106.43 154.661 107.191C153.9 107.947 152.795 108.325 151.348 108.325C149.731 108.325 148.483 107.974 147.604 107.271C146.725 106.567 146.285 105.46 146.285 103.948V98.2266C146.285 97.6465 146.271 97.1982 146.241 96.8818C146.212 96.5596 146.054 96.3779 145.767 96.3369L145.116 96.2314C145.046 96.1963 145.011 96.123 145.011 96.0117C145.011 95.9355 145.023 95.8447 145.046 95.7393L146.373 95.7832C146.602 95.7832 146.868 95.7861 147.173 95.792C147.472 95.792 147.961 95.7803 148.641 95.7568C148.811 95.7568 149.06 95.751 149.388 95.7393C149.411 95.8447 149.423 95.9355 149.423 96.0117C149.423 96.0762 149.411 96.126 149.388 96.1611C149.37 96.1904 149.338 96.2139 149.291 96.2314L148.65 96.3369C148.351 96.3779 148.19 96.5742 148.166 96.9258C148.149 97.2773 148.14 97.7168 148.14 98.2441V103.79C148.14 104.956 148.421 105.87 148.984 106.532C149.552 107.188 150.399 107.517 151.524 107.517C152.602 107.517 153.413 107.2 153.958 106.567C154.509 105.935 154.784 105.015 154.784 103.808V99.2373C154.784 98.2529 154.714 97.541 154.574 97.1016C154.439 96.6562 154.172 96.4014 153.774 96.3369L153.132 96.2314C153.056 96.1963 153.018 96.123 153.018 96.0117C153.018 95.9355 153.03 95.8447 153.053 95.7393C153.369 95.751 153.607 95.7568 153.765 95.7568C154.433 95.7803 154.928 95.792 155.25 95.792C155.537 95.792 155.789 95.7891 156.006 95.7832L157.272 95.7393C157.295 95.8447 157.307 95.9355 157.307 96.0117C157.307 96.0762 157.295 96.126 157.272 96.1611C157.254 96.1904 157.222 96.2139 157.175 96.2314ZM175.465 107.385L175.368 107.517C175.356 107.534 175.134 107.619 174.7 107.771C174.272 107.924 173.759 108.053 173.162 108.158C172.57 108.27 171.952 108.325 171.307 108.325C170.042 108.325 168.867 108.059 167.783 107.525C166.699 106.992 165.832 106.236 165.181 105.258C164.537 104.273 164.215 103.143 164.215 101.865C164.215 100.57 164.531 99.4395 165.164 98.4727C165.802 97.5059 166.652 96.7646 167.713 96.249C168.779 95.7334 169.936 95.4756 171.184 95.4756C171.887 95.4756 172.585 95.54 173.276 95.6689C173.967 95.7979 174.468 95.9238 174.779 96.0469C175.095 96.1641 175.271 96.2402 175.306 96.2754C175.347 96.3047 175.377 96.5303 175.394 96.9521C175.418 97.374 175.485 97.9365 175.596 98.6396L175.509 98.6748C175.456 98.6982 175.394 98.71 175.324 98.71C175.254 98.71 175.198 98.7041 175.157 98.6924C175.116 98.6748 175.051 98.5137 174.964 98.209C174.876 97.8984 174.668 97.5732 174.34 97.2334C174.017 96.8877 173.584 96.6182 173.039 96.4248C172.494 96.2314 171.899 96.1348 171.255 96.1348C169.743 96.1348 168.539 96.6152 167.642 97.5762C166.752 98.5371 166.306 99.791 166.306 101.338C166.306 103.143 166.81 104.648 167.818 105.855C168.832 107.057 170.153 107.657 171.782 107.657C172.719 107.657 173.467 107.435 174.023 106.989C174.586 106.544 174.996 105.879 175.254 104.994C175.277 104.947 175.298 104.918 175.315 104.906C175.333 104.895 175.359 104.889 175.394 104.889C175.523 104.889 175.614 104.897 175.667 104.915C175.719 104.933 175.749 104.941 175.755 104.941C175.573 106.184 175.476 106.998 175.465 107.385ZM194.273 107.385L194.176 107.517C194.164 107.534 193.942 107.619 193.508 107.771C193.08 107.924 192.568 108.053 191.97 108.158C191.378 108.27 190.76 108.325 190.115 108.325C188.85 108.325 187.675 108.059 186.591 107.525C185.507 106.992 184.64 106.236 183.989 105.258C183.345 104.273 183.023 103.143 183.023 101.865C183.023 100.57 183.339 99.4395 183.972 98.4727C184.61 97.5059 185.46 96.7646 186.521 96.249C187.587 95.7334 188.744 95.4756 189.992 95.4756C190.695 95.4756 191.393 95.54 192.084 95.6689C192.776 95.7979 193.276 95.9238 193.587 96.0469C193.903 96.1641 194.079 96.2402 194.114 96.2754C194.155 96.3047 194.185 96.5303 194.202 96.9521C194.226 97.374 194.293 97.9365 194.404 98.6396L194.317 98.6748C194.264 98.6982 194.202 98.71 194.132 98.71C194.062 98.71 194.006 98.7041 193.965 98.6924C193.924 98.6748 193.859 98.5137 193.772 98.209C193.684 97.8984 193.476 97.5732 193.148 97.2334C192.825 96.8877 192.392 96.6182 191.847 96.4248C191.302 96.2314 190.707 96.1348 190.063 96.1348C188.551 96.1348 187.347 96.6152 186.45 97.5762C185.56 98.5371 185.114 99.791 185.114 101.338C185.114 103.143 185.618 104.648 186.626 105.855C187.64 107.057 188.961 107.657 190.59 107.657C191.527 107.657 192.275 107.435 192.831 106.989C193.394 106.544 193.804 105.879 194.062 104.994C194.085 104.947 194.106 104.918 194.123 104.906C194.141 104.895 194.167 104.889 194.202 104.889C194.331 104.889 194.422 104.897 194.475 104.915C194.527 104.933 194.557 104.941 194.563 104.941C194.381 106.184 194.284 106.998 194.273 107.385ZM202.27 107.569L202.912 107.464C203.193 107.411 203.348 107.227 203.378 106.91C203.407 106.588 203.421 106.143 203.421 105.574V98.2266C203.421 97.6758 203.407 97.2334 203.378 96.8994C203.354 96.5654 203.199 96.3779 202.912 96.3369L202.27 96.2314C202.223 96.2139 202.188 96.1904 202.165 96.1611C202.147 96.126 202.138 96.0762 202.138 96.0117C202.138 95.9355 202.15 95.8447 202.173 95.7393L203.501 95.7832C203.729 95.7832 203.996 95.7861 204.3 95.792C204.623 95.792 205.124 95.7803 205.803 95.7568L206.515 95.7393C206.539 95.8447 206.55 95.9355 206.55 96.0117C206.55 96.123 206.509 96.1963 206.427 96.2314L205.777 96.3369C205.502 96.3779 205.349 96.5566 205.32 96.873C205.291 97.1836 205.276 97.6348 205.276 98.2266V105.574C205.276 106.184 205.291 106.641 205.32 106.945C205.355 107.244 205.507 107.417 205.777 107.464L206.427 107.569C206.474 107.587 206.506 107.613 206.524 107.648C206.542 107.678 206.55 107.722 206.55 107.78C206.55 107.868 206.539 107.959 206.515 108.053L205.197 108.009C204.962 108.009 204.693 108.006 204.388 108C204.078 108 203.577 108.012 202.885 108.035L202.173 108.053C202.15 107.959 202.138 107.868 202.138 107.78C202.138 107.722 202.147 107.678 202.165 107.648C202.188 107.613 202.223 107.587 202.27 107.569ZM220.226 95.4756C222.013 95.4756 223.533 96.1055 224.787 97.3652C226.041 98.6191 226.668 100.131 226.668 101.9C226.668 103.699 226.064 105.22 224.857 106.462C223.65 107.704 222.156 108.325 220.375 108.325C218.6 108.325 217.076 107.692 215.805 106.427C214.539 105.155 213.906 103.641 213.906 101.883C213.906 100.09 214.51 98.5752 215.717 97.3389C216.924 96.0967 218.427 95.4756 220.226 95.4756ZM220.05 96.1348C218.767 96.1348 217.773 96.6445 217.07 97.6641C216.367 98.6836 216.016 99.9697 216.016 101.522C216.016 102.501 216.186 103.462 216.525 104.405C216.871 105.349 217.387 106.128 218.072 106.743C218.758 107.353 219.584 107.657 220.551 107.657C221.828 107.657 222.818 107.147 223.521 106.128C224.23 105.103 224.585 103.813 224.585 102.261C224.585 101.288 224.412 100.33 224.066 99.3867C223.727 98.4434 223.214 97.667 222.528 97.0576C221.843 96.4424 221.017 96.1348 220.05 96.1348ZM244.852 108.246L244.808 108.202C244.638 107.974 244.278 107.534 243.727 106.884L236.291 98.2441H236.256V104.493C236.256 105.554 236.315 106.295 236.432 106.717C236.549 107.133 236.81 107.382 237.214 107.464L237.856 107.569C237.897 107.587 237.926 107.613 237.944 107.648C237.961 107.678 237.97 107.722 237.97 107.78C237.97 107.868 237.958 107.959 237.935 108.053L237.197 108.026C237.027 108.026 236.813 108.021 236.555 108.009C236.297 108.003 236.083 108 235.913 108C235.749 108 235.541 108.003 235.289 108.009C235.038 108.015 234.832 108.021 234.674 108.026L233.971 108.053C233.948 107.959 233.936 107.868 233.936 107.78C233.936 107.722 233.945 107.678 233.962 107.648C233.98 107.613 234.012 107.587 234.059 107.569L234.621 107.481C234.955 107.423 235.158 107.174 235.228 106.734C235.304 106.289 235.342 105.571 235.342 104.581V97.9717C235.342 97.5146 235.234 97.1396 235.017 96.8467C234.8 96.5537 234.569 96.3867 234.323 96.3457L234.129 96.3193L233.646 96.2666C233.564 96.2256 233.523 96.1523 233.523 96.0469C233.523 95.9824 233.532 95.918 233.549 95.8535L233.576 95.7393L234.077 95.7656C234.164 95.7656 234.288 95.7715 234.446 95.7832C234.61 95.7891 234.756 95.792 234.885 95.792C235.741 95.792 236.253 95.7803 236.423 95.7568C236.593 95.7275 236.719 95.7539 236.801 95.8359L237.109 96.2314C237.654 96.9287 238.143 97.5264 238.577 98.0244L244.588 105.082H244.623V99.3076C244.623 98.2588 244.565 97.5205 244.448 97.0928C244.336 96.665 244.079 96.4131 243.674 96.3369L243.024 96.2314C242.93 96.1963 242.883 96.123 242.883 96.0117C242.883 95.959 242.892 95.9062 242.91 95.8535L242.936 95.7393L243.674 95.7656C243.844 95.7656 244.058 95.7715 244.316 95.7832C244.574 95.7891 244.79 95.792 244.966 95.792C245.124 95.792 245.324 95.7891 245.564 95.7832C245.81 95.7773 246.012 95.7715 246.17 95.7656L246.891 95.7393C246.92 95.8271 246.935 95.918 246.935 96.0117C246.935 96.123 246.891 96.1963 246.803 96.2314L246.267 96.3193C245.945 96.3662 245.743 96.6064 245.661 97.04C245.584 97.4678 245.546 98.1943 245.546 99.2197V104.889C245.546 105.586 245.558 106.251 245.581 106.884C245.611 107.517 245.646 107.979 245.687 108.272C245.546 108.296 245.324 108.308 245.019 108.308C244.966 108.308 244.928 108.302 244.905 108.29C244.887 108.284 244.87 108.27 244.852 108.246ZM263.018 108.035C262.972 108.018 262.848 108.009 262.649 108.009C262.45 108.009 262.169 108.006 261.806 108H256.453C255.849 108 255.363 108.009 254.994 108.026C254.625 108.044 254.426 108.053 254.396 108.053C254.373 107.959 254.361 107.868 254.361 107.78C254.361 107.722 254.37 107.678 254.388 107.648C254.405 107.613 254.437 107.587 254.484 107.569L255.135 107.464C255.404 107.417 255.554 107.244 255.583 106.945C255.618 106.641 255.636 106.184 255.636 105.574V98.2266C255.636 97.6348 255.621 97.1836 255.592 96.873C255.562 96.5566 255.41 96.3779 255.135 96.3369L254.484 96.2314C254.402 96.1963 254.361 96.123 254.361 96.0117C254.361 95.9355 254.373 95.8447 254.396 95.7393C254.59 95.7627 254.874 95.7773 255.249 95.7832C255.63 95.7891 256.025 95.792 256.435 95.792H259.309L261.12 95.8008C261.641 95.8008 261.958 95.7861 262.069 95.7568C262.181 95.833 262.23 95.874 262.219 95.8799C262.213 95.8857 262.251 96.1523 262.333 96.6797C262.421 97.207 262.506 97.6318 262.588 97.9541C262.535 97.9893 262.471 98.0156 262.394 98.0332C262.318 98.0449 262.268 98.0508 262.245 98.0508C262.169 98.0508 262.116 98.0127 262.087 97.9365L261.92 97.5234C261.744 97.1133 261.495 96.8408 261.173 96.7061C260.856 96.5654 260.229 96.4951 259.292 96.4951H257.692C257.546 96.6709 257.473 97.2305 257.473 98.1738V101.215C257.484 101.256 257.522 101.297 257.587 101.338H259.186C259.843 101.338 260.306 101.294 260.575 101.206C260.845 101.118 260.994 100.954 261.023 100.714L261.094 100.169C261.117 100.087 261.176 100.046 261.269 100.046C261.322 100.046 261.378 100.052 261.436 100.063L261.559 100.099L261.533 100.828C261.515 101.18 261.507 101.487 261.507 101.751C261.507 102.003 261.515 102.296 261.533 102.63L261.559 103.395C261.442 103.418 261.346 103.43 261.269 103.43C261.17 103.43 261.111 103.395 261.094 103.324L261.023 102.674C260.994 102.422 260.833 102.252 260.54 102.164C260.247 102.07 259.796 102.023 259.186 102.023H257.587C257.522 102.064 257.484 102.105 257.473 102.146V105.17C257.473 105.973 257.549 106.529 257.701 106.84C257.853 107.145 258.181 107.297 258.685 107.297H260.083C260.973 107.297 261.592 107.238 261.937 107.121C262.283 106.998 262.597 106.69 262.878 106.198L263.168 105.68C263.232 105.615 263.294 105.583 263.352 105.583C263.376 105.583 263.431 105.595 263.519 105.618C263.607 105.636 263.669 105.656 263.704 105.68C263.593 105.949 263.475 106.368 263.352 106.937C263.235 107.505 263.177 107.815 263.177 107.868C263.177 107.921 263.124 107.977 263.018 108.035ZM271.086 107.499L271.025 106.928C270.943 106.025 270.866 105.41 270.796 105.082C270.902 105.047 271.004 105.029 271.104 105.029C271.233 105.029 271.3 105.064 271.306 105.135C271.312 105.199 271.376 105.407 271.499 105.759C271.628 106.104 271.783 106.395 271.965 106.629C272.147 106.863 272.355 107.062 272.589 107.227C272.823 107.385 273.09 107.502 273.389 107.578C273.688 107.654 274.004 107.692 274.338 107.692C275.071 107.692 275.656 107.493 276.096 107.095C276.535 106.69 276.755 106.146 276.755 105.46C276.755 104.88 276.591 104.37 276.263 103.931C275.941 103.485 275.252 102.976 274.198 102.401C273.143 101.827 272.428 101.273 272.053 100.74C271.684 100.207 271.499 99.5742 271.499 98.8418C271.499 97.875 271.836 97.0723 272.51 96.4336C273.19 95.7949 274.136 95.4756 275.349 95.4756C275.929 95.4756 276.448 95.5166 276.905 95.5986C277.367 95.6748 277.634 95.7393 277.704 95.792C277.781 95.8447 277.819 95.9092 277.819 95.9854C277.819 96.0557 277.865 96.5068 277.959 97.3389L278.03 97.9189C277.959 97.9658 277.868 97.9893 277.757 97.9893C277.616 97.9893 277.534 97.9219 277.511 97.7871C277.493 97.6523 277.397 97.4297 277.221 97.1191C277.045 96.8027 276.787 96.5479 276.448 96.3545C276.108 96.1611 275.68 96.0645 275.164 96.0645C274.531 96.0645 274.01 96.249 273.6 96.6182C273.196 96.9873 272.993 97.4619 272.993 98.042C272.993 98.5459 273.163 99.0059 273.503 99.4219C273.843 99.832 274.558 100.342 275.648 100.951C276.743 101.555 277.496 102.126 277.906 102.665C278.323 103.204 278.531 103.825 278.531 104.528C278.531 105.653 278.1 106.567 277.239 107.271C276.383 107.974 275.352 108.325 274.145 108.325C273.559 108.325 273.02 108.267 272.528 108.149C272.041 108.038 271.602 107.868 271.209 107.64C271.192 107.628 271.151 107.581 271.086 107.499Z" fill="black"/>
<path d="M35 121.5V122H157.5H280V121.5V121H157.5H35V121.5Z" fill="black"/>
<path d="M35 82.5V83H157.5H280V82.5V82H157.5H35V82.5Z" fill="black"/>
</svg>
