<svg width="314" height="314" viewBox="0 0 314 314" fill="none" xmlns="http://www.w3.org/2000/svg">
<rect width="314" height="314" fill="white"/>
<path d="M46.875 152.088C45.3906 152.029 44.0234 152 42.7734 152C41.6992 152 40.0098 152.039 37.7051 152.117L35.332 152.176C35.2539 151.863 35.2148 151.561 35.2148 151.268C35.2148 151.072 35.2441 150.926 35.3027 150.828C35.3613 150.711 35.4688 150.623 35.625 150.564L37.793 150.213C38.6914 150.057 39.1895 149.48 39.2871 148.484C39.4043 147.469 39.4629 145.945 39.4629 143.914V119.422C39.4629 117.449 39.4141 115.945 39.3164 114.91C39.2188 113.875 38.7109 113.279 37.793 113.123L35.625 112.771C35.3516 112.713 35.2148 112.488 35.2148 112.098C35.2148 111.805 35.2539 111.482 35.332 111.131L37.6758 111.219C38.0664 111.219 38.6426 111.238 39.4043 111.277C40.166 111.297 40.8691 111.307 41.5137 111.307C42.5879 111.307 44.248 111.238 46.4941 111.102C48.7598 110.965 50.3613 110.896 51.2988 110.896C55.459 110.896 58.8086 111.932 61.3477 114.002C63.8867 116.072 65.1562 118.982 65.1562 122.732C65.1562 126.111 63.7988 129.031 61.084 131.492C58.3691 133.934 54.8047 135.154 50.3906 135.154C49.5898 135.154 49.0527 135.076 48.7793 134.92C48.5059 134.764 48.3691 134.5 48.3691 134.129C48.3691 133.719 48.4277 133.338 48.5449 132.986C49.248 133.064 49.8242 133.104 50.2734 133.104C52.8516 133.104 54.8926 132.215 56.3965 130.438C57.9199 128.66 58.6816 126.268 58.6816 123.26C58.6816 120.076 57.832 117.586 56.1328 115.789C54.4531 113.973 52.1387 113.064 49.1895 113.064C48.0762 113.064 47.1191 113.201 46.3184 113.475C45.8691 114.021 45.6445 115.926 45.6445 119.188V143.533C45.6445 145.779 45.791 147.391 46.084 148.367C46.377 149.344 47.0508 149.91 48.1055 150.066L50.9473 150.506C51.2207 150.564 51.3574 150.799 51.3574 151.209C51.3574 151.443 51.3379 151.648 51.2988 151.824L51.1816 152.176C50.3418 152.176 49.5508 152.166 48.8086 152.146L46.875 152.088ZM76.5621 150.564L78.7008 150.213C79.6383 150.037 80.1559 149.422 80.2535 148.367C80.3512 147.293 80.4 145.809 80.4 143.914V119.422C80.4 117.586 80.3512 116.111 80.2535 114.998C80.1754 113.885 79.6578 113.26 78.7008 113.123L76.5621 112.771C76.4059 112.713 76.2887 112.635 76.2105 112.537C76.152 112.42 76.1227 112.254 76.1227 112.039C76.1227 111.785 76.1617 111.482 76.2398 111.131L80.6637 111.277C81.4254 111.277 82.3141 111.287 83.3297 111.307C84.4039 111.307 86.0738 111.268 88.3395 111.189L90.7125 111.131C90.7906 111.482 90.8297 111.785 90.8297 112.039C90.8297 112.41 90.693 112.654 90.4195 112.771L88.2516 113.123C87.3336 113.26 86.8258 113.855 86.7281 114.91C86.6305 115.945 86.5816 117.449 86.5816 119.422V143.914C86.5816 145.945 86.6305 147.469 86.7281 148.484C86.8453 149.48 87.3531 150.057 88.2516 150.213L90.4195 150.564C90.5758 150.623 90.6832 150.711 90.7418 150.828C90.8004 150.926 90.8297 151.072 90.8297 151.268C90.8297 151.561 90.7906 151.863 90.7125 152.176L86.318 152.029C85.5367 152.029 84.6383 152.02 83.6227 152C82.5875 152 80.9176 152.039 78.6129 152.117L76.2398 152.176C76.1617 151.863 76.1227 151.561 76.1227 151.268C76.1227 151.072 76.152 150.926 76.2105 150.828C76.2887 150.711 76.4059 150.623 76.5621 150.564ZM130.478 152.117C130.321 152.059 129.911 152.029 129.247 152.029C128.583 152.029 127.646 152.02 126.435 152H108.593C106.581 152 104.96 152.029 103.73 152.088C102.499 152.146 101.835 152.176 101.738 152.176C101.659 151.863 101.62 151.561 101.62 151.268C101.62 151.072 101.65 150.926 101.708 150.828C101.767 150.711 101.874 150.623 102.03 150.564L104.198 150.213C105.097 150.057 105.595 149.48 105.693 148.484C105.81 147.469 105.868 145.945 105.868 143.914V119.422C105.868 117.449 105.82 115.945 105.722 114.91C105.624 113.855 105.116 113.26 104.198 113.123L102.03 112.771C101.757 112.654 101.62 112.41 101.62 112.039C101.62 111.785 101.659 111.482 101.738 111.131C102.382 111.209 103.329 111.258 104.579 111.277C105.849 111.297 107.167 111.307 108.534 111.307H118.114L124.15 111.336C125.888 111.336 126.943 111.287 127.314 111.189C127.685 111.443 127.851 111.58 127.812 111.6C127.792 111.619 127.919 112.508 128.193 114.266C128.486 116.023 128.769 117.439 129.042 118.514C128.866 118.631 128.652 118.719 128.398 118.777C128.144 118.816 127.978 118.836 127.9 118.836C127.646 118.836 127.47 118.709 127.372 118.455L126.816 117.078C126.23 115.711 125.4 114.803 124.325 114.354C123.271 113.885 121.181 113.65 118.056 113.65H112.724C112.236 114.236 111.991 116.102 111.991 119.246V129.383C112.03 129.52 112.157 129.656 112.372 129.793H117.704C119.892 129.793 121.435 129.646 122.333 129.354C123.232 129.061 123.73 128.514 123.827 127.713L124.062 125.896C124.14 125.623 124.335 125.486 124.648 125.486C124.823 125.486 125.009 125.506 125.204 125.545L125.614 125.662L125.527 128.094C125.468 129.266 125.439 130.291 125.439 131.17C125.439 132.01 125.468 132.986 125.527 134.1L125.614 136.648C125.224 136.727 124.902 136.766 124.648 136.766C124.316 136.766 124.12 136.648 124.062 136.414L123.827 134.246C123.73 133.406 123.193 132.84 122.216 132.547C121.239 132.234 119.736 132.078 117.704 132.078H112.372C112.157 132.215 112.03 132.352 111.991 132.488V142.566C111.991 145.242 112.245 147.098 112.753 148.133C113.261 149.148 114.355 149.656 116.034 149.656H120.693C123.661 149.656 125.722 149.461 126.874 149.07C128.027 148.66 129.071 147.635 130.009 145.994L130.976 144.266C131.191 144.051 131.396 143.943 131.591 143.943C131.669 143.943 131.855 143.982 132.148 144.061C132.441 144.119 132.646 144.188 132.763 144.266C132.392 145.164 132.001 146.561 131.591 148.455C131.2 150.35 131.005 151.385 131.005 151.561C131.005 151.736 130.829 151.922 130.478 152.117ZM161.425 152H149.266C147.079 152 145.155 152.049 143.495 152.146L142.352 152.176C142.274 151.863 142.235 151.561 142.235 151.268C142.235 151.072 142.264 150.926 142.323 150.828C142.382 150.711 142.489 150.623 142.645 150.564L144.813 150.213C145.712 150.057 146.21 149.48 146.307 148.484C146.425 147.469 146.483 145.945 146.483 143.914V119.422C146.483 117.449 146.434 115.945 146.337 114.91C146.239 113.875 145.731 113.26 144.813 113.064L142.645 112.713C142.372 112.654 142.235 112.43 142.235 112.039C142.235 111.785 142.274 111.482 142.352 111.131C143.309 111.248 145.331 111.307 148.417 111.307C150.018 111.307 151.923 111.189 154.13 110.955C156.337 110.721 158.075 110.604 159.345 110.604C167.45 110.604 173.573 112.625 177.714 116.668C181.854 120.711 183.925 125.652 183.925 131.492C183.925 136.863 181.971 141.629 178.065 145.789C174.159 149.93 168.612 152 161.425 152ZM153.339 113.65C153.124 114.061 152.958 114.656 152.841 115.438C152.723 116.219 152.665 117.469 152.665 119.188V142.566C152.665 145.242 152.919 147.098 153.427 148.133C153.934 149.148 155.028 149.656 156.708 149.656H161.63C166.063 149.656 169.716 148.113 172.587 145.027C175.477 141.922 176.923 137.762 176.923 132.547C176.923 126.668 175.292 121.941 172.03 118.367C168.768 114.793 164.52 113.006 159.286 113.006C158.251 113.006 157.196 113.064 156.122 113.182C155.067 113.299 154.139 113.455 153.339 113.65ZM229.08 152.029C228.67 152.029 228.27 152.02 227.879 152C226.805 152 225.838 152.01 224.979 152.029C224.12 152.049 223.407 152.098 222.84 152.176C221.004 150.34 218.983 147.82 216.776 144.617C214.569 141.395 212.196 137.674 209.657 133.455L209.481 133.279C209.403 133.201 209.315 133.143 209.217 133.104H204.618C204.403 133.24 204.276 133.377 204.237 133.514V143.914C204.237 145.809 204.286 147.293 204.383 148.367C204.481 149.422 204.998 150.037 205.936 150.213L208.075 150.564C208.231 150.623 208.338 150.711 208.397 150.828C208.475 150.926 208.514 151.072 208.514 151.268C208.514 151.561 208.475 151.863 208.397 152.176L204.002 152.029C203.221 152.029 202.323 152.02 201.307 152C200.272 152 198.602 152.039 196.297 152.117L193.924 152.176C193.846 151.863 193.807 151.561 193.807 151.268C193.807 151.072 193.836 150.926 193.895 150.828C193.954 150.711 194.061 150.623 194.217 150.564L196.385 150.213C197.284 150.057 197.782 149.48 197.879 148.484C197.996 147.469 198.055 145.945 198.055 143.914V119.422C198.055 117.449 198.006 115.945 197.909 114.91C197.811 113.855 197.303 113.26 196.385 113.123L194.217 112.771C193.944 112.654 193.807 112.41 193.807 112.039C193.807 111.785 193.846 111.482 193.924 111.131L196.414 111.219C196.961 111.219 197.635 111.238 198.436 111.277C199.237 111.297 199.911 111.307 200.457 111.307C201.532 111.307 203.143 111.238 205.291 111.102C207.44 110.965 208.973 110.896 209.891 110.896C214.129 110.896 217.479 111.844 219.94 113.738C222.401 115.613 223.631 118.211 223.631 121.531C223.631 123.797 222.889 125.789 221.405 127.508C219.92 129.227 218.006 130.555 215.663 131.492C215.623 131.609 215.604 131.688 215.604 131.727L215.663 131.961C218.045 135.691 220.516 139.217 223.075 142.537C225.653 145.838 227.43 147.947 228.407 148.865C229.383 149.783 230.33 150.291 231.248 150.389L232.215 150.564C232.45 150.623 232.567 150.857 232.567 151.268C232.567 151.561 232.528 151.863 232.45 152.176C231.844 152.176 231.102 152.146 230.223 152.088L229.08 152.029ZM204.911 113.475C204.461 114.021 204.237 115.945 204.237 119.246V130.584C204.295 130.682 204.422 130.799 204.618 130.936H208.573C211.209 130.936 213.319 130.184 214.901 128.68C216.483 127.156 217.274 125.086 217.274 122.469C217.274 119.637 216.385 117.361 214.608 115.643C212.85 113.924 210.575 113.064 207.782 113.064C206.707 113.064 205.75 113.201 204.911 113.475ZM264.275 152.176C264.197 151.863 264.158 151.561 264.158 151.268C264.158 150.916 264.275 150.682 264.51 150.564L266.062 150.33C266.707 150.213 267.137 150.047 267.352 149.832C267.586 149.617 267.703 149.324 267.703 148.953C267.703 148.582 267.566 148.006 267.293 147.225C267.02 146.443 266.609 145.34 266.062 143.914L263.719 137.586C263.602 137.41 263.465 137.293 263.309 137.234H250.066C249.891 137.273 249.744 137.391 249.627 137.586L247.547 143.914C246.98 145.477 246.697 146.727 246.697 147.664C246.697 149.246 247.4 150.135 248.807 150.33L250.359 150.564C250.594 150.682 250.711 150.916 250.711 151.268C250.711 151.561 250.672 151.863 250.594 152.176L247.986 152.088C246.795 152.029 245.604 152 244.412 152C243.338 152 242.244 152.029 241.131 152.088L238.523 152.176C238.445 151.863 238.406 151.561 238.406 151.268C238.406 151.072 238.436 150.926 238.494 150.828C238.553 150.711 238.65 150.623 238.787 150.564L240.105 150.271C241.121 149.979 241.932 149.354 242.537 148.396C243.143 147.42 243.787 145.926 244.471 143.914L253.904 116.551C254.217 115.652 254.373 114.988 254.373 114.559C254.373 114.441 254.334 114.227 254.256 113.914C254.393 113.504 254.832 113.104 255.574 112.713C256.336 112.303 257.02 111.766 257.625 111.102C258.25 110.438 258.768 110.105 259.178 110.105C259.314 110.105 259.49 110.174 259.705 110.311C260.291 112.342 261.297 115.096 262.723 118.572L272.742 143.914C273.582 146.121 274.285 147.664 274.852 148.543C275.418 149.422 276.17 149.998 277.107 150.271L278.543 150.564C278.738 150.623 278.865 150.701 278.924 150.799C279.002 150.896 279.041 151.053 279.041 151.268C279.041 151.561 279.002 151.863 278.924 152.176C277.869 152.137 277.068 152.117 276.521 152.117C274.334 152.039 272.713 152 271.658 152C270.623 152 268.953 152.039 266.648 152.117L264.275 152.176ZM256.307 117.693H256.16L250.77 134.07C250.828 134.188 250.945 134.305 251.121 134.422H261.99C262.166 134.305 262.283 134.188 262.342 134.07L256.307 117.693Z" fill="black"/>
<path d="M46.9119 189.385L46.8152 189.517C46.8035 189.534 46.5808 189.619 46.1472 189.771C45.7195 189.924 45.2068 190.053 44.6091 190.158C44.0173 190.27 43.3992 190.325 42.7546 190.325C41.489 190.325 40.3142 190.059 39.2302 189.525C38.1462 188.992 37.279 188.236 36.6287 187.258C35.9841 186.273 35.6619 185.143 35.6619 183.865C35.6619 182.57 35.9783 181.439 36.6111 180.473C37.2497 179.506 38.0994 178.765 39.1599 178.249C40.2263 177.733 41.3835 177.476 42.6316 177.476C43.3347 177.476 44.032 177.54 44.7234 177.669C45.4148 177.798 45.9158 177.924 46.2263 178.047C46.5427 178.164 46.7185 178.24 46.7537 178.275C46.7947 178.305 46.824 178.53 46.8415 178.952C46.865 179.374 46.9324 179.937 47.0437 180.64L46.9558 180.675C46.9031 180.698 46.8415 180.71 46.7712 180.71C46.7009 180.71 46.6453 180.704 46.6042 180.692C46.5632 180.675 46.4988 180.514 46.4109 180.209C46.323 179.898 46.115 179.573 45.7869 179.233C45.4646 178.888 45.031 178.618 44.4861 178.425C43.9412 178.231 43.3464 178.135 42.7019 178.135C41.1902 178.135 39.9861 178.615 39.0896 179.576C38.199 180.537 37.7537 181.791 37.7537 183.338C37.7537 185.143 38.2576 186.648 39.2654 187.855C40.279 189.057 41.6003 189.657 43.2292 189.657C44.1667 189.657 44.9138 189.435 45.4705 188.989C46.033 188.544 46.4431 187.879 46.7009 186.994C46.7244 186.947 46.7449 186.918 46.7624 186.906C46.78 186.895 46.8064 186.889 46.8415 186.889C46.9705 186.889 47.0613 186.897 47.114 186.915C47.1667 186.933 47.196 186.941 47.2019 186.941C47.0203 188.184 46.9236 188.998 46.9119 189.385ZM60.7892 177.476C62.5763 177.476 64.0968 178.105 65.3507 179.365C66.6047 180.619 67.2316 182.131 67.2316 183.9C67.2316 185.699 66.6281 187.22 65.4211 188.462C64.214 189.704 62.7199 190.325 60.9386 190.325C59.1632 190.325 57.6398 189.692 56.3683 188.427C55.1027 187.155 54.4699 185.641 54.4699 183.883C54.4699 182.09 55.0734 180.575 56.2804 179.339C57.4875 178.097 58.9904 177.476 60.7892 177.476ZM60.6134 178.135C59.3302 178.135 58.3371 178.645 57.6339 179.664C56.9308 180.684 56.5793 181.97 56.5793 183.522C56.5793 184.501 56.7492 185.462 57.089 186.405C57.4347 187.349 57.9504 188.128 58.6359 188.743C59.3214 189.353 60.1476 189.657 61.1144 189.657C62.3918 189.657 63.382 189.147 64.0851 188.128C64.7941 187.103 65.1486 185.813 65.1486 184.261C65.1486 183.288 64.9757 182.33 64.63 181.387C64.2902 180.443 63.7775 179.667 63.092 179.058C62.4064 178.442 61.5802 178.135 60.6134 178.135ZM85.4156 190.246L85.3717 190.202C85.2017 189.974 84.8414 189.534 84.2906 188.884L76.8551 180.244H76.8199V186.493C76.8199 187.554 76.8785 188.295 76.9957 188.717C77.1129 189.133 77.3736 189.382 77.7779 189.464L78.4195 189.569C78.4605 189.587 78.4898 189.613 78.5074 189.648C78.525 189.678 78.5338 189.722 78.5338 189.78C78.5338 189.868 78.5221 189.959 78.4986 190.053L77.7603 190.026C77.5904 190.026 77.3766 190.021 77.1187 190.009C76.8609 190.003 76.6471 190 76.4771 190C76.3131 190 76.1051 190.003 75.8531 190.009C75.6012 190.015 75.3961 190.021 75.2379 190.026L74.5348 190.053C74.5113 189.959 74.4996 189.868 74.4996 189.78C74.4996 189.722 74.5084 189.678 74.526 189.648C74.5435 189.613 74.5758 189.587 74.6226 189.569L75.1851 189.481C75.5191 189.423 75.7213 189.174 75.7916 188.734C75.8678 188.289 75.9058 187.571 75.9058 186.581V179.972C75.9058 179.515 75.7975 179.14 75.5807 178.847C75.3639 178.554 75.1324 178.387 74.8863 178.346L74.693 178.319L74.2096 178.267C74.1275 178.226 74.0865 178.152 74.0865 178.047C74.0865 177.982 74.0953 177.918 74.1129 177.854L74.1392 177.739L74.6402 177.766C74.7281 177.766 74.8512 177.771 75.0094 177.783C75.1734 177.789 75.3199 177.792 75.4488 177.792C76.3043 177.792 76.817 177.78 76.9869 177.757C77.1568 177.728 77.2828 177.754 77.3648 177.836L77.6725 178.231C78.2174 178.929 78.7066 179.526 79.1402 180.024L85.1519 187.082H85.1871V181.308C85.1871 180.259 85.1285 179.521 85.0113 179.093C84.9 178.665 84.6422 178.413 84.2379 178.337L83.5875 178.231C83.4937 178.196 83.4469 178.123 83.4469 178.012C83.4469 177.959 83.4557 177.906 83.4732 177.854L83.4996 177.739L84.2379 177.766C84.4078 177.766 84.6217 177.771 84.8795 177.783C85.1373 177.789 85.3541 177.792 85.5299 177.792C85.6881 177.792 85.8873 177.789 86.1275 177.783C86.3736 177.777 86.5758 177.771 86.734 177.766L87.4547 177.739C87.484 177.827 87.4986 177.918 87.4986 178.012C87.4986 178.123 87.4547 178.196 87.3668 178.231L86.8307 178.319C86.5084 178.366 86.3062 178.606 86.2242 179.04C86.148 179.468 86.11 180.194 86.11 181.22V186.889C86.11 187.586 86.1217 188.251 86.1451 188.884C86.1744 189.517 86.2096 189.979 86.2506 190.272C86.11 190.296 85.8873 190.308 85.5826 190.308C85.5299 190.308 85.4918 190.302 85.4683 190.29C85.4508 190.284 85.4332 190.27 85.4156 190.246ZM95.1094 189.499L95.0479 188.928C94.9658 188.025 94.8897 187.41 94.8194 187.082C94.9248 187.047 95.0274 187.029 95.127 187.029C95.2559 187.029 95.3233 187.064 95.3291 187.135C95.335 187.199 95.3994 187.407 95.5225 187.759C95.6514 188.104 95.8067 188.395 95.9883 188.629C96.1699 188.863 96.3779 189.062 96.6123 189.227C96.8467 189.385 97.1133 189.502 97.4121 189.578C97.711 189.654 98.0274 189.692 98.3613 189.692C99.0938 189.692 99.6797 189.493 100.119 189.095C100.559 188.69 100.778 188.146 100.778 187.46C100.778 186.88 100.614 186.37 100.286 185.931C99.9639 185.485 99.2754 184.976 98.2207 184.401C97.166 183.827 96.4512 183.273 96.0762 182.74C95.707 182.207 95.5225 181.574 95.5225 180.842C95.5225 179.875 95.8594 179.072 96.5332 178.434C97.2129 177.795 98.1592 177.476 99.3721 177.476C99.9522 177.476 100.471 177.517 100.928 177.599C101.391 177.675 101.657 177.739 101.728 177.792C101.804 177.845 101.842 177.909 101.842 177.985C101.842 178.056 101.889 178.507 101.982 179.339L102.053 179.919C101.982 179.966 101.892 179.989 101.78 179.989C101.64 179.989 101.558 179.922 101.534 179.787C101.517 179.652 101.42 179.43 101.244 179.119C101.068 178.803 100.811 178.548 100.471 178.354C100.131 178.161 99.7031 178.064 99.1875 178.064C98.5547 178.064 98.0332 178.249 97.6231 178.618C97.2188 178.987 97.0166 179.462 97.0166 180.042C97.0166 180.546 97.1865 181.006 97.5264 181.422C97.8662 181.832 98.5811 182.342 99.6709 182.951C100.767 183.555 101.52 184.126 101.93 184.665C102.346 185.204 102.554 185.825 102.554 186.528C102.554 187.653 102.123 188.567 101.262 189.271C100.406 189.974 99.375 190.325 98.168 190.325C97.582 190.325 97.043 190.267 96.5508 190.149C96.0645 190.038 95.625 189.868 95.2324 189.64C95.2149 189.628 95.1738 189.581 95.1094 189.499ZM116.334 190.035C115.702 190.012 115.236 190 114.937 190C114.626 190 114.125 190.012 113.434 190.035L112.722 190.053C112.699 189.959 112.687 189.868 112.687 189.78C112.687 189.722 112.696 189.678 112.713 189.648C112.731 189.613 112.763 189.587 112.81 189.569L113.46 189.464C113.73 189.417 113.879 189.244 113.909 188.945C113.944 188.641 113.961 188.184 113.961 187.574V180.314C113.961 179.729 113.944 179.315 113.909 179.075C113.879 178.829 113.838 178.662 113.786 178.574H112.634C111.726 178.574 111.128 178.627 110.841 178.732C110.554 178.838 110.352 179.096 110.235 179.506L110.094 180.007C110.077 180.065 110.053 180.109 110.024 180.139C109.995 180.162 109.951 180.174 109.892 180.174L109.813 180.183C109.731 180.183 109.652 180.168 109.576 180.139C109.605 179.758 109.634 179.283 109.664 178.715C109.699 178.141 109.716 177.722 109.716 177.458C109.751 177.44 109.822 177.432 109.927 177.432C110.056 177.432 110.132 177.487 110.156 177.599C110.179 177.704 110.226 177.777 110.296 177.818C110.372 177.854 111.102 177.871 112.485 177.871H117.222C118.64 177.871 119.375 177.854 119.428 177.818C119.487 177.777 119.534 177.713 119.569 177.625L119.613 177.528C119.636 177.464 119.698 177.432 119.797 177.432C119.903 177.432 119.967 177.44 119.991 177.458C119.991 178.788 120.008 179.682 120.043 180.139C119.961 180.162 119.882 180.174 119.806 180.174H119.727C119.668 180.174 119.624 180.162 119.595 180.139C119.566 180.109 119.542 180.065 119.525 180.007L119.384 179.506C119.267 179.09 119.082 178.832 118.831 178.732C118.584 178.627 118.007 178.574 117.099 178.574H115.983C115.93 178.65 115.889 178.817 115.86 179.075C115.831 179.333 115.816 179.746 115.816 180.314V187.574C115.816 188.143 115.831 188.588 115.86 188.91C115.889 189.227 116.044 189.411 116.326 189.464L116.967 189.569C117.014 189.587 117.046 189.613 117.064 189.648C117.087 189.678 117.099 189.722 117.099 189.78C117.099 189.886 117.084 189.977 117.055 190.053C116.739 190.041 116.498 190.035 116.334 190.035ZM137.586 190.009C137.463 190.009 137.343 190.006 137.225 190C136.903 190 136.613 190.003 136.355 190.009C136.098 190.015 135.884 190.029 135.714 190.053C135.163 189.502 134.557 188.746 133.894 187.785C133.232 186.818 132.52 185.702 131.759 184.437L131.706 184.384C131.682 184.36 131.656 184.343 131.627 184.331H130.247C130.182 184.372 130.144 184.413 130.133 184.454V187.574C130.133 188.143 130.147 188.588 130.177 188.91C130.206 189.227 130.361 189.411 130.642 189.464L131.284 189.569C131.331 189.587 131.363 189.613 131.381 189.648C131.404 189.678 131.416 189.722 131.416 189.78C131.416 189.868 131.404 189.959 131.381 190.053L130.062 190.009C129.828 190.009 129.558 190.006 129.254 190C128.943 190 128.442 190.012 127.751 190.035L127.039 190.053C127.015 189.959 127.004 189.868 127.004 189.78C127.004 189.722 127.013 189.678 127.03 189.648C127.048 189.613 127.08 189.587 127.127 189.569L127.777 189.464C128.047 189.417 128.196 189.244 128.225 188.945C128.261 188.641 128.278 188.184 128.278 187.574V180.227C128.278 179.635 128.264 179.184 128.234 178.873C128.205 178.557 128.053 178.378 127.777 178.337L127.127 178.231C127.045 178.196 127.004 178.123 127.004 178.012C127.004 177.936 127.015 177.845 127.039 177.739L127.786 177.766C127.95 177.766 128.152 177.771 128.392 177.783C128.633 177.789 128.835 177.792 128.999 177.792C129.321 177.792 129.805 177.771 130.449 177.73C131.094 177.689 131.554 177.669 131.829 177.669C133.1 177.669 134.105 177.953 134.844 178.521C135.582 179.084 135.951 179.863 135.951 180.859C135.951 181.539 135.728 182.137 135.283 182.652C134.838 183.168 134.264 183.566 133.56 183.848C133.549 183.883 133.543 183.906 133.543 183.918L133.56 183.988C134.275 185.107 135.016 186.165 135.784 187.161C136.557 188.151 137.091 188.784 137.384 189.06C137.677 189.335 137.961 189.487 138.236 189.517L138.526 189.569C138.597 189.587 138.632 189.657 138.632 189.78C138.632 189.868 138.62 189.959 138.597 190.053C138.415 190.053 138.192 190.044 137.929 190.026L137.586 190.009ZM130.335 178.442C130.2 178.606 130.133 179.184 130.133 180.174V183.575C130.15 183.604 130.188 183.64 130.247 183.681H131.433C132.224 183.681 132.857 183.455 133.332 183.004C133.807 182.547 134.044 181.926 134.044 181.141C134.044 180.291 133.777 179.608 133.244 179.093C132.717 178.577 132.034 178.319 131.196 178.319C130.874 178.319 130.587 178.36 130.335 178.442ZM156.675 178.231L156.192 178.319C155.858 178.378 155.626 178.633 155.497 179.084C155.374 179.529 155.313 180.241 155.313 181.22V185.843C155.313 187.313 154.929 188.43 154.161 189.191C153.4 189.947 152.295 190.325 150.848 190.325C149.231 190.325 147.983 189.974 147.104 189.271C146.225 188.567 145.785 187.46 145.785 185.948V180.227C145.785 179.646 145.771 179.198 145.741 178.882C145.712 178.56 145.554 178.378 145.267 178.337L144.616 178.231C144.546 178.196 144.511 178.123 144.511 178.012C144.511 177.936 144.523 177.845 144.546 177.739L145.873 177.783C146.102 177.783 146.368 177.786 146.673 177.792C146.972 177.792 147.461 177.78 148.141 177.757C148.311 177.757 148.56 177.751 148.888 177.739C148.911 177.845 148.923 177.936 148.923 178.012C148.923 178.076 148.911 178.126 148.888 178.161C148.87 178.19 148.838 178.214 148.791 178.231L148.15 178.337C147.851 178.378 147.69 178.574 147.666 178.926C147.649 179.277 147.64 179.717 147.64 180.244V185.79C147.64 186.956 147.921 187.87 148.484 188.532C149.052 189.188 149.899 189.517 151.024 189.517C152.102 189.517 152.913 189.2 153.458 188.567C154.009 187.935 154.284 187.015 154.284 185.808V181.237C154.284 180.253 154.214 179.541 154.074 179.102C153.939 178.656 153.672 178.401 153.274 178.337L152.632 178.231C152.556 178.196 152.518 178.123 152.518 178.012C152.518 177.936 152.53 177.845 152.553 177.739C152.869 177.751 153.107 177.757 153.265 177.757C153.933 177.78 154.428 177.792 154.75 177.792C155.037 177.792 155.289 177.789 155.506 177.783L156.772 177.739C156.795 177.845 156.807 177.936 156.807 178.012C156.807 178.076 156.795 178.126 156.772 178.161C156.754 178.19 156.722 178.214 156.675 178.231ZM174.965 189.385L174.868 189.517C174.856 189.534 174.634 189.619 174.2 189.771C173.772 189.924 173.259 190.053 172.662 190.158C172.07 190.27 171.452 190.325 170.807 190.325C169.542 190.325 168.367 190.059 167.283 189.525C166.199 188.992 165.332 188.236 164.681 187.258C164.037 186.273 163.715 185.143 163.715 183.865C163.715 182.57 164.031 181.439 164.664 180.473C165.302 179.506 166.152 178.765 167.213 178.249C168.279 177.733 169.436 177.476 170.684 177.476C171.387 177.476 172.085 177.54 172.776 177.669C173.467 177.798 173.968 177.924 174.279 178.047C174.595 178.164 174.771 178.24 174.806 178.275C174.847 178.305 174.877 178.53 174.894 178.952C174.918 179.374 174.985 179.937 175.096 180.64L175.009 180.675C174.956 180.698 174.894 180.71 174.824 180.71C174.754 180.71 174.698 180.704 174.657 180.692C174.616 180.675 174.551 180.514 174.464 180.209C174.376 179.898 174.168 179.573 173.84 179.233C173.517 178.888 173.084 178.618 172.539 178.425C171.994 178.231 171.399 178.135 170.755 178.135C169.243 178.135 168.039 178.615 167.142 179.576C166.252 180.537 165.806 181.791 165.806 183.338C165.806 185.143 166.31 186.648 167.318 187.855C168.332 189.057 169.653 189.657 171.282 189.657C172.219 189.657 172.967 189.435 173.523 188.989C174.086 188.544 174.496 187.879 174.754 186.994C174.777 186.947 174.798 186.918 174.815 186.906C174.833 186.895 174.859 186.889 174.894 186.889C175.023 186.889 175.114 186.897 175.167 186.915C175.219 186.933 175.249 186.941 175.255 186.941C175.073 188.184 174.976 188.998 174.965 189.385ZM193.773 189.385L193.676 189.517C193.664 189.534 193.442 189.619 193.008 189.771C192.58 189.924 192.068 190.053 191.47 190.158C190.878 190.27 190.26 190.325 189.615 190.325C188.35 190.325 187.175 190.059 186.091 189.525C185.007 188.992 184.14 188.236 183.489 187.258C182.845 186.273 182.523 185.143 182.523 183.865C182.523 182.57 182.839 181.439 183.472 180.473C184.11 179.506 184.96 178.765 186.021 178.249C187.087 177.733 188.244 177.476 189.492 177.476C190.195 177.476 190.893 177.54 191.584 177.669C192.276 177.798 192.776 177.924 193.087 178.047C193.403 178.164 193.579 178.24 193.614 178.275C193.655 178.305 193.685 178.53 193.702 178.952C193.726 179.374 193.793 179.937 193.904 180.64L193.817 180.675C193.764 180.698 193.702 180.71 193.632 180.71C193.562 180.71 193.506 180.704 193.465 180.692C193.424 180.675 193.359 180.514 193.272 180.209C193.184 179.898 192.976 179.573 192.648 179.233C192.325 178.888 191.892 178.618 191.347 178.425C190.802 178.231 190.207 178.135 189.563 178.135C188.051 178.135 186.847 178.615 185.95 179.576C185.06 180.537 184.614 181.791 184.614 183.338C184.614 185.143 185.118 186.648 186.126 187.855C187.14 189.057 188.461 189.657 190.09 189.657C191.027 189.657 191.775 189.435 192.331 188.989C192.894 188.544 193.304 187.879 193.562 186.994C193.585 186.947 193.606 186.918 193.623 186.906C193.641 186.895 193.667 186.889 193.702 186.889C193.831 186.889 193.922 186.897 193.975 186.915C194.027 186.933 194.057 186.941 194.063 186.941C193.881 188.184 193.784 188.998 193.773 189.385ZM201.77 189.569L202.412 189.464C202.693 189.411 202.848 189.227 202.878 188.91C202.907 188.588 202.921 188.143 202.921 187.574V180.227C202.921 179.676 202.907 179.233 202.878 178.899C202.854 178.565 202.699 178.378 202.412 178.337L201.77 178.231C201.723 178.214 201.688 178.19 201.665 178.161C201.647 178.126 201.638 178.076 201.638 178.012C201.638 177.936 201.65 177.845 201.673 177.739L203.001 177.783C203.229 177.783 203.496 177.786 203.8 177.792C204.123 177.792 204.624 177.78 205.303 177.757L206.015 177.739C206.039 177.845 206.05 177.936 206.05 178.012C206.05 178.123 206.009 178.196 205.927 178.231L205.277 178.337C205.002 178.378 204.849 178.557 204.82 178.873C204.791 179.184 204.776 179.635 204.776 180.227V187.574C204.776 188.184 204.791 188.641 204.82 188.945C204.855 189.244 205.007 189.417 205.277 189.464L205.927 189.569C205.974 189.587 206.006 189.613 206.024 189.648C206.042 189.678 206.05 189.722 206.05 189.78C206.05 189.868 206.039 189.959 206.015 190.053L204.697 190.009C204.462 190.009 204.193 190.006 203.888 190C203.578 190 203.077 190.012 202.385 190.035L201.673 190.053C201.65 189.959 201.638 189.868 201.638 189.78C201.638 189.722 201.647 189.678 201.665 189.648C201.688 189.613 201.723 189.587 201.77 189.569ZM219.726 177.476C221.513 177.476 223.033 178.105 224.287 179.365C225.541 180.619 226.168 182.131 226.168 183.9C226.168 185.699 225.564 187.22 224.357 188.462C223.15 189.704 221.656 190.325 219.875 190.325C218.1 190.325 216.576 189.692 215.305 188.427C214.039 187.155 213.406 185.641 213.406 183.883C213.406 182.09 214.01 180.575 215.217 179.339C216.424 178.097 217.927 177.476 219.726 177.476ZM219.55 178.135C218.267 178.135 217.273 178.645 216.57 179.664C215.867 180.684 215.516 181.97 215.516 183.522C215.516 184.501 215.686 185.462 216.025 186.405C216.371 187.349 216.887 188.128 217.572 188.743C218.258 189.353 219.084 189.657 220.051 189.657C221.328 189.657 222.318 189.147 223.021 188.128C223.73 187.103 224.085 185.813 224.085 184.261C224.085 183.288 223.912 182.33 223.566 181.387C223.227 180.443 222.714 179.667 222.028 179.058C221.343 178.442 220.517 178.135 219.55 178.135ZM244.352 190.246L244.308 190.202C244.138 189.974 243.778 189.534 243.227 188.884L235.791 180.244H235.756V186.493C235.756 187.554 235.815 188.295 235.932 188.717C236.049 189.133 236.31 189.382 236.714 189.464L237.356 189.569C237.397 189.587 237.426 189.613 237.444 189.648C237.461 189.678 237.47 189.722 237.47 189.78C237.47 189.868 237.458 189.959 237.435 190.053L236.697 190.026C236.527 190.026 236.313 190.021 236.055 190.009C235.797 190.003 235.583 190 235.413 190C235.249 190 235.041 190.003 234.789 190.009C234.538 190.015 234.332 190.021 234.174 190.026L233.471 190.053C233.448 189.959 233.436 189.868 233.436 189.78C233.436 189.722 233.445 189.678 233.462 189.648C233.48 189.613 233.512 189.587 233.559 189.569L234.121 189.481C234.455 189.423 234.658 189.174 234.728 188.734C234.804 188.289 234.842 187.571 234.842 186.581V179.972C234.842 179.515 234.734 179.14 234.517 178.847C234.3 178.554 234.069 178.387 233.823 178.346L233.629 178.319L233.146 178.267C233.064 178.226 233.023 178.152 233.023 178.047C233.023 177.982 233.032 177.918 233.049 177.854L233.076 177.739L233.577 177.766C233.664 177.766 233.788 177.771 233.946 177.783C234.11 177.789 234.256 177.792 234.385 177.792C235.241 177.792 235.753 177.78 235.923 177.757C236.093 177.728 236.219 177.754 236.301 177.836L236.609 178.231C237.154 178.929 237.643 179.526 238.077 180.024L244.088 187.082H244.123V181.308C244.123 180.259 244.065 179.521 243.948 179.093C243.836 178.665 243.579 178.413 243.174 178.337L242.524 178.231C242.43 178.196 242.383 178.123 242.383 178.012C242.383 177.959 242.392 177.906 242.41 177.854L242.436 177.739L243.174 177.766C243.344 177.766 243.558 177.771 243.816 177.783C244.074 177.789 244.29 177.792 244.466 177.792C244.624 177.792 244.824 177.789 245.064 177.783C245.31 177.777 245.512 177.771 245.67 177.766L246.391 177.739C246.42 177.827 246.435 177.918 246.435 178.012C246.435 178.123 246.391 178.196 246.303 178.231L245.767 178.319C245.445 178.366 245.243 178.606 245.161 179.04C245.084 179.468 245.046 180.194 245.046 181.22V186.889C245.046 187.586 245.058 188.251 245.081 188.884C245.111 189.517 245.146 189.979 245.187 190.272C245.046 190.296 244.824 190.308 244.519 190.308C244.466 190.308 244.428 190.302 244.405 190.29C244.387 190.284 244.37 190.27 244.352 190.246ZM262.518 190.035C262.472 190.018 262.348 190.009 262.149 190.009C261.95 190.009 261.669 190.006 261.306 190H255.953C255.349 190 254.863 190.009 254.494 190.026C254.125 190.044 253.926 190.053 253.896 190.053C253.873 189.959 253.861 189.868 253.861 189.78C253.861 189.722 253.87 189.678 253.888 189.648C253.905 189.613 253.937 189.587 253.984 189.569L254.635 189.464C254.904 189.417 255.054 189.244 255.083 188.945C255.118 188.641 255.136 188.184 255.136 187.574V180.227C255.136 179.635 255.121 179.184 255.092 178.873C255.062 178.557 254.91 178.378 254.635 178.337L253.984 178.231C253.902 178.196 253.861 178.123 253.861 178.012C253.861 177.936 253.873 177.845 253.896 177.739C254.09 177.763 254.374 177.777 254.749 177.783C255.13 177.789 255.525 177.792 255.935 177.792H258.809L260.62 177.801C261.141 177.801 261.458 177.786 261.569 177.757C261.681 177.833 261.73 177.874 261.719 177.88C261.713 177.886 261.751 178.152 261.833 178.68C261.921 179.207 262.006 179.632 262.088 179.954C262.035 179.989 261.971 180.016 261.894 180.033C261.818 180.045 261.768 180.051 261.745 180.051C261.669 180.051 261.616 180.013 261.587 179.937L261.42 179.523C261.244 179.113 260.995 178.841 260.673 178.706C260.356 178.565 259.729 178.495 258.792 178.495H257.192C257.046 178.671 256.973 179.23 256.973 180.174V183.215C256.984 183.256 257.022 183.297 257.087 183.338H258.686C259.343 183.338 259.806 183.294 260.075 183.206C260.345 183.118 260.494 182.954 260.523 182.714L260.594 182.169C260.617 182.087 260.676 182.046 260.769 182.046C260.822 182.046 260.878 182.052 260.936 182.063L261.059 182.099L261.033 182.828C261.015 183.18 261.007 183.487 261.007 183.751C261.007 184.003 261.015 184.296 261.033 184.63L261.059 185.395C260.942 185.418 260.846 185.43 260.769 185.43C260.67 185.43 260.611 185.395 260.594 185.324L260.523 184.674C260.494 184.422 260.333 184.252 260.04 184.164C259.747 184.07 259.296 184.023 258.686 184.023H257.087C257.022 184.064 256.984 184.105 256.973 184.146V187.17C256.973 187.973 257.049 188.529 257.201 188.84C257.353 189.145 257.681 189.297 258.185 189.297H259.583C260.473 189.297 261.092 189.238 261.437 189.121C261.783 188.998 262.097 188.69 262.378 188.198L262.668 187.68C262.732 187.615 262.794 187.583 262.852 187.583C262.876 187.583 262.931 187.595 263.019 187.618C263.107 187.636 263.169 187.656 263.204 187.68C263.093 187.949 262.975 188.368 262.852 188.937C262.735 189.505 262.677 189.815 262.677 189.868C262.677 189.921 262.624 189.977 262.518 190.035ZM270.586 189.499L270.525 188.928C270.443 188.025 270.366 187.41 270.296 187.082C270.402 187.047 270.504 187.029 270.604 187.029C270.733 187.029 270.8 187.064 270.806 187.135C270.812 187.199 270.876 187.407 270.999 187.759C271.128 188.104 271.283 188.395 271.465 188.629C271.647 188.863 271.855 189.062 272.089 189.227C272.323 189.385 272.59 189.502 272.889 189.578C273.188 189.654 273.504 189.692 273.838 189.692C274.571 189.692 275.156 189.493 275.596 189.095C276.035 188.69 276.255 188.146 276.255 187.46C276.255 186.88 276.091 186.37 275.763 185.931C275.441 185.485 274.752 184.976 273.698 184.401C272.643 183.827 271.928 183.273 271.553 182.74C271.184 182.207 270.999 181.574 270.999 180.842C270.999 179.875 271.336 179.072 272.01 178.434C272.69 177.795 273.636 177.476 274.849 177.476C275.429 177.476 275.948 177.517 276.405 177.599C276.867 177.675 277.134 177.739 277.204 177.792C277.281 177.845 277.319 177.909 277.319 177.985C277.319 178.056 277.365 178.507 277.459 179.339L277.53 179.919C277.459 179.966 277.368 179.989 277.257 179.989C277.116 179.989 277.034 179.922 277.011 179.787C276.993 179.652 276.897 179.43 276.721 179.119C276.545 178.803 276.287 178.548 275.948 178.354C275.608 178.161 275.18 178.064 274.664 178.064C274.031 178.064 273.51 178.249 273.1 178.618C272.696 178.987 272.493 179.462 272.493 180.042C272.493 180.546 272.663 181.006 273.003 181.422C273.343 181.832 274.058 182.342 275.148 182.951C276.243 183.555 276.996 184.126 277.406 184.665C277.823 185.204 278.031 185.825 278.031 186.528C278.031 187.653 277.6 188.567 276.739 189.271C275.883 189.974 274.852 190.325 273.645 190.325C273.059 190.325 272.52 190.267 272.028 190.149C271.541 190.038 271.102 189.868 270.709 189.64C270.692 189.628 270.651 189.581 270.586 189.499Z" fill="black"/>
<path d="M34.5 203.5V204H157H279.5V203.5V203H157H34.5V203.5Z" fill="black"/>
<path d="M34.5 164.5V165H157H279.5V164.5V164H157H34.5V164.5Z" fill="black"/>
</svg>
