<svg width="27" height="26" viewBox="0 0 27 26" fill="none" xmlns="http://www.w3.org/2000/svg">
<path fill-rule="evenodd" clip-rule="evenodd" d="M24.6256 4.93116C25.4356 5.13904 26.059 5.74728 26.2694 6.53261C26.6665 8.06861 27 10.3091 27 12.9961V13.0038C27 15.687 26.6665 17.9314 26.2694 19.4674C26.059 20.2527 25.4356 20.861 24.6256 21.0688C22.6641 21.5 13.5 21.5 13.5 21.5C13.5 21.5 4.33588 21.5 2.37441 21.0688C1.56441 20.861 0.941029 20.2527 0.730588 19.4674C0.333529 17.9314 0 15.687 0 13.0038V12.9961C0 10.3091 0.333529 8.06861 0.730588 6.53261C0.941029 5.74728 1.56441 5.13904 2.37441 4.93116C4.33588 4.5 13.5 4.5 13.5 4.5C13.5 4.5 22.6641 4.5 24.6256 4.93116ZM17 13L11 9.5V16.5L17 13Z" fill="#F2F2F2"/>
</svg>
