<svg width="279" height="140" viewBox="0 0 279 140" fill="none" xmlns="http://www.w3.org/2000/svg">
<rect width="279" height="140" fill="black"/>
<path d="M55.4765 37.244C55.4765 34.5747 54.7312 32.616 53.2405 31.368C51.7499 30.0853 49.7392 29.444 47.2085 29.444C46.4805 29.444 45.7525 29.4613 45.0245 29.496C44.3312 29.496 43.6379 29.496 42.9445 29.496C42.6672 29.496 42.3899 29.6173 42.1125 29.86C41.8352 30.068 41.6965 30.3107 41.6965 30.588V45.2C42.3899 45.72 43.2565 46.032 44.2965 46.136C45.3365 46.24 46.2725 46.292 47.1045 46.292C50.0165 46.292 52.1312 45.4947 53.4485 43.9C54.8005 42.2707 55.4765 40.052 55.4765 37.244ZM61.7685 37.088C61.7685 39.376 61.3525 41.248 60.5205 42.704C59.6885 44.1253 58.5619 45.2347 57.1405 46.032C55.7539 46.7947 54.1765 47.332 52.4085 47.644C50.6405 47.956 48.8032 48.112 46.8965 48.112C46.0299 48.112 45.1632 48.06 44.2965 47.956C43.4645 47.852 42.6152 47.748 41.7485 47.644C41.7485 50.2093 41.7485 52.7747 41.7485 55.34C41.7485 57.9053 41.7485 60.4707 41.7485 63.036C41.7485 63.556 41.9392 63.9027 42.3205 64.076C42.7365 64.2147 43.1525 64.284 43.5685 64.284C44.0539 64.284 44.5219 64.2667 44.9725 64.232C45.4232 64.1973 45.8739 64.18 46.3245 64.18C46.8099 64.18 47.0525 64.4747 47.0525 65.064C47.0525 65.272 46.9659 65.48 46.7925 65.688C46.6539 65.896 46.4632 66 46.2205 66C45.1459 66 44.0365 65.9827 42.8925 65.948C41.7832 65.8787 40.6739 65.844 39.5645 65.844C38.2472 65.844 36.9125 65.8787 35.5605 65.948C34.2085 65.9827 32.8739 66.0347 31.5565 66.104C31.3139 66 31.1579 65.9307 31.0885 65.896C31.0192 65.8267 30.9845 65.6187 30.9845 65.272C30.9845 65.0293 31.0365 64.8213 31.1405 64.648C31.2792 64.4747 31.4872 64.388 31.7645 64.388C32.0765 64.388 32.3885 64.4053 32.7005 64.44C33.0472 64.44 33.3765 64.44 33.6885 64.44C33.8965 64.44 34.1045 64.44 34.3125 64.44C34.5205 64.4053 34.7285 64.3707 34.9365 64.336C35.2139 64.232 35.4045 64.0933 35.5085 63.92C35.6125 63.712 35.6819 63.4693 35.7165 63.192C35.7512 62.7067 35.7512 62.2213 35.7165 61.736C35.7165 61.2507 35.7165 60.7827 35.7165 60.332C35.7512 59.3267 35.7685 58.3213 35.7685 57.316C35.7685 56.3107 35.7685 55.3053 35.7685 54.3C35.7685 50.348 35.7512 46.396 35.7165 42.444C35.7165 38.492 35.7165 34.54 35.7165 30.588C35.7165 29.9987 35.4565 29.652 34.9365 29.548C34.4512 29.4093 33.9832 29.34 33.5325 29.34C33.2205 29.34 32.9085 29.3573 32.5965 29.392C32.2845 29.4267 31.9725 29.444 31.6605 29.444C31.2099 29.444 30.9845 29.2013 30.9845 28.716C30.9845 28.4387 31.0192 28.2133 31.0885 28.04C31.1579 27.8667 31.3659 27.78 31.7125 27.78C32.8565 27.78 34.0005 27.8147 35.1445 27.884C36.2885 27.9533 37.4325 27.988 38.5765 27.988C40.3792 27.988 42.1645 27.9533 43.9325 27.884C45.7352 27.8147 47.5205 27.78 49.2885 27.78C50.7792 27.78 52.2525 27.936 53.7085 28.248C55.1992 28.56 56.5512 29.08 57.7645 29.808C58.9779 30.536 59.9485 31.5067 60.6765 32.72C61.4045 33.8987 61.7685 35.3547 61.7685 37.088ZM82.9858 28.56C82.9858 29.184 82.7084 29.496 82.1538 29.496C81.7724 29.496 81.3911 29.496 81.0098 29.496C80.6284 29.4613 80.2471 29.444 79.8658 29.444C79.5191 29.444 79.1378 29.5827 78.7218 29.86C78.3404 30.1027 78.1498 30.432 78.1498 30.848V63.192C78.1498 63.608 78.3231 63.92 78.6698 64.128C79.0164 64.3013 79.3631 64.388 79.7098 64.388C80.0911 64.388 80.4724 64.388 80.8538 64.388C81.2698 64.3533 81.6684 64.336 82.0498 64.336C82.6044 64.336 82.8818 64.5787 82.8818 65.064C82.8818 65.3413 82.8471 65.584 82.7778 65.792C82.7084 65.9653 82.5178 66.052 82.2058 66.052C80.9924 66.052 79.7618 66.0173 78.5138 65.948C77.3004 65.844 76.0698 65.792 74.8218 65.792C74.2671 65.792 73.6951 65.8093 73.1058 65.844C72.5164 65.844 71.9271 65.8613 71.3378 65.896C70.7484 65.9307 70.1418 65.9827 69.5178 66.052C68.9284 66.1213 68.3391 66.156 67.7498 66.156C67.5418 66.156 67.3684 66.0693 67.2298 65.896C67.0911 65.688 67.0218 65.48 67.0218 65.272C67.0218 65.0293 67.0911 64.8213 67.2298 64.648C67.4031 64.4747 67.6111 64.388 67.8538 64.388C68.2351 64.388 68.6164 64.4053 68.9978 64.44C69.4138 64.44 69.8298 64.44 70.2458 64.44C70.5924 64.44 71.0084 64.3533 71.4938 64.18C71.9791 63.972 72.2218 63.6427 72.2218 63.192V30.796C72.2218 30.172 71.9444 29.7907 71.3898 29.652C70.8351 29.4787 70.2111 29.4093 69.5178 29.444C68.8591 29.4787 68.3391 29.496 67.9578 29.496C67.4724 29.496 67.2298 29.2187 67.2298 28.664C67.2298 28.3867 67.2471 28.1613 67.2818 27.988C67.3511 27.8147 67.5591 27.728 67.9058 27.728C69.0151 27.728 70.1244 27.7627 71.2338 27.832C72.3778 27.9013 73.5044 27.936 74.6138 27.936C75.4111 27.936 76.1911 27.936 76.9538 27.936C77.7511 27.936 78.5311 27.9187 79.2938 27.884C79.7791 27.884 80.2644 27.8667 80.7498 27.832C81.2698 27.7627 81.7551 27.728 82.2058 27.728C82.4484 27.728 82.6391 27.8147 82.7778 27.988C82.9164 28.1613 82.9858 28.352 82.9858 28.56ZM121.782 56.952C121.782 57.576 121.713 58.2173 121.574 58.876C121.47 59.5 121.366 60.124 121.262 60.748C121.193 61.4413 121.141 62.152 121.106 62.88C121.072 63.5733 120.968 64.2667 120.794 64.96C120.76 65.2027 120.621 65.428 120.378 65.636C120.17 65.844 119.928 65.948 119.65 65.948C115.941 65.948 112.232 65.9307 108.522 65.896C104.813 65.8267 101.104 65.792 97.3942 65.792C96.2502 65.792 95.1062 65.844 93.9622 65.948C92.8529 66.0173 91.7436 66.052 90.6342 66.052C90.4262 66.052 90.2009 66 89.9582 65.896C89.7156 65.7573 89.5942 65.5667 89.5942 65.324C89.5942 64.8733 89.7676 64.5787 90.1142 64.44C90.4609 64.3013 90.8769 64.232 91.3622 64.232C91.8822 64.232 92.3849 64.1973 92.8702 64.128C93.3556 64.0587 93.7716 63.8507 94.1182 63.504C94.4649 63.1227 94.6382 62.4987 94.6382 61.632L94.5862 32.044C94.5862 31.2467 94.3609 30.744 93.9102 30.536C93.4596 30.2933 92.9049 30.172 92.2462 30.172C91.9689 30.172 91.6742 30.1893 91.3622 30.224C91.0849 30.224 90.8076 30.224 90.5302 30.224C90.1836 30.224 89.8716 30.1547 89.5942 30.016C89.3169 29.8773 89.1782 29.6173 89.1782 29.236C89.1782 28.4733 89.5422 28.092 90.2702 28.092C90.8596 28.092 91.4489 28.1093 92.0382 28.144C92.6276 28.1787 93.2169 28.196 93.8062 28.196C97.3076 28.196 100.792 28.1787 104.258 28.144C107.76 28.0747 111.261 28.04 114.762 28.04C116.426 28.04 118.09 27.988 119.754 27.884C119.893 28.8893 120.066 29.912 120.274 30.952C120.482 31.9573 120.656 32.98 120.794 34.02C120.864 34.1933 120.916 34.384 120.95 34.592C120.985 34.8 121.002 34.9907 121.002 35.164C121.002 35.58 120.846 35.8747 120.534 36.048C120.257 36.1867 119.928 36.256 119.546 36.256C119.2 36.256 118.94 36.204 118.766 36.1C118.593 35.9613 118.437 35.7187 118.298 35.372C117.709 33.3613 116.877 31.9573 115.802 31.16C114.728 30.3627 113.133 29.964 111.018 29.964H100.514V45.252C101.832 45.2173 103.132 45.2 104.414 45.2C105.697 45.1653 106.98 45.1133 108.262 45.044C109.614 44.9747 110.932 44.8533 112.214 44.68C113.497 44.472 114.797 44.2467 116.114 44.004C116.149 44.004 116.166 44.004 116.166 44.004C116.201 44.004 116.236 44.004 116.27 44.004C116.374 44.004 116.513 44.0387 116.686 44.108C116.894 44.1773 116.998 44.2813 116.998 44.42C116.998 44.6627 116.877 45.096 116.634 45.72C116.426 46.344 116.27 46.76 116.166 46.968C115.924 47.4187 115.56 47.644 115.074 47.644C114.797 47.644 114.502 47.644 114.19 47.644C113.913 47.6093 113.636 47.5747 113.358 47.54C112.734 47.4707 112.11 47.4187 111.486 47.384C110.862 47.3493 110.238 47.3147 109.614 47.28C108.748 47.28 107.898 47.28 107.066 47.28C106.234 47.28 105.385 47.28 104.518 47.28C104.033 47.28 103.461 47.3147 102.802 47.384C102.178 47.4533 101.641 47.644 101.19 47.956C100.74 48.268 100.514 48.7707 100.514 49.464V61.892C100.514 62.8973 100.722 63.5213 101.138 63.764C101.589 63.972 102.248 64.076 103.114 64.076H107.638C108.574 64.076 109.614 64.024 110.758 63.92C111.937 63.816 113.064 63.608 114.138 63.296C115.248 62.984 116.149 62.4987 116.842 61.84C117.57 61.1467 118.125 60.3493 118.506 59.448C118.922 58.5467 119.338 57.6627 119.754 56.796C119.928 56.4147 120.274 56.224 120.794 56.224C121.037 56.224 121.262 56.276 121.47 56.38C121.678 56.484 121.782 56.6747 121.782 56.952ZM159.109 46.344C159.109 44.9227 158.971 43.4147 158.693 41.82C158.416 40.1907 157.965 38.6307 157.341 37.14C156.717 35.6493 155.885 34.4013 154.845 33.396C153.909 32.46 152.783 31.6627 151.465 31.004C150.183 30.3107 148.883 29.8947 147.565 29.756C147.184 29.6867 146.785 29.652 146.369 29.652C145.953 29.652 145.537 29.652 145.121 29.652C142.625 29.652 140.095 29.704 137.529 29.808V61.58C137.529 62.5507 137.824 63.192 138.413 63.504C139.037 63.816 139.765 63.972 140.597 63.972C141.949 63.972 143.336 63.92 144.757 63.816C146.179 63.712 147.565 63.4693 148.917 63.088C150.269 62.7067 151.5 62.1 152.609 61.268C155.001 59.5 156.683 57.2813 157.653 54.612C158.624 51.9427 159.109 49.1867 159.109 46.344ZM165.505 45.616C165.505 49.048 164.777 52.3067 163.321 55.392C161.865 58.4427 159.647 60.8867 156.665 62.724C155.452 63.4867 154.031 64.1107 152.401 64.596C150.807 65.0467 149.177 65.3933 147.513 65.636C145.849 65.844 144.289 65.948 142.833 65.948C141.62 65.948 140.389 65.9133 139.141 65.844C137.893 65.74 136.645 65.688 135.397 65.688C134.392 65.688 133.369 65.7053 132.329 65.74C131.324 65.7747 130.319 65.8267 129.313 65.896C129.14 65.896 128.949 65.9133 128.741 65.948C128.568 65.948 128.395 65.948 128.221 65.948C127.979 65.948 127.788 65.8613 127.649 65.688C127.511 65.48 127.441 65.272 127.441 65.064C127.441 64.8213 127.615 64.648 127.961 64.544C128.343 64.44 128.759 64.3533 129.209 64.284C129.66 64.18 129.972 64.076 130.145 63.972C130.735 63.6947 131.116 63.2613 131.289 62.672C131.497 62.048 131.601 61.4413 131.601 60.852C131.601 58.9453 131.601 57.0387 131.601 55.132C131.636 53.2253 131.653 51.3187 131.653 49.412C131.653 47.1587 131.636 44.9227 131.601 42.704C131.601 40.4507 131.601 38.2147 131.601 35.996C131.601 35.3373 131.619 34.6787 131.653 34.02C131.688 33.3613 131.671 32.7027 131.601 32.044C131.567 31.5587 131.445 31.1253 131.237 30.744C131.064 30.328 130.7 30.0507 130.145 29.912C129.764 29.8427 129.313 29.8253 128.793 29.86C128.308 29.86 127.857 29.86 127.441 29.86C127.164 29.86 126.887 29.7907 126.609 29.652C126.367 29.5133 126.245 29.2707 126.245 28.924C126.245 28.3 126.609 27.988 127.337 27.988C128.135 27.988 128.932 28.0227 129.729 28.092C130.527 28.1613 131.324 28.196 132.121 28.196C134.687 28.196 137.235 28.1093 139.765 27.936C142.331 27.7627 144.879 27.676 147.409 27.676C151.153 27.676 154.377 28.404 157.081 29.86C159.785 31.2813 161.865 33.3267 163.321 35.996C164.777 38.6653 165.505 41.872 165.505 45.616ZM195.16 37.14C195.16 34.8867 194.762 33.2053 193.964 32.096C193.167 30.952 192.04 30.1893 190.584 29.808C189.163 29.4267 187.464 29.236 185.488 29.236C185.142 29.236 184.674 29.2533 184.084 29.288C183.53 29.288 183.01 29.392 182.524 29.6C182.074 29.7733 181.848 30.12 181.848 30.64C181.848 32.9627 181.831 35.2853 181.796 37.608C181.796 39.896 181.796 42.2187 181.796 44.576V44.94C182.178 45.044 182.576 45.1133 182.992 45.148C183.408 45.148 183.807 45.148 184.188 45.148C186.026 45.148 187.776 44.94 189.44 44.524C191.104 44.0733 192.474 43.276 193.548 42.132C194.623 40.988 195.16 39.324 195.16 37.14ZM207.224 65.22C207.224 65.4973 206.964 65.7227 206.444 65.896C205.959 66.0347 205.352 66.1213 204.624 66.156C203.931 66.2253 203.272 66.26 202.648 66.26C202.024 66.26 201.608 66.26 201.4 66.26C199.944 66.26 198.766 66.104 197.864 65.792C196.963 65.48 196.114 64.6827 195.316 63.4C193.618 60.6613 191.988 57.888 190.428 55.08C188.868 52.2373 187.308 49.3947 185.748 46.552L181.848 46.708C181.848 49.4467 181.848 52.2027 181.848 54.976C181.848 57.7147 181.848 60.4533 181.848 63.192C181.848 63.6427 182.004 63.9547 182.316 64.128C182.663 64.3013 183.027 64.388 183.408 64.388C183.894 64.388 184.362 64.3707 184.812 64.336C185.298 64.3013 185.766 64.284 186.216 64.284C186.459 64.284 186.65 64.4053 186.788 64.648C186.927 64.856 186.996 65.064 186.996 65.272C186.996 65.6187 186.875 65.844 186.632 65.948C186.39 66.0173 186.13 66.052 185.852 66.052C184.292 66.052 182.732 66.0347 181.172 66C179.647 65.9653 178.104 65.948 176.544 65.948C175.747 65.948 174.932 65.9653 174.1 66C173.303 66.0693 172.488 66.104 171.656 66.104C171.448 66.104 171.258 66 171.084 65.792C170.911 65.584 170.824 65.376 170.824 65.168C170.824 64.648 171.136 64.388 171.76 64.388C172.072 64.388 172.367 64.4053 172.644 64.44C172.956 64.44 173.251 64.44 173.528 64.44C174.014 64.44 174.516 64.388 175.036 64.284C175.556 64.1453 175.851 63.7813 175.92 63.192C175.99 62.2907 176.007 61.268 175.972 60.124C175.972 58.98 175.972 57.94 175.972 57.004C175.972 55.86 175.972 54.716 175.972 53.572C175.972 52.3933 175.972 51.232 175.972 50.088C175.972 47.7307 175.972 45.3733 175.972 43.016C175.972 40.6587 175.972 38.3187 175.972 35.996C175.972 35.0947 175.972 34.1933 175.972 33.292C176.007 32.3907 175.99 31.5067 175.92 30.64C175.886 30.0507 175.643 29.704 175.192 29.6C174.742 29.496 174.274 29.444 173.788 29.444C173.546 29.444 173.268 29.4613 172.956 29.496C172.679 29.496 172.402 29.496 172.124 29.496C171.396 29.496 171.032 29.1493 171.032 28.456C171.032 28.1787 171.119 28.0053 171.292 27.936C171.466 27.832 171.674 27.78 171.916 27.78C173.095 27.78 174.256 27.832 175.4 27.936C176.579 28.0053 177.758 28.04 178.936 28.04C180.566 28.04 182.178 27.9707 183.772 27.832C185.367 27.6933 186.962 27.624 188.556 27.624C189.908 27.624 191.33 27.7627 192.82 28.04C194.346 28.2827 195.767 28.7333 197.084 29.392C198.402 30.016 199.476 30.8827 200.308 31.992C201.14 33.1013 201.556 34.488 201.556 36.152C201.556 38.2667 200.967 40.0693 199.788 41.56C198.61 43.0507 197.102 44.212 195.264 45.044C194.64 45.356 193.982 45.5987 193.288 45.772C192.63 45.9107 191.954 46.0493 191.26 46.188C192.89 48.892 194.554 51.5787 196.252 54.248C197.951 56.8827 199.702 59.4827 201.504 62.048C201.99 62.7067 202.527 63.2613 203.116 63.712C203.706 64.1627 204.416 64.4747 205.248 64.648C205.422 64.6827 205.664 64.7 205.976 64.7C206.288 64.6653 206.566 64.6827 206.808 64.752C207.086 64.8213 207.224 64.9773 207.224 65.22ZM233.382 50.608C232.307 47.6267 231.25 44.6453 230.21 41.664C229.17 38.6827 228.113 35.7187 227.038 32.772C225.998 35.7187 224.958 38.6827 223.918 41.664C222.878 44.6453 221.855 47.6267 220.85 50.608H233.382ZM248.774 65.272C248.774 65.8267 248.514 66.104 247.994 66.104C247.647 66.104 247.266 66.0867 246.85 66.052C246.469 66.052 246.087 66.0347 245.706 66C244.943 65.9653 244.163 65.948 243.366 65.948C242.603 65.948 241.823 65.948 241.026 65.948C240.645 65.948 240.246 65.948 239.83 65.948C239.449 65.948 239.05 65.948 238.634 65.948C237.871 65.948 237.091 65.9827 236.294 66.052C235.497 66.156 234.699 66.208 233.902 66.208C233.659 66.208 233.486 66.0867 233.382 65.844C233.278 65.5667 233.226 65.324 233.226 65.116C233.226 64.9427 233.313 64.7867 233.486 64.648C233.659 64.5093 233.815 64.44 233.954 64.44L236.502 64.492C236.779 64.492 237.074 64.44 237.386 64.336C237.698 64.1973 237.854 63.9547 237.854 63.608C237.854 63.5387 237.733 63.1573 237.49 62.464C237.282 61.736 237.005 60.8693 236.658 59.864C236.311 58.8587 235.947 57.8533 235.566 56.848C235.185 55.808 234.855 54.9067 234.578 54.144C234.301 53.3467 234.11 52.8267 234.006 52.584H220.33C220.226 52.896 220.018 53.4507 219.706 54.248C219.429 55.0453 219.099 55.9467 218.718 56.952C218.337 57.9573 217.973 58.9627 217.626 59.968C217.279 60.9387 216.985 61.788 216.742 62.516C216.534 63.2093 216.43 63.6427 216.43 63.816C216.43 64.2667 216.673 64.544 217.158 64.648C217.678 64.752 218.094 64.804 218.406 64.804C218.787 64.804 219.151 64.7867 219.498 64.752C219.879 64.6827 220.243 64.648 220.59 64.648C220.902 64.648 221.075 64.7693 221.11 65.012C221.179 65.22 221.214 65.4453 221.214 65.688C221.145 65.896 221.023 66.0173 220.85 66.052C220.677 66.0867 220.503 66.104 220.33 66.104C219.325 66.104 218.302 66.0867 217.262 66.052C216.222 66.052 215.199 66.052 214.194 66.052C213.431 66.052 212.669 66.0693 211.906 66.104C211.178 66.1387 210.45 66.156 209.722 66.156C209.202 66.156 208.942 65.8787 208.942 65.324C208.942 65.012 209.098 64.8213 209.41 64.752C209.722 64.6827 210.069 64.6653 210.45 64.7C210.866 64.7 211.161 64.7 211.334 64.7C211.819 64.7 212.218 64.5613 212.53 64.284C212.842 64.0067 213.102 63.6773 213.31 63.296C213.449 62.984 213.778 62.152 214.298 60.8C214.853 59.448 215.511 57.7493 216.274 55.704C217.037 53.6587 217.851 51.4573 218.718 49.1C219.585 46.708 220.434 44.3507 221.266 42.028C222.133 39.6707 222.913 37.504 223.606 35.528C224.299 33.552 224.854 31.9227 225.27 30.64C225.686 29.3573 225.894 28.6293 225.894 28.456C225.894 28.3867 225.859 28.3173 225.79 28.248C225.755 28.144 225.738 28.0573 225.738 27.988C225.738 27.884 225.79 27.8147 225.894 27.78C226.691 27.6067 227.541 27.5027 228.442 27.468C229.343 27.3987 230.193 27.312 230.99 27.208L244.51 63.452C244.614 63.7293 244.822 63.972 245.134 64.18C245.481 64.3533 245.81 64.44 246.122 64.44C246.434 64.44 246.729 64.44 247.006 64.44C247.318 64.4053 247.63 64.388 247.942 64.388C248.323 64.388 248.549 64.4573 248.618 64.596C248.722 64.7 248.774 64.9253 248.774 65.272Z" fill="white"/>
<path d="M40.1743 99.272C40.1743 99.3747 40.0936 99.5213 39.9323 99.712C39.771 99.888 39.6536 100.013 39.5803 100.086C39.4483 100.218 39.3163 100.35 39.1843 100.482C39.0523 100.614 38.9056 100.739 38.7443 100.856C38.2896 101.179 37.747 101.457 37.1163 101.692C36.4856 101.912 35.8916 102.022 35.3343 102.022C34.2196 102.022 33.237 101.78 32.3863 101.296C31.5503 100.797 30.8903 100.123 30.4063 99.272C29.937 98.4067 29.7023 97.424 29.7023 96.324C29.7023 95.2387 29.9223 94.2193 30.3623 93.266C30.8023 92.3127 31.499 91.5427 32.4523 90.956C32.863 90.7067 33.3176 90.5087 33.8163 90.362C34.3296 90.2153 34.821 90.142 35.2903 90.142C35.657 90.142 36.009 90.186 36.3463 90.274C36.6983 90.362 37.0356 90.4793 37.3583 90.626C37.549 90.714 37.7323 90.802 37.9083 90.89C38.0843 90.978 38.275 91.022 38.4803 91.022C38.6563 91.022 38.7956 90.9707 38.8983 90.868C39.0156 90.7507 39.1036 90.692 39.1623 90.692C39.2063 90.692 39.2283 90.7213 39.2283 90.78C39.2576 90.956 39.265 91.132 39.2503 91.308C39.2503 91.484 39.2576 91.6527 39.2723 91.814C39.287 92.1367 39.3016 92.4593 39.3163 92.782C39.331 93.1047 39.3456 93.4273 39.3603 93.75V93.816C39.375 93.9773 39.3603 94.102 39.3163 94.19C39.2723 94.278 39.155 94.322 38.9643 94.322C38.8616 94.322 38.7883 94.2633 38.7443 94.146C38.715 94.0287 38.6856 93.926 38.6563 93.838C38.5536 93.4127 38.3996 92.958 38.1943 92.474C37.989 91.99 37.7103 91.6013 37.3583 91.308C37.1383 91.1027 36.8596 90.934 36.5223 90.802C36.1996 90.67 35.8916 90.604 35.5983 90.604C34.8943 90.604 34.293 90.7873 33.7943 91.154C33.3103 91.506 32.9216 91.968 32.6283 92.54C32.335 93.0973 32.115 93.6987 31.9683 94.344C31.8363 94.9893 31.7703 95.598 31.7703 96.17C31.7703 96.742 31.8363 97.3287 31.9683 97.93C32.1003 98.5167 32.3056 99.0667 32.5843 99.58C32.8776 100.093 33.259 100.504 33.7283 100.812C34.2123 101.12 34.7916 101.274 35.4663 101.274C36.405 101.274 37.1896 101.105 37.8203 100.768C38.451 100.416 39.0596 99.8807 39.6463 99.162C39.705 99.0593 39.7856 99.008 39.8883 99.008C40.079 99.008 40.1743 99.096 40.1743 99.272ZM55.4872 96.192C55.4872 95.5613 55.4358 94.9307 55.3332 94.3C55.2452 93.6547 55.0692 93.0607 54.8052 92.518C54.5558 91.9753 54.1892 91.5427 53.7052 91.22C53.2212 90.8827 52.5905 90.714 51.8132 90.714C51.0798 90.714 50.4785 90.89 50.0092 91.242C49.5545 91.594 49.1952 92.0487 48.9312 92.606C48.6818 93.1633 48.5058 93.7647 48.4032 94.41C48.3152 95.0553 48.2712 95.664 48.2712 96.236C48.2712 96.8667 48.3152 97.4973 48.4032 98.128C48.5058 98.7587 48.6892 99.3307 48.9532 99.844C49.2172 100.343 49.5912 100.746 50.0752 101.054C50.5738 101.362 51.2118 101.516 51.9892 101.516C52.7518 101.516 53.3605 101.355 53.8152 101.032C54.2845 100.709 54.6365 100.284 54.8712 99.756C55.1205 99.228 55.2818 98.656 55.3552 98.04C55.4432 97.4093 55.4872 96.7933 55.4872 96.192ZM57.7532 96.258C57.7532 97.358 57.4892 98.348 56.9612 99.228C56.4478 100.108 55.7438 100.805 54.8492 101.318C53.9692 101.831 52.9792 102.088 51.8792 102.088C50.8085 102.088 49.8405 101.831 48.9752 101.318C48.1098 100.79 47.4205 100.093 46.9072 99.228C46.3938 98.348 46.1372 97.3727 46.1372 96.302C46.1372 95.202 46.3865 94.19 46.8852 93.266C47.3838 92.3273 48.0658 91.572 48.9312 91C49.8112 90.428 50.8232 90.142 51.9672 90.142C53.1992 90.142 54.2478 90.406 55.1132 90.934C55.9785 91.4473 56.6312 92.166 57.0712 93.09C57.5258 93.9993 57.7532 95.0553 57.7532 96.258ZM76.9617 101.67C76.9617 101.861 76.8517 101.956 76.6317 101.956C76.3091 101.956 75.9791 101.949 75.6417 101.934C75.3044 101.905 74.9671 101.89 74.6297 101.89C74.1311 101.89 73.6177 101.905 73.0897 101.934C72.5764 101.949 72.0631 101.956 71.5497 101.956C71.4911 101.956 71.4544 101.912 71.4397 101.824C71.4251 101.721 71.4177 101.641 71.4177 101.582C71.4177 101.465 71.4911 101.406 71.6377 101.406C71.7844 101.406 71.9017 101.406 71.9897 101.406C72.0631 101.406 72.1364 101.413 72.2097 101.428C72.2977 101.428 72.3784 101.428 72.4517 101.428C72.8771 101.428 73.1117 101.215 73.1557 100.79C73.1997 99.9247 73.2144 99.052 73.1997 98.172C73.1997 97.292 73.1997 96.4193 73.1997 95.554C73.1997 95.3927 73.1997 95.2313 73.1997 95.07C73.1997 94.894 73.1997 94.7253 73.1997 94.564C73.1851 94.2267 73.1631 93.816 73.1337 93.332C73.1044 92.8333 73.0384 92.43 72.9357 92.122C72.7011 91.3593 72.1877 90.978 71.3957 90.978C70.6771 90.978 70.0171 91.1613 69.4157 91.528C68.8144 91.8947 68.2937 92.3567 67.8537 92.914C67.8391 93.9847 67.8317 95.048 67.8317 96.104C67.8317 97.16 67.8317 98.216 67.8317 99.272V100.79C67.8317 101.01 67.9271 101.171 68.1177 101.274C68.3084 101.377 68.4991 101.428 68.6897 101.428C68.8071 101.428 68.9171 101.421 69.0197 101.406C69.1371 101.377 69.2471 101.362 69.3497 101.362C69.4084 101.362 69.4451 101.399 69.4597 101.472C69.4744 101.545 69.4817 101.604 69.4817 101.648C69.4817 101.707 69.4597 101.773 69.4157 101.846C69.3864 101.919 69.3277 101.956 69.2397 101.956C68.9171 101.956 68.5944 101.949 68.2717 101.934C67.9637 101.905 67.6484 101.89 67.3257 101.89C66.8271 101.89 66.3284 101.905 65.8297 101.934C65.3311 101.949 64.8251 101.956 64.3117 101.956C64.2384 101.956 64.1944 101.912 64.1797 101.824C64.1797 101.721 64.1797 101.641 64.1797 101.582C64.1797 101.465 64.2457 101.406 64.3777 101.406C64.5097 101.406 64.6124 101.406 64.6857 101.406C64.7591 101.406 64.8324 101.413 64.9057 101.428C64.9791 101.428 65.0524 101.428 65.1257 101.428C65.5511 101.428 65.7857 101.215 65.8297 100.79C65.8444 100.585 65.8517 100.379 65.8517 100.174C65.8517 99.9687 65.8517 99.7633 65.8517 99.558C65.8517 98.2967 65.8517 97.0353 65.8517 95.774C65.8517 94.498 65.8444 93.2293 65.8297 91.968C65.8297 91.7627 65.7857 91.5573 65.6977 91.352C65.6097 91.1467 65.4411 91.044 65.1917 91.044C65.0011 91.044 64.8177 91.0733 64.6417 91.132C64.4657 91.1907 64.2824 91.22 64.0917 91.22C63.9891 91.22 63.9377 91.1467 63.9377 91C63.9377 90.9707 63.9377 90.9413 63.9377 90.912C63.9524 90.868 63.9671 90.8387 63.9817 90.824C63.9964 90.8093 64.0184 90.802 64.0477 90.802C64.0771 90.7873 64.0991 90.7727 64.1137 90.758C64.3777 90.6847 64.6491 90.6333 64.9277 90.604C65.2211 90.5747 65.4997 90.5307 65.7637 90.472C66.0131 90.428 66.2551 90.3693 66.4897 90.296C66.7244 90.208 66.9591 90.164 67.1937 90.164C67.2964 90.164 67.3771 90.2153 67.4357 90.318C67.5091 90.45 67.5677 90.6407 67.6117 90.89C67.6557 91.1247 67.6851 91.3667 67.6997 91.616C67.7291 91.8653 67.7437 92.0707 67.7437 92.232C68.0664 91.9093 68.4477 91.594 68.8877 91.286C69.3424 90.9633 69.8117 90.6993 70.2957 90.494C70.7944 90.274 71.2784 90.164 71.7477 90.164C73.0971 90.164 74.0064 90.4647 74.4757 91.066C74.9597 91.6527 75.2017 92.584 75.2017 93.86C75.2017 95.004 75.1944 96.148 75.1797 97.292C75.1797 98.436 75.1797 99.58 75.1797 100.724C75.1797 101.003 75.2604 101.193 75.4217 101.296C75.5977 101.384 75.8031 101.428 76.0377 101.428C76.1551 101.428 76.2724 101.421 76.3897 101.406C76.5071 101.377 76.6171 101.362 76.7197 101.362C76.8077 101.362 76.8664 101.399 76.8957 101.472C76.9397 101.531 76.9617 101.597 76.9617 101.67ZM91.0161 98.854C91.0161 99.514 90.8695 100.057 90.5761 100.482C90.2828 100.893 89.9015 101.208 89.4321 101.428C88.9628 101.648 88.4495 101.802 87.8921 101.89C87.3348 101.978 86.7921 102.022 86.2641 102.022C85.7801 102.022 85.2961 101.971 84.8121 101.868C84.3428 101.765 83.8661 101.692 83.3821 101.648C83.2795 101.252 83.1768 100.856 83.0741 100.46C82.9861 100.064 82.8835 99.6753 82.7661 99.294C82.7515 99.25 82.7148 99.1473 82.6561 98.986C82.6121 98.8247 82.5901 98.7367 82.5901 98.722C82.5901 98.6047 82.6268 98.524 82.7001 98.48C82.7735 98.4213 82.8615 98.392 82.9641 98.392C83.0668 98.392 83.1401 98.4287 83.1841 98.502C83.2721 98.6047 83.3455 98.744 83.4041 98.92C83.4775 99.096 83.5435 99.25 83.6021 99.382C83.7195 99.6167 83.8221 99.8 83.9101 99.932C83.9981 100.049 84.1375 100.203 84.3281 100.394C84.9001 100.995 85.6115 101.296 86.4621 101.296C86.9315 101.296 87.3568 101.245 87.7381 101.142C88.1341 101.039 88.4495 100.849 88.6841 100.57C88.9188 100.277 89.0361 99.8587 89.0361 99.316C89.0361 98.8467 88.8895 98.458 88.5961 98.15C88.3028 97.8273 87.9215 97.5413 87.4521 97.292C86.9975 97.0427 86.5135 96.8007 86.0001 96.566C85.4868 96.3313 84.9955 96.0747 84.5261 95.796C84.0715 95.5027 83.6975 95.1507 83.4041 94.74C83.1108 94.3293 82.9641 93.8307 82.9641 93.244C82.9641 92.5253 83.1475 91.9387 83.5141 91.484C83.8955 91.0293 84.3795 90.692 84.9661 90.472C85.5528 90.2373 86.1615 90.12 86.7921 90.12C87.2028 90.12 87.5695 90.1713 87.8921 90.274C88.2295 90.3767 88.5815 90.494 88.9481 90.626C89.0655 90.67 89.1828 90.6993 89.3001 90.714C89.4175 90.7287 89.5348 90.736 89.6521 90.736C89.7255 90.736 89.7915 90.736 89.8501 90.736C89.9088 90.736 89.9675 90.7287 90.0261 90.714C90.0701 90.978 90.1068 91.2493 90.1361 91.528C90.1801 91.792 90.2168 92.0633 90.2461 92.342C90.2608 92.4447 90.2755 92.5693 90.2901 92.716C90.3195 92.848 90.3341 92.9727 90.3341 93.09C90.3341 93.1927 90.3121 93.3027 90.2681 93.42C90.2241 93.5227 90.1361 93.574 90.0041 93.574C89.9015 93.574 89.8135 93.5667 89.7401 93.552C89.6815 93.5227 89.6301 93.4567 89.5861 93.354C89.5128 93.2073 89.4468 93.0533 89.3881 92.892C89.3441 92.716 89.2928 92.5547 89.2341 92.408C89.0435 91.8947 88.7135 91.484 88.2441 91.176C87.7748 90.8533 87.2688 90.692 86.7261 90.692C86.0368 90.692 85.5161 90.8973 85.1641 91.308C84.8121 91.704 84.6361 92.2393 84.6361 92.914C84.6361 93.1487 84.6948 93.376 84.8121 93.596C84.9441 93.816 85.0908 94.0067 85.2521 94.168C85.5601 94.4613 85.9195 94.6887 86.3301 94.85C86.7555 95.0113 87.1588 95.1727 87.5401 95.334C88.0388 95.554 88.5521 95.818 89.0801 96.126C89.6228 96.434 90.0775 96.808 90.4441 97.248C90.8255 97.688 91.0161 98.2233 91.0161 98.854ZM104.354 100.988C104.354 101.12 104.252 101.252 104.046 101.384C103.856 101.516 103.621 101.633 103.342 101.736C103.064 101.839 102.792 101.919 102.528 101.978C102.279 102.037 102.096 102.066 101.978 102.066C101.216 102.066 100.622 101.971 100.196 101.78C99.7858 101.589 99.4925 101.274 99.3165 100.834C99.1551 100.394 99.0745 99.8 99.0745 99.052C99.0745 97.8347 99.0745 96.6173 99.0745 95.4C99.0891 94.168 99.1038 92.9433 99.1185 91.726H97.5345C97.4318 91.726 97.3438 91.7553 97.2705 91.814C97.2118 91.858 97.1458 91.88 97.0725 91.88C96.9991 91.88 96.9625 91.8287 96.9625 91.726C96.9625 91.6673 96.9991 91.55 97.0725 91.374C97.1605 91.198 97.2191 91.0807 97.2485 91.022C97.2925 91.0367 97.3585 91.044 97.4465 91.044H99.1625L99.1845 88.25C99.5218 88.03 99.8298 87.788 100.108 87.524C100.387 87.2453 100.666 86.9667 100.944 86.688C100.974 86.6587 101.003 86.6367 101.032 86.622C101.062 86.5927 101.091 86.578 101.12 86.578C101.252 86.578 101.318 86.6293 101.318 86.732L101.186 91.022C101.656 91.022 102.118 91.0147 102.572 91C103.042 90.9853 103.504 90.978 103.958 90.978C104.149 90.978 104.244 91.088 104.244 91.308C104.244 91.5867 104.12 91.726 103.87 91.726H101.186C101.186 92.8407 101.179 93.9627 101.164 95.092C101.164 96.2067 101.164 97.3287 101.164 98.458V100.152C101.164 100.519 101.318 100.775 101.626 100.922C101.934 101.054 102.235 101.12 102.528 101.12C102.939 101.12 103.342 101.054 103.738 100.922C103.782 100.893 103.848 100.863 103.936 100.834C104.024 100.805 104.09 100.79 104.134 100.79C104.281 100.79 104.354 100.856 104.354 100.988ZM118.722 92.21C118.722 92.3567 118.663 92.496 118.546 92.628C118.443 92.7453 118.311 92.804 118.15 92.804C117.93 92.804 117.769 92.7307 117.666 92.584C117.578 92.4373 117.497 92.2687 117.424 92.078C117.365 91.8873 117.27 91.7187 117.138 91.572C117.006 91.4253 116.786 91.352 116.478 91.352C116.419 91.352 116.361 91.352 116.302 91.352C116.258 91.352 116.207 91.3593 116.148 91.374C115.899 91.418 115.627 91.572 115.334 91.836C115.041 92.1 114.755 92.4153 114.476 92.782C114.212 93.134 113.992 93.486 113.816 93.838C113.64 94.19 113.545 94.4833 113.53 94.718C113.515 94.9527 113.508 95.1873 113.508 95.422C113.508 95.642 113.508 95.862 113.508 96.082C113.508 96.874 113.508 97.666 113.508 98.458C113.523 99.25 113.53 100.035 113.53 100.812C113.53 101.032 113.618 101.193 113.794 101.296C113.985 101.384 114.175 101.428 114.366 101.428C114.513 101.428 114.659 101.421 114.806 101.406C114.953 101.391 115.099 101.384 115.246 101.384C115.319 101.384 115.371 101.421 115.4 101.494C115.429 101.553 115.444 101.611 115.444 101.67C115.444 101.905 115.327 102.022 115.092 102.022C114.652 102.022 114.212 102.015 113.772 102C113.332 101.971 112.892 101.956 112.452 101.956C111.997 101.956 111.535 101.971 111.066 102C110.611 102.029 110.149 102.044 109.68 102.044C109.621 102.044 109.577 102 109.548 101.912C109.533 101.824 109.526 101.751 109.526 101.692C109.526 101.545 109.585 101.465 109.702 101.45C109.863 101.421 110.032 101.413 110.208 101.428C110.384 101.443 110.545 101.45 110.692 101.45C110.912 101.45 111.088 101.406 111.22 101.318C111.367 101.215 111.447 101.047 111.462 100.812C111.491 100.343 111.506 99.866 111.506 99.382C111.521 98.898 111.528 98.414 111.528 97.93V95.796C111.513 95.1653 111.506 94.542 111.506 93.926C111.521 93.2953 111.499 92.672 111.44 92.056C111.425 91.7627 111.345 91.5573 111.198 91.44C111.051 91.308 110.831 91.242 110.538 91.242C110.421 91.242 110.296 91.2567 110.164 91.286C110.047 91.3007 109.922 91.308 109.79 91.308C109.673 91.308 109.614 91.22 109.614 91.044C109.614 90.9413 109.665 90.868 109.768 90.824C109.915 90.78 110.069 90.7507 110.23 90.736C110.391 90.7067 110.545 90.6847 110.692 90.67C111.088 90.5967 111.484 90.5233 111.88 90.45C112.276 90.3767 112.672 90.2887 113.068 90.186C113.2 90.23 113.295 90.3107 113.354 90.428C113.383 90.4867 113.405 90.648 113.42 90.912C113.435 91.176 113.442 91.484 113.442 91.836C113.442 92.1733 113.442 92.496 113.442 92.804C113.442 93.0973 113.442 93.3027 113.442 93.42C113.765 92.9067 114.131 92.3933 114.542 91.88C114.953 91.3667 115.422 90.9413 115.95 90.604C116.478 90.2667 117.072 90.098 117.732 90.098C118.084 90.098 118.311 90.208 118.414 90.428C118.517 90.648 118.583 90.9047 118.612 91.198C118.641 91.3593 118.663 91.528 118.678 91.704C118.707 91.88 118.722 92.0487 118.722 92.21ZM137.143 101.406C137.143 101.582 137.011 101.714 136.747 101.802C136.498 101.89 136.219 101.949 135.911 101.978C135.603 102.007 135.383 102.022 135.251 102.022C134.753 102.022 134.357 101.824 134.063 101.428C133.77 101.032 133.55 100.621 133.403 100.196C132.905 100.827 132.281 101.296 131.533 101.604C130.785 101.912 130.008 102.066 129.201 102.066C127.881 102.066 126.965 101.729 126.451 101.054C125.953 100.365 125.703 99.3967 125.703 98.15C125.703 97.05 125.703 95.95 125.703 94.85C125.718 93.7353 125.733 92.628 125.747 91.528C125.747 91.088 125.535 90.868 125.109 90.868C124.992 90.868 124.875 90.8753 124.757 90.89C124.64 90.9047 124.523 90.912 124.405 90.912C124.361 90.912 124.325 90.89 124.295 90.846C124.281 90.7873 124.273 90.7433 124.273 90.714C124.273 90.5527 124.347 90.4647 124.493 90.45C125.007 90.3913 125.52 90.3547 126.033 90.34C126.561 90.3107 127.082 90.2667 127.595 90.208C127.713 90.3253 127.771 90.472 127.771 90.648C127.771 91.0147 127.764 91.3887 127.749 91.77C127.735 92.1513 127.727 92.5327 127.727 92.914C127.713 93.8087 127.698 94.7107 127.683 95.62C127.683 96.5147 127.683 97.4167 127.683 98.326C127.683 98.6047 127.691 98.9053 127.705 99.228C127.72 99.536 127.779 99.822 127.881 100.086C128.043 100.497 128.343 100.79 128.783 100.966C129.238 101.127 129.671 101.208 130.081 101.208C130.536 101.208 130.991 101.127 131.445 100.966C131.915 100.79 132.311 100.541 132.633 100.218C132.971 99.8807 133.161 99.4627 133.205 98.964C133.235 98.7147 133.249 98.4653 133.249 98.216C133.264 97.952 133.271 97.6953 133.271 97.446L133.249 91.462C133.249 91.2713 133.183 91.132 133.051 91.044C132.934 90.956 132.795 90.912 132.633 90.912C132.487 90.912 132.34 90.9193 132.193 90.934C132.061 90.9487 131.922 90.956 131.775 90.956C131.643 90.956 131.577 90.8827 131.577 90.736C131.577 90.5893 131.643 90.5087 131.775 90.494C131.951 90.4647 132.135 90.45 132.325 90.45C132.516 90.4353 132.707 90.4207 132.897 90.406L134.415 90.252C134.518 90.2373 134.621 90.2227 134.723 90.208C134.841 90.1933 134.951 90.186 135.053 90.186C135.127 90.186 135.178 90.23 135.207 90.318C135.237 90.3913 135.251 90.45 135.251 90.494C135.207 93.6767 135.185 96.852 135.185 100.02C135.185 100.387 135.266 100.687 135.427 100.922C135.603 101.157 135.889 101.274 136.285 101.274C136.403 101.274 136.505 101.259 136.593 101.23C136.696 101.201 136.799 101.186 136.901 101.186C137.063 101.186 137.143 101.259 137.143 101.406ZM153.532 99.272C153.532 99.3747 153.451 99.5213 153.29 99.712C153.129 99.888 153.011 100.013 152.938 100.086C152.806 100.218 152.674 100.35 152.542 100.482C152.41 100.614 152.263 100.739 152.102 100.856C151.647 101.179 151.105 101.457 150.474 101.692C149.843 101.912 149.249 102.022 148.692 102.022C147.577 102.022 146.595 101.78 145.744 101.296C144.908 100.797 144.248 100.123 143.764 99.272C143.295 98.4067 143.06 97.424 143.06 96.324C143.06 95.2387 143.28 94.2193 143.72 93.266C144.16 92.3127 144.857 91.5427 145.81 90.956C146.221 90.7067 146.675 90.5087 147.174 90.362C147.687 90.2153 148.179 90.142 148.648 90.142C149.015 90.142 149.367 90.186 149.704 90.274C150.056 90.362 150.393 90.4793 150.716 90.626C150.907 90.714 151.09 90.802 151.266 90.89C151.442 90.978 151.633 91.022 151.838 91.022C152.014 91.022 152.153 90.9707 152.256 90.868C152.373 90.7507 152.461 90.692 152.52 90.692C152.564 90.692 152.586 90.7213 152.586 90.78C152.615 90.956 152.623 91.132 152.608 91.308C152.608 91.484 152.615 91.6527 152.63 91.814C152.645 92.1367 152.659 92.4593 152.674 92.782C152.689 93.1047 152.703 93.4273 152.718 93.75V93.816C152.733 93.9773 152.718 94.102 152.674 94.19C152.63 94.278 152.513 94.322 152.322 94.322C152.219 94.322 152.146 94.2633 152.102 94.146C152.073 94.0287 152.043 93.926 152.014 93.838C151.911 93.4127 151.757 92.958 151.552 92.474C151.347 91.99 151.068 91.6013 150.716 91.308C150.496 91.1027 150.217 90.934 149.88 90.802C149.557 90.67 149.249 90.604 148.956 90.604C148.252 90.604 147.651 90.7873 147.152 91.154C146.668 91.506 146.279 91.968 145.986 92.54C145.693 93.0973 145.473 93.6987 145.326 94.344C145.194 94.9893 145.128 95.598 145.128 96.17C145.128 96.742 145.194 97.3287 145.326 97.93C145.458 98.5167 145.663 99.0667 145.942 99.58C146.235 100.093 146.617 100.504 147.086 100.812C147.57 101.12 148.149 101.274 148.824 101.274C149.763 101.274 150.547 101.105 151.178 100.768C151.809 100.416 152.417 99.8807 153.004 99.162C153.063 99.0593 153.143 99.008 153.246 99.008C153.437 99.008 153.532 99.096 153.532 99.272ZM170.033 99.272C170.033 99.3747 169.952 99.5213 169.791 99.712C169.629 99.888 169.512 100.013 169.439 100.086C169.307 100.218 169.175 100.35 169.043 100.482C168.911 100.614 168.764 100.739 168.603 100.856C168.148 101.179 167.605 101.457 166.975 101.692C166.344 101.912 165.75 102.022 165.193 102.022C164.078 102.022 163.095 101.78 162.245 101.296C161.409 100.797 160.749 100.123 160.265 99.272C159.795 98.4067 159.561 97.424 159.561 96.324C159.561 95.2387 159.781 94.2193 160.221 93.266C160.661 92.3127 161.357 91.5427 162.311 90.956C162.721 90.7067 163.176 90.5087 163.675 90.362C164.188 90.2153 164.679 90.142 165.149 90.142C165.515 90.142 165.867 90.186 166.205 90.274C166.557 90.362 166.894 90.4793 167.217 90.626C167.407 90.714 167.591 90.802 167.767 90.89C167.943 90.978 168.133 91.022 168.339 91.022C168.515 91.022 168.654 90.9707 168.757 90.868C168.874 90.7507 168.962 90.692 169.021 90.692C169.065 90.692 169.087 90.7213 169.087 90.78C169.116 90.956 169.123 91.132 169.109 91.308C169.109 91.484 169.116 91.6527 169.131 91.814C169.145 92.1367 169.16 92.4593 169.175 92.782C169.189 93.1047 169.204 93.4273 169.219 93.75V93.816C169.233 93.9773 169.219 94.102 169.175 94.19C169.131 94.278 169.013 94.322 168.823 94.322C168.72 94.322 168.647 94.2633 168.603 94.146C168.573 94.0287 168.544 93.926 168.515 93.838C168.412 93.4127 168.258 92.958 168.053 92.474C167.847 91.99 167.569 91.6013 167.217 91.308C166.997 91.1027 166.718 90.934 166.381 90.802C166.058 90.67 165.75 90.604 165.457 90.604C164.753 90.604 164.151 90.7873 163.653 91.154C163.169 91.506 162.78 91.968 162.487 92.54C162.193 93.0973 161.973 93.6987 161.827 94.344C161.695 94.9893 161.629 95.598 161.629 96.17C161.629 96.742 161.695 97.3287 161.827 97.93C161.959 98.5167 162.164 99.0667 162.443 99.58C162.736 100.093 163.117 100.504 163.587 100.812C164.071 101.12 164.65 101.274 165.325 101.274C166.263 101.274 167.048 101.105 167.679 100.768C168.309 100.416 168.918 99.8807 169.505 99.162C169.563 99.0593 169.644 99.008 169.747 99.008C169.937 99.008 170.033 99.096 170.033 99.272ZM181.958 101.67C181.958 101.743 181.936 101.817 181.892 101.89C181.848 101.949 181.789 101.978 181.716 101.978C181.305 101.978 180.894 101.971 180.484 101.956C180.088 101.927 179.677 101.912 179.252 101.912H178.658C178.218 101.912 177.778 101.927 177.338 101.956C176.912 101.971 176.487 101.978 176.062 101.978C176.003 101.978 175.959 101.941 175.93 101.868C175.915 101.795 175.908 101.736 175.908 101.692C175.908 101.619 175.915 101.567 175.93 101.538C175.944 101.494 175.988 101.465 176.062 101.45C176.135 101.421 176.216 101.413 176.304 101.428C176.406 101.428 176.502 101.428 176.59 101.428C176.692 101.428 176.788 101.435 176.876 101.45C176.964 101.45 177.059 101.45 177.162 101.45C177.367 101.45 177.55 101.406 177.712 101.318C177.888 101.215 177.976 101.047 177.976 100.812V92.012C177.976 91.7627 177.932 91.572 177.844 91.44C177.756 91.2933 177.572 91.22 177.294 91.22C177.088 91.22 176.876 91.2347 176.656 91.264C176.45 91.2787 176.245 91.3007 176.04 91.33C175.922 91.33 175.864 91.264 175.864 91.132C175.864 90.9853 175.922 90.89 176.04 90.846C176.216 90.7873 176.399 90.7507 176.59 90.736C176.795 90.7067 176.986 90.6773 177.162 90.648C177.572 90.5747 177.983 90.494 178.394 90.406C178.804 90.318 179.208 90.2227 179.604 90.12C179.648 90.1053 179.706 90.098 179.78 90.098C179.941 90.098 180.022 90.186 180.022 90.362C180.022 92.0927 180.014 93.8307 180 95.576C180 97.3213 180 99.0667 180 100.812C180 101.047 180.102 101.215 180.308 101.318C180.528 101.406 180.733 101.45 180.924 101.45C181.07 101.45 181.217 101.443 181.364 101.428C181.525 101.413 181.679 101.406 181.826 101.406C181.884 101.406 181.921 101.443 181.936 101.516C181.95 101.589 181.958 101.641 181.958 101.67ZM180.176 86.446C180.176 86.8127 180.044 87.128 179.78 87.392C179.516 87.6413 179.2 87.766 178.834 87.766C178.467 87.766 178.152 87.6413 177.888 87.392C177.624 87.128 177.492 86.8127 177.492 86.446C177.492 86.0793 177.624 85.7713 177.888 85.522C178.152 85.258 178.467 85.126 178.834 85.126C179.2 85.126 179.516 85.258 179.78 85.522C180.044 85.7713 180.176 86.0793 180.176 86.446ZM197.528 96.192C197.528 95.5613 197.477 94.9307 197.374 94.3C197.286 93.6547 197.11 93.0607 196.846 92.518C196.597 91.9753 196.23 91.5427 195.746 91.22C195.262 90.8827 194.631 90.714 193.854 90.714C193.121 90.714 192.519 90.89 192.05 91.242C191.595 91.594 191.236 92.0487 190.972 92.606C190.723 93.1633 190.547 93.7647 190.444 94.41C190.356 95.0553 190.312 95.664 190.312 96.236C190.312 96.8667 190.356 97.4973 190.444 98.128C190.547 98.7587 190.73 99.3307 190.994 99.844C191.258 100.343 191.632 100.746 192.116 101.054C192.615 101.362 193.253 101.516 194.03 101.516C194.793 101.516 195.401 101.355 195.856 101.032C196.325 100.709 196.677 100.284 196.912 99.756C197.161 99.228 197.323 98.656 197.396 98.04C197.484 97.4093 197.528 96.7933 197.528 96.192ZM199.794 96.258C199.794 97.358 199.53 98.348 199.002 99.228C198.489 100.108 197.785 100.805 196.89 101.318C196.01 101.831 195.02 102.088 193.92 102.088C192.849 102.088 191.881 101.831 191.016 101.318C190.151 100.79 189.461 100.093 188.948 99.228C188.435 98.348 188.178 97.3727 188.178 96.302C188.178 95.202 188.427 94.19 188.926 93.266C189.425 92.3273 190.107 91.572 190.972 91C191.852 90.428 192.864 90.142 194.008 90.142C195.24 90.142 196.289 90.406 197.154 90.934C198.019 91.4473 198.672 92.166 199.112 93.09C199.567 93.9993 199.794 95.0553 199.794 96.258ZM219.003 101.67C219.003 101.861 218.893 101.956 218.673 101.956C218.35 101.956 218.02 101.949 217.683 101.934C217.345 101.905 217.008 101.89 216.671 101.89C216.172 101.89 215.659 101.905 215.131 101.934C214.617 101.949 214.104 101.956 213.591 101.956C213.532 101.956 213.495 101.912 213.481 101.824C213.466 101.721 213.459 101.641 213.459 101.582C213.459 101.465 213.532 101.406 213.679 101.406C213.825 101.406 213.943 101.406 214.031 101.406C214.104 101.406 214.177 101.413 214.251 101.428C214.339 101.428 214.419 101.428 214.493 101.428C214.918 101.428 215.153 101.215 215.197 100.79C215.241 99.9247 215.255 99.052 215.241 98.172C215.241 97.292 215.241 96.4193 215.241 95.554C215.241 95.3927 215.241 95.2313 215.241 95.07C215.241 94.894 215.241 94.7253 215.241 94.564C215.226 94.2267 215.204 93.816 215.175 93.332C215.145 92.8333 215.079 92.43 214.977 92.122C214.742 91.3593 214.229 90.978 213.437 90.978C212.718 90.978 212.058 91.1613 211.457 91.528C210.855 91.8947 210.335 92.3567 209.895 92.914C209.88 93.9847 209.873 95.048 209.873 96.104C209.873 97.16 209.873 98.216 209.873 99.272V100.79C209.873 101.01 209.968 101.171 210.159 101.274C210.349 101.377 210.54 101.428 210.731 101.428C210.848 101.428 210.958 101.421 211.061 101.406C211.178 101.377 211.288 101.362 211.391 101.362C211.449 101.362 211.486 101.399 211.501 101.472C211.515 101.545 211.523 101.604 211.523 101.648C211.523 101.707 211.501 101.773 211.457 101.846C211.427 101.919 211.369 101.956 211.281 101.956C210.958 101.956 210.635 101.949 210.313 101.934C210.005 101.905 209.689 101.89 209.367 101.89C208.868 101.89 208.369 101.905 207.871 101.934C207.372 101.949 206.866 101.956 206.353 101.956C206.279 101.956 206.235 101.912 206.221 101.824C206.221 101.721 206.221 101.641 206.221 101.582C206.221 101.465 206.287 101.406 206.419 101.406C206.551 101.406 206.653 101.406 206.727 101.406C206.8 101.406 206.873 101.413 206.947 101.428C207.02 101.428 207.093 101.428 207.167 101.428C207.592 101.428 207.827 101.215 207.871 100.79C207.885 100.585 207.893 100.379 207.893 100.174C207.893 99.9687 207.893 99.7633 207.893 99.558C207.893 98.2967 207.893 97.0353 207.893 95.774C207.893 94.498 207.885 93.2293 207.871 91.968C207.871 91.7627 207.827 91.5573 207.739 91.352C207.651 91.1467 207.482 91.044 207.233 91.044C207.042 91.044 206.859 91.0733 206.683 91.132C206.507 91.1907 206.323 91.22 206.133 91.22C206.03 91.22 205.979 91.1467 205.979 91C205.979 90.9707 205.979 90.9413 205.979 90.912C205.993 90.868 206.008 90.8387 206.023 90.824C206.037 90.8093 206.059 90.802 206.089 90.802C206.118 90.7873 206.14 90.7727 206.155 90.758C206.419 90.6847 206.69 90.6333 206.969 90.604C207.262 90.5747 207.541 90.5307 207.805 90.472C208.054 90.428 208.296 90.3693 208.531 90.296C208.765 90.208 209 90.164 209.235 90.164C209.337 90.164 209.418 90.2153 209.477 90.318C209.55 90.45 209.609 90.6407 209.653 90.89C209.697 91.1247 209.726 91.3667 209.741 91.616C209.77 91.8653 209.785 92.0707 209.785 92.232C210.107 91.9093 210.489 91.594 210.929 91.286C211.383 90.9633 211.853 90.6993 212.337 90.494C212.835 90.274 213.319 90.164 213.789 90.164C215.138 90.164 216.047 90.4647 216.517 91.066C217.001 91.6527 217.243 92.584 217.243 93.86C217.243 95.004 217.235 96.148 217.221 97.292C217.221 98.436 217.221 99.58 217.221 100.724C217.221 101.003 217.301 101.193 217.463 101.296C217.639 101.384 217.844 101.428 218.079 101.428C218.196 101.428 218.313 101.421 218.431 101.406C218.548 101.377 218.658 101.362 218.761 101.362C218.849 101.362 218.907 101.399 218.937 101.472C218.981 101.531 219.003 101.597 219.003 101.67ZM232.925 94.278C232.91 93.6767 232.859 93.1047 232.771 92.562C232.683 92.0047 232.47 91.55 232.133 91.198C231.796 90.8313 231.246 90.648 230.483 90.648C229.794 90.648 229.229 90.8387 228.789 91.22C228.364 91.5867 228.034 92.056 227.799 92.628C227.564 93.1853 227.388 93.7573 227.271 94.344C227.638 94.3587 227.997 94.3733 228.349 94.388C228.701 94.388 229.053 94.388 229.405 94.388C229.992 94.388 230.578 94.3807 231.165 94.366C231.752 94.3367 232.338 94.3073 232.925 94.278ZM235.455 99.316C235.455 99.3893 235.44 99.4333 235.411 99.448C235.367 99.5947 235.257 99.7707 235.081 99.976C234.92 100.181 234.736 100.379 234.531 100.57C234.326 100.746 234.157 100.878 234.025 100.966C233.541 101.303 232.991 101.575 232.375 101.78C231.774 101.985 231.172 102.088 230.571 102.088C230.072 102.088 229.515 102.007 228.899 101.846C228.298 101.685 227.784 101.465 227.359 101.186C226.538 100.643 225.936 99.932 225.555 99.052C225.174 98.172 224.983 97.2553 224.983 96.302C224.983 95.2167 225.196 94.212 225.621 93.288C226.046 92.364 226.728 91.616 227.667 91.044C228.092 90.7947 228.569 90.5893 229.097 90.428C229.625 90.252 230.131 90.164 230.615 90.164C231.48 90.164 232.243 90.34 232.903 90.692C233.563 91.044 234.076 91.5427 234.443 92.188C234.824 92.8187 235.015 93.574 235.015 94.454C235.015 94.7033 234.956 94.8647 234.839 94.938C234.736 95.0113 234.575 95.048 234.355 95.048C234.062 95.048 233.768 95.0407 233.475 95.026C233.182 95.0113 232.888 94.9967 232.595 94.982C232.184 94.9527 231.774 94.938 231.363 94.938C230.967 94.938 230.564 94.938 230.153 94.938C229.654 94.938 229.156 94.938 228.657 94.938C228.158 94.938 227.66 94.9527 227.161 94.982C227.146 95.2167 227.132 95.444 227.117 95.664C227.102 95.884 227.095 96.1113 227.095 96.346C227.095 96.8887 227.161 97.4533 227.293 98.04C227.425 98.612 227.638 99.1473 227.931 99.646C228.224 100.13 228.598 100.526 229.053 100.834C229.508 101.127 230.058 101.274 230.703 101.274C231.363 101.274 231.994 101.171 232.595 100.966C233.196 100.761 233.746 100.431 234.245 99.976C234.377 99.844 234.494 99.7047 234.597 99.558C234.714 99.3967 234.839 99.2573 234.971 99.14C235.044 99.0667 235.125 99.03 235.213 99.03C235.286 99.03 235.345 99.0593 235.389 99.118C235.433 99.1767 235.455 99.2427 235.455 99.316ZM249.665 98.854C249.665 99.514 249.519 100.057 249.225 100.482C248.932 100.893 248.551 101.208 248.081 101.428C247.612 101.648 247.099 101.802 246.541 101.89C245.984 101.978 245.441 102.022 244.913 102.022C244.429 102.022 243.945 101.971 243.461 101.868C242.992 101.765 242.515 101.692 242.031 101.648C241.929 101.252 241.826 100.856 241.723 100.46C241.635 100.064 241.533 99.6753 241.415 99.294C241.401 99.25 241.364 99.1473 241.305 98.986C241.261 98.8247 241.239 98.7367 241.239 98.722C241.239 98.6047 241.276 98.524 241.349 98.48C241.423 98.4213 241.511 98.392 241.613 98.392C241.716 98.392 241.789 98.4287 241.833 98.502C241.921 98.6047 241.995 98.744 242.053 98.92C242.127 99.096 242.193 99.25 242.251 99.382C242.369 99.6167 242.471 99.8 242.559 99.932C242.647 100.049 242.787 100.203 242.977 100.394C243.549 100.995 244.261 101.296 245.111 101.296C245.581 101.296 246.006 101.245 246.387 101.142C246.783 101.039 247.099 100.849 247.333 100.57C247.568 100.277 247.685 99.8587 247.685 99.316C247.685 98.8467 247.539 98.458 247.245 98.15C246.952 97.8273 246.571 97.5413 246.101 97.292C245.647 97.0427 245.163 96.8007 244.649 96.566C244.136 96.3313 243.645 96.0747 243.175 95.796C242.721 95.5027 242.347 95.1507 242.053 94.74C241.76 94.3293 241.613 93.8307 241.613 93.244C241.613 92.5253 241.797 91.9387 242.163 91.484C242.545 91.0293 243.029 90.692 243.615 90.472C244.202 90.2373 244.811 90.12 245.441 90.12C245.852 90.12 246.219 90.1713 246.541 90.274C246.879 90.3767 247.231 90.494 247.597 90.626C247.715 90.67 247.832 90.6993 247.949 90.714C248.067 90.7287 248.184 90.736 248.301 90.736C248.375 90.736 248.441 90.736 248.499 90.736C248.558 90.736 248.617 90.7287 248.675 90.714C248.719 90.978 248.756 91.2493 248.785 91.528C248.829 91.792 248.866 92.0633 248.895 92.342C248.91 92.4447 248.925 92.5693 248.939 92.716C248.969 92.848 248.983 92.9727 248.983 93.09C248.983 93.1927 248.961 93.3027 248.917 93.42C248.873 93.5227 248.785 93.574 248.653 93.574C248.551 93.574 248.463 93.5667 248.389 93.552C248.331 93.5227 248.279 93.4567 248.235 93.354C248.162 93.2073 248.096 93.0533 248.037 92.892C247.993 92.716 247.942 92.5547 247.883 92.408C247.693 91.8947 247.363 91.484 246.893 91.176C246.424 90.8533 245.918 90.692 245.375 90.692C244.686 90.692 244.165 90.8973 243.813 91.308C243.461 91.704 243.285 92.2393 243.285 92.914C243.285 93.1487 243.344 93.376 243.461 93.596C243.593 93.816 243.74 94.0067 243.901 94.168C244.209 94.4613 244.569 94.6887 244.979 94.85C245.405 95.0113 245.808 95.1727 246.189 95.334C246.688 95.554 247.201 95.818 247.729 96.126C248.272 96.434 248.727 96.808 249.093 97.248C249.475 97.688 249.665 98.2233 249.665 98.854Z" fill="white"/>
<line x1="29" y1="78" x2="249" y2="78" stroke="white" stroke-width="2"/>
<line x1="29" y1="113" x2="249" y2="113" stroke="white" stroke-width="2"/>
</svg>
