<svg width="117" height="117" viewBox="0 0 117 117" fill="none" xmlns="http://www.w3.org/2000/svg">
<rect width="37" height="37" transform="translate(40 40)" fill="black"/>
<path d="M71.2694 52.0326C71.059 51.2473 70.4356 50.639 69.6256 50.4312C67.6641 50 58.5 50 58.5 50C58.5 50 49.3359 50 47.3744 50.4312C46.5644 50.639 45.941 51.2473 45.7306 52.0326C45.3335 53.5686 45 55.8091 45 58.4961C45 58.5 45 58.5 45 58.5038C45 61.187 45.3335 63.4314 45.7306 64.9674C45.941 65.7527 46.5644 66.361 47.3744 66.5688C49.3359 67 58.5 67 58.5 67C58.5 67 67.6641 67 69.6256 66.5688C70.4356 66.361 71.059 65.7527 71.2694 64.9674C71.6665 63.4314 72 61.187 72 58.5038C72 58.5 72 58.5 72 58.4961C72 55.8091 71.6665 53.5686 71.2694 52.0326Z" fill="#F2F2F2"/>
<path d="M56 55L62 58.5L56 62V55Z" fill="black"/>
</svg>
